<svg width="216" height="144" viewBox="0 0 216 144" fill="none" xmlns="http://www.w3.org/2000/svg">
<path d="M203.944 122.608C203.944 122.608 203.621 122.849 203.42 122.849C203.138 122.849 202.815 122.929 202.573 122.808C202.21 122.608 201.888 122.447 201.686 122.648C201.283 122.568 201.041 122.527 200.799 122.447C200.517 122.327 200.194 122.246 199.992 122.046C199.509 121.484 198.46 121.644 198.38 120.64C197.13 119.275 197.735 117.589 197.654 116.023C197.654 115.1 197.654 114.217 197.735 113.293C197.775 112.731 197.936 112.209 198.057 111.647C198.299 110.202 198.501 108.757 198.863 107.311C199.307 105.545 199.63 103.778 200.355 102.092C200.799 101.088 201 100.004 201.363 98.9604C201.525 98.5187 201.767 98.1173 201.928 97.7158C202.009 97.4749 201.968 97.1537 202.009 96.8727H201.847C201.847 96.8727 201.847 97.0734 201.807 97.0734C200.92 97.1136 200.396 97.8362 199.67 98.1976C199.267 98.3983 198.863 98.7195 198.501 99.0005C197.573 99.7232 196.686 100.446 195.799 101.169C194.469 102.253 193.138 103.377 191.767 104.461C190.315 105.625 188.864 106.709 187.412 107.873C186.525 108.596 185.679 109.359 184.792 110.081C184.308 110.523 183.824 111.005 183.34 111.447C183.138 111.607 182.896 111.687 182.695 111.848C182.372 112.089 182.09 112.37 181.808 112.611C181.122 113.213 180.437 113.815 179.792 114.458C178.542 115.622 177.332 116.746 176.123 117.91C175.518 118.472 174.873 118.994 174.308 119.637C173.3 120.761 172.332 121.885 171.445 123.049C171.002 123.611 170.76 124.374 170.316 124.977C169.994 125.458 169.55 125.86 169.107 126.221C168.986 126.342 168.663 126.221 168.421 126.221C168.179 126.221 167.897 126.221 167.574 126.261C167.292 126.101 166.889 125.9 166.486 125.699C165.962 125.418 165.397 125.217 164.954 124.896C164.712 124.695 164.631 124.254 164.47 123.852C164.107 123.973 163.986 123.772 164.147 123.25C164.429 122.327 164.712 121.363 164.994 120.44C165.075 120.239 165.317 120.159 165.397 119.958C165.679 119.316 165.921 118.673 166.204 117.991C166.365 117.549 166.566 117.148 166.728 116.706C166.728 116.585 166.808 116.425 166.728 116.345C166.687 116.264 166.486 116.264 166.405 116.304C166.163 116.385 165.921 116.465 165.76 116.626C164.752 117.629 163.381 117.951 162.252 118.673C161.486 119.195 160.76 119.757 159.954 120.279C159.389 120.64 158.744 120.881 158.18 121.203C157.535 121.524 156.889 121.805 156.285 122.166C155.599 122.527 154.954 122.929 154.269 123.25C153.946 123.411 153.543 123.491 153.22 123.652C152.817 123.892 152.494 124.334 152.051 124.414C151.527 124.535 151.164 124.856 150.68 125.057C149.995 125.378 149.269 125.619 148.583 125.94C148.099 126.181 147.616 126.502 147.132 126.783C145.761 127.586 144.39 128.429 142.979 129.152C141.205 130.035 139.39 130.798 137.616 131.561C136.689 131.962 135.761 132.364 134.794 132.565C133.665 132.805 132.536 132.926 131.407 132.846C130.479 132.765 129.592 132.364 128.705 132.043C128.1 131.842 127.496 131.561 126.971 131.199C126.568 130.918 126.246 130.477 125.963 130.035C125.358 129.112 124.633 128.229 124.27 127.185C123.988 126.462 124.068 125.539 124.23 124.736C124.633 122.768 125.157 120.761 125.762 118.834C126.044 117.87 126.608 116.947 127.052 116.064C127.415 115.341 127.858 114.699 128.221 113.976C128.584 113.333 128.866 112.651 129.189 112.009C129.31 111.808 129.471 111.647 129.592 111.447C129.915 110.965 130.278 110.523 130.6 110.041C131.124 109.359 131.608 108.636 132.132 107.954C132.334 107.713 132.657 107.512 132.858 107.271C133.261 106.789 133.584 106.227 133.947 105.745C134.148 105.464 134.511 105.304 134.753 105.023C135.398 104.3 135.963 103.497 136.689 102.815C137.414 102.132 138.221 101.53 138.947 100.887C139.269 100.606 139.511 100.285 139.793 100.004C140.156 99.683 140.519 99.402 140.882 99.121C141.164 98.9202 141.447 98.7195 141.769 98.4786C141.688 98.3983 141.608 98.318 141.568 98.2779C142.051 97.8362 142.495 97.4347 143.019 96.9931C143.1 96.9931 143.18 97.1136 143.422 97.234C143.946 96.6318 144.43 96.0295 144.995 95.347C144.995 95.5478 144.995 95.6682 144.995 95.8288C145.075 95.7887 145.116 95.7485 145.156 95.7485C145.559 95.5478 145.519 94.9054 146.204 94.9455C146.608 94.9455 147.051 94.5842 147.495 94.3433C147.414 94.1827 147.333 94.1024 147.212 93.9017C147.575 93.8615 147.898 93.8214 148.301 93.7411C148.261 93.6206 148.18 93.5002 148.019 93.2593C148.583 92.9783 149.148 92.6571 149.712 92.376C150.156 92.1352 150.599 91.8943 151.043 91.6534C151.164 91.6132 151.325 91.6132 151.446 91.6534C151.93 91.8541 152.253 91.6534 152.575 91.292C152.494 91.292 152.374 91.292 152.172 91.3322C152.293 91.0913 152.374 90.8906 152.454 90.7701C152.857 90.8504 153.18 90.8906 153.502 90.9709C153.502 90.9307 153.502 90.8906 153.543 90.8504C153.422 90.73 153.301 90.6095 153.019 90.3686C153.341 90.2883 153.664 90.3686 153.825 90.208C154.148 89.8467 154.752 90.208 155.035 89.7263C155.115 89.6058 155.357 89.5657 155.519 89.5657C156.486 89.646 157.494 89.4051 158.26 88.9634C158.865 88.6021 159.268 88.8028 159.793 88.843C160.357 88.9233 160.801 89.0839 161.244 89.5255C162.171 90.4891 163.22 91.292 163.825 92.4965L163.905 92.5768C163.784 93.9418 164.631 95.3069 163.905 96.6719C163.381 97.5953 162.978 98.599 162.413 99.4823C161.889 100.285 161.325 101.088 160.68 101.811C159.752 102.855 158.785 103.778 157.776 104.742C156.93 105.585 156.043 106.388 155.196 107.191C154.954 107.392 154.511 107.512 154.43 107.753C154.148 108.476 153.382 108.476 152.938 108.957C152.494 109.439 151.809 109.76 151.245 110.122C149.511 111.286 147.777 112.41 146.083 113.615C145.116 114.337 143.987 114.699 142.898 115.14C142.656 115.261 142.334 115.341 142.172 115.542C141.85 115.983 141.447 115.863 141.003 115.823C140.6 115.783 140.277 116.104 139.793 115.903C139.39 115.742 138.866 115.863 138.382 115.783C137.173 115.662 136.003 115.301 134.834 114.618C134.39 115.301 133.947 115.943 133.544 116.626C133.06 117.429 132.576 118.232 132.213 119.075C131.729 120.279 131.326 121.564 130.882 122.808C130.721 123.25 130.641 123.732 130.6 124.214C130.52 124.896 130.721 125.137 131.407 125.217C133.1 125.378 134.592 124.736 136.124 124.254C137.132 123.973 138.019 123.371 138.987 122.969C139.269 122.849 139.632 122.768 139.914 122.608C141.366 121.885 142.777 121.162 144.229 120.44C145.398 119.838 146.527 119.155 147.696 118.633C148.462 118.312 149.188 117.91 149.874 117.509C150.72 117.027 151.607 116.586 152.535 116.184C153.502 115.783 154.511 115.501 155.478 115.14C155.76 115.02 156.043 114.859 156.285 114.699C156.889 114.377 157.454 114.016 158.099 113.695C158.301 113.615 158.583 113.695 158.865 113.655C159.47 113.253 160.075 112.852 160.72 112.41C160.72 112.41 160.801 112.49 160.841 112.49C160.801 112.611 160.72 112.771 160.68 112.892C161.123 113.093 162.736 112.29 162.897 111.728C162.736 111.768 162.655 111.808 162.534 111.848C162.534 111.768 162.454 111.647 162.454 111.647C162.615 111.567 162.776 111.447 162.897 111.487C163.704 111.848 164.349 111.487 164.994 111.045C165.276 110.844 165.679 110.884 166.042 110.804C166.244 110.764 166.445 110.644 166.647 110.563C166.687 110.644 166.728 110.764 166.768 110.804C167.171 110.523 167.534 110.242 167.978 109.921C168.139 110.443 168.26 110.804 168.381 111.165C168.905 111.005 169.268 110.764 169.349 110.202C169.389 109.881 169.671 109.6 169.832 109.278C169.994 109.038 170.115 108.757 170.276 108.516C170.478 108.154 170.76 107.793 170.921 107.392C171.244 106.589 171.526 105.745 171.889 104.983C172.05 104.541 172.332 104.18 172.534 103.738C173.058 102.654 173.542 101.57 174.066 100.486C174.429 99.7633 174.832 99.0407 175.195 98.2779C175.598 97.4749 175.921 96.6318 176.284 95.8288C176.647 94.9857 177.09 94.1426 177.211 93.2995C177.292 92.6972 177.453 92.1352 177.816 91.6534C178.26 91.0512 178.421 90.3285 178.663 89.646C178.905 89.0036 179.066 88.3211 179.348 87.6787C179.509 87.2772 179.751 86.8757 180.034 86.5947C180.437 86.1932 180.598 85.4705 181.364 85.4705C181.405 85.4705 181.445 85.2296 181.566 84.9486C181.646 85.3099 181.687 85.4705 181.687 85.6311C181.727 85.6311 181.767 85.6311 181.808 85.6311C181.888 85.4705 182.009 85.2698 181.969 85.1895C181.767 84.8282 181.969 84.5873 182.251 84.5471C182.453 84.5471 182.735 84.7479 182.896 84.9888C183.945 84.7077 184.187 85.7114 184.429 86.1932C184.792 87.0363 185.437 87.7991 185.356 88.7627C185.356 89.2846 185.275 89.8467 185.195 90.3686C185.074 91.0913 184.912 91.7738 184.671 92.4563C184.429 93.2192 184.106 93.9418 183.824 94.6645C183.421 95.6281 183.058 96.5916 182.654 97.5552C182.614 97.7158 182.574 97.8764 182.534 97.9968C182.211 98.6392 181.888 99.3217 181.566 99.9641C181.163 100.807 180.719 101.65 180.316 102.493C179.953 103.296 179.59 104.099 179.227 104.942C178.985 105.505 178.703 106.026 178.461 106.589C178.421 106.709 178.38 106.829 178.3 107.07C178.582 106.95 178.784 106.95 178.905 106.87C179.792 106.147 180.638 105.384 181.526 104.661C182.09 104.22 182.695 103.899 183.259 103.457C183.501 103.256 183.663 102.935 183.904 102.734C184.146 102.534 184.429 102.293 184.711 102.212C185.356 102.012 185.679 101.53 186.162 101.128C186.928 100.526 187.654 99.8035 188.42 99.2013C188.864 98.8801 189.428 98.7195 189.832 98.3582C190.275 97.9567 190.84 97.7158 191.122 97.1136C191.323 96.6719 191.888 96.431 192.291 96.1098C192.614 95.8288 192.977 95.5879 193.299 95.347C193.46 95.2266 193.702 95.1864 193.944 95.1061C193.944 95.1061 193.944 94.9455 193.944 94.9054C194.791 94.3032 195.557 93.6608 196.283 92.9783C196.364 92.898 196.485 92.8177 196.525 92.8578C197.089 92.9381 197.251 92.4563 197.533 92.2155C197.976 91.814 198.501 91.4928 198.984 91.1716C199.549 90.7701 200.113 90.4088 200.678 90.0474C201.404 89.6058 202.21 89.2846 202.936 88.843C203.258 88.6824 203.541 88.4415 203.863 88.2006C204.508 87.7188 205.395 87.759 206 87.1568C206.323 86.8356 206.887 86.675 207.371 86.5947C208.097 86.4742 208.823 86.1129 209.589 86.3538C209.71 86.3939 209.831 86.5545 209.952 86.675C210.153 86.9159 210.274 87.1568 210.476 87.3977C210.879 87.8794 211.524 88.3211 211.686 88.843C211.927 89.6861 212.169 90.6497 211.686 91.5731C211.686 91.6534 211.605 91.7337 211.605 91.7738C211.605 92.4965 211.323 93.0987 211 93.7411C210.718 94.2229 210.637 94.8251 210.436 95.347C210.073 96.3909 209.71 97.4347 209.347 98.4384C209.105 99.1611 208.944 99.9641 208.581 100.647C208.178 101.45 208.097 102.413 207.694 103.176C207.331 103.818 207.21 104.421 207.008 105.063C206.766 105.786 206.565 106.548 206.323 107.271C206 108.275 205.557 109.278 205.436 110.322C205.234 112.169 204.468 113.976 204.992 115.943C205.194 116.666 204.912 117.509 205.073 118.232C205.275 118.994 204.912 119.597 204.831 120.279C204.831 120.6 204.549 120.881 204.387 121.162C204.186 121.524 204.025 121.925 203.823 122.287C203.823 122.287 203.863 122.367 203.904 122.367L203.944 122.608ZM157.938 95.3872C157.615 95.3872 157.414 95.3069 157.252 95.3872C156.849 95.5478 156.527 95.7485 156.123 95.9492C155.801 96.0697 155.398 96.1098 155.115 96.3106C153.583 97.3544 151.769 97.9165 150.317 99.0808C149.228 99.9641 148.059 100.727 146.93 101.57C146.446 101.931 146.043 102.333 145.559 102.694C145.398 102.815 145.116 102.855 144.995 102.975C144.229 103.698 143.463 104.501 142.696 105.224C142.334 105.585 141.89 105.866 141.568 106.308C141.164 106.829 140.358 107.07 140.237 107.913C140.237 108.034 140.076 108.114 139.995 108.194C139.672 108.596 139.027 108.797 139.148 109.479C140.801 109.6 142.132 108.757 143.463 107.954C144.35 107.392 145.196 106.749 146.043 106.147C146.446 105.866 146.85 105.665 147.253 105.384C147.817 105.023 148.382 104.621 148.946 104.22C149.47 103.858 149.954 103.537 150.438 103.136C151.365 102.413 152.333 101.65 153.18 100.847C154.067 100.044 154.833 99.2013 155.68 98.3582C155.962 98.0771 156.285 97.8362 156.527 97.515C156.728 97.2741 156.889 96.9931 157.051 96.7121C157.333 96.2704 157.575 95.869 157.938 95.3069V95.3872Z" fill="#A7E92F"/>
<path d="M103.021 78.6448C103.021 78.6448 102.94 78.3236 103.021 78.2031C103.263 77.8017 103.585 77.4002 103.868 76.9987C103.948 76.8381 103.868 76.5972 103.948 76.4366C104.069 76.0753 104.15 75.6336 104.432 75.3928C104.997 74.7905 104.755 73.6664 105.803 73.305C105.279 72.5422 106.166 72.221 106.287 71.659C106.408 71.2575 106.569 70.7757 106.892 70.4947C107.255 70.0932 107.255 69.6515 107.456 69.2501C107.698 68.7683 108.182 68.3668 108.505 67.885C108.706 67.604 108.747 67.2426 108.908 66.8813C109.19 66.8412 109.593 66.7609 110.037 66.6806C109.755 66.52 109.311 66.3995 109.271 66.1988C109.23 65.8776 109.432 65.5163 109.553 65.1148C109.714 65.2352 109.835 65.3557 109.876 65.3557C109.956 64.9943 110.037 64.5928 110.117 64.2315C110.198 63.9103 110.319 63.549 110.44 63.1475C110.44 63.1475 110.601 63.1074 110.722 63.0672C110.48 61.9029 111.69 61.5817 111.972 60.6985C111.65 60.4977 111.65 60.2568 111.892 59.8553C112.295 59.2531 112.617 58.6509 112.9 58.0085C113.061 57.607 113.142 57.1654 113.262 56.7639C113.303 56.6033 113.424 56.4829 113.504 56.3624C113.625 56.0814 113.706 55.8405 113.867 55.5595C114.19 54.9171 114.553 54.2747 114.875 53.6324C114.875 53.5521 115.037 53.5521 115.037 53.4718C115.279 52.9097 115.48 52.3476 115.722 51.7855C115.843 51.5446 116.004 51.3439 116.206 51.0629C116.367 50.6212 116.569 50.1394 116.77 49.6577C117.295 48.5335 117.778 47.3692 118.343 46.2852C118.665 45.683 119.149 45.2012 119.553 44.6793C119.633 44.599 119.754 44.3982 119.754 44.3982C119.311 43.8763 119.633 43.5551 120.077 43.2339C120.157 43.1938 120.117 43.0332 120.157 42.9529C120.319 42.4711 120.399 41.909 120.682 41.4674C121.246 40.544 121.407 39.4198 121.931 38.4964C122.375 37.7336 122.778 36.9708 123.141 36.1678C123.423 35.5656 123.585 34.8831 123.867 34.2407C124.189 33.518 124.552 32.7954 124.875 32.0727C125.157 31.35 125.399 30.6274 125.681 29.9047C125.802 29.5835 125.964 29.3025 126.125 29.0214C126.447 28.379 126.77 27.7768 127.012 27.1344C127.254 26.5322 127.415 25.8898 127.617 25.2876C127.818 24.6854 127.98 24.043 128.181 23.4408C128.181 23.3605 128.181 23.2401 128.222 23.1598C128.222 23.0795 128.302 22.959 128.302 22.959C128.826 23.0393 128.504 22.678 128.504 22.5174C128.584 22.1962 128.584 21.875 128.665 21.594C128.746 21.2728 128.867 20.9516 128.947 20.6304C129.149 20.0683 129.431 19.5464 129.471 18.9843C129.552 18.2617 130.238 18.1011 130.52 17.6193C130.641 17.3784 130.963 17.258 131.205 17.1375C131.326 17.0572 131.608 17.1375 131.729 17.2178C131.971 17.4185 132.133 17.7397 132.375 17.9806C132.536 17.7397 132.617 17.539 132.778 17.2178C132.858 17.4185 132.899 17.5791 132.979 17.6594C133.1 17.7799 133.342 17.9806 133.423 17.9405C133.786 17.7397 133.947 17.9405 134.108 18.2215C134.552 19.0245 135.157 19.8274 135.197 20.791C135.197 21.594 135.076 22.3969 134.915 23.1598C134.633 24.4445 134.27 25.6891 133.947 26.9739C133.947 27.0541 133.907 27.1344 133.826 27.1746C133.383 27.4958 133.584 27.6965 133.947 27.817C133.786 28.0177 133.584 28.1783 133.504 28.379C133.463 28.4995 133.625 28.7002 133.665 28.7805C134.31 28.4192 134.915 28.098 135.479 27.7367C135.842 27.4958 136.286 27.2549 136.165 26.6527C136.165 26.5724 136.407 26.4118 136.568 26.3315C136.729 26.2512 136.971 26.3315 137.092 26.211C137.415 25.8497 137.737 25.7293 138.221 25.8497C138.786 26.0103 139.592 25.3278 139.552 24.9263C140.237 24.6854 140.882 24.4044 141.527 24.1635C141.648 24.3642 141.81 24.6051 141.971 24.846C142.173 24.6452 142.414 24.4445 142.737 24.1233C142.455 24.0832 142.173 24.043 141.89 23.9627C143.866 23.1999 145.842 22.678 148.059 22.5977C147.898 22.7984 147.737 22.959 147.535 23.1999C147.777 23.6014 148.301 23.4408 148.785 22.959C149.027 22.8787 149.309 22.7583 149.551 22.678C149.672 22.6378 149.834 22.5575 149.995 22.5977C150.196 22.6378 150.398 22.7583 150.68 22.8787C150.519 22.8787 150.398 22.8787 150.277 22.9189C150.358 23.1999 150.398 23.4006 150.721 23.0393C150.801 22.959 151.003 22.8787 151.083 22.9189C151.204 22.9992 151.285 23.1598 151.406 23.3605C151.769 23.1598 152.253 23.1598 152.696 23.5211C153.341 24.0832 154.108 24.6051 154.591 25.2876C155.035 25.8898 155.237 26.733 155.599 27.4155C156.245 28.5798 156.003 29.9047 156.204 31.1091C156.285 31.6712 156.124 32.3136 155.962 32.9158C155.599 34.04 155.277 35.2043 154.753 36.2883C154.349 37.0912 153.583 37.6935 153.22 38.4964C152.777 39.5001 151.93 40.1425 151.245 40.9455C150.116 42.2704 148.906 43.515 147.697 44.7596C146.608 45.8436 145.519 46.9276 144.35 47.8911C143.342 48.7343 142.253 49.4971 141.205 50.3C140.277 51.0227 139.35 51.7454 138.423 52.5082C138.302 52.5885 138.181 52.7089 138.02 52.7892C136.649 53.5119 135.237 54.1944 133.866 54.9974C132.939 55.5595 131.971 55.9208 131.004 56.242C130.641 56.3624 130.278 56.6033 129.875 56.7238C128.947 57.0048 127.939 57.045 127.052 57.2859C126.085 57.5267 125.197 57.1654 124.31 57.3661C124.27 57.3661 124.189 57.3661 124.149 57.3661C123.423 56.8442 122.375 56.8442 121.73 56.1215C121.286 55.5996 120.641 55.7602 120.359 56.3624C120.077 56.9647 119.835 57.607 119.593 58.2093C119.311 58.8516 119.069 59.494 118.746 60.0962C118.424 60.7386 118.101 61.381 117.778 61.9832C117.375 62.746 117.174 63.5891 116.367 64.0709C116.528 64.8337 115.399 64.9943 115.561 65.7571C115.561 65.9579 115.561 66.1586 115.44 66.3192C115.319 66.6404 115.238 67.0018 115.077 67.2828C114.835 67.8047 114.633 68.4471 114.23 68.8486C113.666 69.4106 113.867 70.2538 113.222 70.7355C112.577 71.2173 112.335 71.9801 112.093 72.743C111.932 73.3452 111.69 73.9474 111.448 74.4693C111.085 75.192 110.642 75.8344 110.279 76.5169C110.117 76.7979 109.996 77.079 109.835 77.36C109.835 77.4403 109.956 77.6009 109.916 77.7214C109.755 78.0425 109.513 78.3236 109.351 78.6849C109.19 79.0463 109.109 79.4879 108.988 79.8492C108.827 80.2106 108.626 80.5719 108.464 80.9332C108.384 81.0938 108.384 81.2544 108.303 81.3749C108.021 81.8566 107.658 82.2983 107.497 82.7801C107.295 83.6232 106.489 84.2254 106.529 85.2291C106.529 85.5904 106.287 85.9919 106.045 86.273C105.722 86.6744 105.521 87.0759 105.44 87.5577C105.44 87.5979 105.239 87.638 104.956 87.7585C105.158 87.8387 105.239 87.919 105.319 87.9592C104.876 88.8826 104.432 89.7659 104.029 90.6893C103.827 91.1309 103.787 91.6528 103.585 92.0945C103.505 92.3354 103.142 92.4157 103.021 92.6565C102.537 93.861 102.094 95.1056 101.61 96.31C101.287 97.0729 100.924 97.8357 100.602 98.5985C100.44 99 100.36 99.4015 100.239 99.803C99.9566 100.566 99.5937 101.288 99.3115 102.091C98.9486 103.175 98.6663 104.259 98.2631 105.303C97.9002 106.267 97.4567 107.23 97.0535 108.194C96.9325 108.515 96.8116 108.836 96.6906 109.117C96.4083 109.8 96.1664 110.482 95.8439 111.125C95.7229 111.366 95.36 111.526 95.1181 111.727C94.9165 111.847 94.7149 111.968 94.6342 112.048C94.0697 112.048 93.5859 112.088 93.1424 112.128C93.0214 112.128 92.8198 112.128 92.8198 112.088C92.6182 111.326 92.1343 111.366 91.6102 111.687C91.5295 111.687 91.4489 111.687 91.3682 111.687C91.5698 111.044 90.1989 111.004 90.8844 110.242C90.5215 110.081 90.3602 109.278 90.5215 108.756C90.7634 107.873 90.9247 106.99 91.1666 106.146C91.3279 105.584 91.5698 105.062 91.8118 104.54C92.215 103.657 92.6182 102.814 93.0214 101.931C93.3843 101.088 93.7875 100.245 94.0697 99.3613C94.5133 97.8357 95.36 96.4305 95.8842 94.9049C96.0051 94.5435 96.5293 94.3026 96.8519 94.0216C96.8116 94.0216 96.6503 93.9011 96.5293 93.8208C96.6503 93.6602 96.7712 93.4997 96.8922 93.3391C97.1341 92.8974 97.376 92.4157 97.618 91.974C97.8196 91.6127 97.9809 91.2915 98.1018 91.0105C98.1018 90.5287 98.0212 90.0068 98.1825 89.5651C98.3034 89.1235 98.7066 88.8023 98.9889 88.3607C98.9889 88.2804 98.8276 88.0796 98.8679 87.9993C99.1502 87.3971 99.4727 86.7949 99.755 86.1525C99.8759 85.8715 99.9566 85.5503 100.037 85.2291C100.199 84.7072 100.319 84.2254 100.844 83.9042C100.965 83.8239 100.844 83.5027 100.924 83.302C101.247 82.499 101.65 81.696 101.973 80.8931C102.053 80.6522 102.094 80.4113 102.215 80.1704C102.336 79.8492 102.456 79.528 102.658 79.0864C102.456 78.7652 102.9 78.6849 103.182 78.5243L103.021 78.6448ZM149.874 28.098C149.188 28.098 148.543 28.0579 147.938 28.1783C146.85 28.4192 145.801 28.7805 144.753 29.182C143.14 29.7441 141.568 30.3463 139.995 30.9887C139.108 31.35 138.302 31.8318 137.495 32.2333C136.487 32.7151 135.439 33.1165 134.512 33.7188C133.342 34.5217 132.334 35.5254 131.246 36.4087C130.883 36.7299 130.52 37.0511 130.157 37.3321C129.23 38.0146 128.504 38.8176 128.06 39.9016C127.576 41.0258 127.133 42.1499 126.649 43.2741C126.205 44.1975 125.722 45.1209 125.238 46.0443C124.593 47.3692 123.988 48.6941 123.383 50.019C123.262 50.3 123.181 50.6212 123.141 50.9023C123.141 50.9826 123.222 51.1432 123.302 51.2235C124.068 51.7052 124.956 51.6651 125.802 51.5446C126.367 51.4643 126.931 51.3037 127.455 51.1432C127.738 51.0629 128.02 50.9826 128.262 50.822C128.665 50.6212 128.988 50.2599 129.391 50.1394C129.996 49.9789 130.238 49.8986 130.52 49.5372C130.6 49.4569 130.762 49.3766 130.842 49.3766C131.044 49.4569 131.044 49.3766 131.165 49.2963C131.488 48.9751 131.931 48.7343 132.334 48.4934C133.141 48.0517 133.987 47.6904 134.754 47.2086C135.802 46.5261 136.85 45.8034 137.858 45.0406C138.423 44.6391 138.907 44.1172 139.431 43.6354C140.116 43.0332 140.761 42.431 141.447 41.8287C142.374 41.0258 143.342 40.263 144.189 39.3797C145.318 38.2154 146.366 36.9306 147.455 35.686C147.858 35.2043 148.261 34.7225 148.584 34.1604C148.906 33.6385 149.027 32.9961 149.35 32.4742C149.914 31.6311 150.035 30.7076 149.995 29.7039C149.995 29.2222 149.955 28.7404 149.914 28.098H149.874Z" fill="#A7E92F"/>
<path d="M40.0795 104.5C39.9989 104.741 39.9183 104.982 39.8779 105.223C39.757 106.347 39.1118 107.27 38.7086 108.274C38.5474 108.675 38.4667 109.117 38.2248 109.519C37.62 110.562 37.378 111.727 36.8539 112.811C36.2491 114.015 35.8862 115.34 35.4426 116.625C35.2007 117.307 35.0798 117.99 34.8781 118.632C34.5556 119.676 34.1524 120.68 33.7895 121.724C33.5476 122.527 33.346 123.33 33.104 124.133C32.9024 124.815 32.6202 125.457 32.4186 126.14C32.1767 127.063 32.0154 128.027 31.8138 128.99C31.7734 129.191 31.6928 129.472 31.5315 129.553C30.8461 129.834 31.5315 129.834 31.5315 129.834C31.4912 131.038 30.9267 132.002 30.9267 133.086C30.9267 133.608 30.7654 134.17 30.6445 134.692C30.3622 135.735 30.0396 136.779 29.7977 137.823C29.6364 138.626 29.6364 139.469 29.4348 140.232C29.3139 140.714 28.9913 141.155 28.7494 141.637C28.7494 141.677 28.6687 141.717 28.6284 141.758C28.1446 143.002 27.0559 142.44 26.2092 142.561C25.8866 142.601 25.5237 142.239 25.1608 142.079C25.1608 141.878 25.1608 141.677 25.1608 141.396C24.9189 141.517 24.7576 141.597 24.6366 141.637C24.3544 141.477 24.0721 141.356 23.8302 141.236C23.7093 140.915 23.5883 140.553 23.4673 140.232C23.4673 140.232 23.3867 140.272 23.3464 140.312C23.2657 140.152 23.0641 139.991 23.0641 139.831C23.1851 139.148 23.3867 138.465 23.5077 137.743C23.6689 136.779 23.8302 135.816 23.9915 134.852C23.9915 134.651 24.1931 134.491 24.1931 134.25C24.0722 134.33 23.9109 134.37 23.8302 134.491C23.0641 135.454 22.2577 136.378 21.5319 137.381C20.8868 138.225 20.4029 139.188 19.6772 139.951C18.5885 141.035 17.8627 142.52 16.4112 143.243C16.1289 143.364 15.8467 143.564 15.5241 143.564C14.6371 143.604 13.7903 144.207 12.8629 143.926C12.5001 143.805 12.1372 143.524 11.7743 143.364C11.492 143.243 11.1695 143.203 10.8469 143.083C10.5243 142.962 10.1614 142.842 9.83887 142.721C9.3147 142.52 8.99214 142.159 9.19374 141.758C8.91149 141.196 8.62925 140.834 8.54861 140.393C8.30668 139.268 8.10508 138.144 7.98411 136.98C7.90347 136.418 8.1454 135.816 8.10508 135.213C8.10508 134.732 8.22604 134.25 7.94379 133.728C7.78251 133.447 7.82283 133.045 7.74219 132.564C7.98411 132.764 8.06475 132.845 8.1454 132.885C8.26636 132.403 8.38732 131.961 8.50828 131.52C8.347 131.52 8.18572 131.747 8.02443 132.202C8.02443 132.002 7.90347 131.761 7.94379 131.56C8.06475 130.998 8.06475 130.315 8.38732 129.834C8.87117 129.151 8.75021 128.388 8.95181 127.666C9.1131 127.103 9.39534 126.622 9.59695 126.06C9.75823 125.578 9.83887 125.016 10.0002 124.534C10.605 123.008 11.2501 121.483 11.9356 119.997C12.5404 118.712 13.1452 117.468 13.8306 116.263C14.5967 114.939 15.4435 113.694 16.2499 112.369C16.6934 111.687 17.0563 110.964 17.5402 110.281C18.1047 109.519 18.7498 108.876 19.274 108.113C19.7981 107.35 20.5642 106.909 21.3707 106.467C21.7335 106.266 22.0561 106.026 22.419 105.905C22.6609 105.825 22.9432 105.945 23.2254 106.026C23.7093 106.186 24.435 105.985 24.7576 105.504C24.8382 105.423 24.8786 105.263 24.9592 105.223C25.5237 105.022 25.8866 104.54 26.3301 104.179C26.9753 103.657 27.4591 103.737 28.0236 104.339C28.2252 104.54 28.5075 104.821 28.7494 104.821C29.5558 104.821 29.9993 105.464 30.2816 105.945C30.6445 106.507 31.2493 106.869 31.5315 107.471C31.6525 107.752 31.9347 107.672 32.096 107.391C32.2573 107.029 32.3783 106.668 32.5395 106.307C32.9024 105.423 33.2653 104.58 33.6282 103.697C34.233 102.252 34.8782 100.806 35.483 99.3208C36.2491 97.4339 37.0152 95.5469 37.8216 93.6599C38.1441 92.9372 38.5877 92.2547 38.8296 91.4919C39.3134 89.886 40.0392 88.4005 40.7247 86.8748C41.4101 85.3091 42.1359 83.7031 42.8214 82.1373C43.2246 81.2541 43.5471 80.3307 43.9504 79.4072C44.1116 79.0058 44.3939 78.6444 44.5955 78.2429C44.8777 77.5604 45.1197 76.8779 45.4019 76.1954C45.4825 76.0348 45.6035 75.9143 45.7245 75.7537C45.8051 75.6333 45.9261 75.553 45.9664 75.4727C46.4502 74.1077 47.2163 72.9032 48.0631 71.7389C48.426 71.2571 48.6679 70.6951 49.0308 70.2133C49.3534 69.7315 50.1598 69.2497 51.1275 69.2497C51.1275 69.4103 51.1275 69.5709 51.0468 69.7716C51.2888 69.7716 51.5307 69.7716 51.8129 69.7716C51.6113 69.611 51.4097 69.4103 51.2484 69.2497C51.2484 69.2096 51.3291 69.1694 51.3694 69.1293C51.45 69.2096 51.5307 69.2497 51.692 69.4103C51.6113 69.1694 51.571 69.049 51.45 68.7278C52.2161 69.33 52.8613 69.8118 53.5467 70.3739C53.3854 70.5345 53.2645 70.6148 53.1838 70.6951C53.6274 71.3374 53.7483 72.0601 53.6677 72.8631C53.6274 73.4653 53.2242 73.7865 52.9822 74.2683C52.4581 75.1917 52.0549 76.1552 51.571 77.0786C51.2484 77.6809 51.2484 78.3634 50.8049 78.9255C50.5227 79.2868 50.4823 79.889 50.3211 80.3708C50.2404 80.5716 50.0388 80.692 49.8775 80.8927C49.6759 81.5351 49.4743 82.2979 49.2324 83.0607H49.313C49.1114 83.3819 48.8292 83.7031 48.7082 84.0243C48.5066 84.4659 48.4663 84.9879 48.305 85.4696C48.1437 85.9113 47.9824 86.3529 47.7405 86.7544C47.2163 87.6778 46.8535 88.6815 46.4906 89.6852C46.3696 89.9663 46.168 90.167 46.0067 90.448C45.9261 90.5685 45.9261 90.7291 45.8858 90.8495C45.8454 91.1306 45.9664 91.4919 45.4422 91.4919C45.3616 91.4919 45.16 91.9335 45.2003 92.1744C45.2809 92.6963 45.4019 93.138 44.8777 93.2584C44.6358 93.9811 44.4342 94.5833 44.1923 95.1855C43.7084 96.3498 43.2246 97.474 42.7407 98.5982C42.2972 99.6019 41.8133 100.606 41.3295 101.569C41.2892 101.69 41.2489 101.77 41.2085 101.89C41.0472 102.854 40.4828 103.617 39.9989 104.339L40.0795 104.5ZM26.7736 111.807C26.1285 112.208 25.5237 112.57 24.9189 112.971C24.5963 113.212 24.3544 113.614 23.9915 113.814C23.5883 114.015 23.3061 114.336 22.9835 114.617C22.0964 115.42 21.5723 116.705 20.2417 117.066C20.161 117.066 20.0804 117.187 20.0401 117.267C19.5965 117.95 19.153 118.632 18.7095 119.315C18.1047 120.198 18.2256 121.483 17.137 122.085C17.137 122.085 17.137 122.165 17.137 122.205C17.4192 122.687 16.9757 122.968 16.8144 123.33C16.4515 124.092 16.0483 124.855 15.7257 125.658C15.4435 126.421 15.2822 127.264 15.0806 128.027C14.9999 128.348 14.879 128.669 14.758 128.99C14.6371 129.392 14.5564 129.793 14.4355 130.195C14.3548 130.556 14.2339 130.918 14.1532 131.279C13.9919 131.881 13.7903 132.483 13.75 133.086C13.629 134.089 13.5887 135.133 13.5484 136.177C13.5484 136.418 13.6694 136.699 13.7097 136.94C13.9113 136.86 14.1129 136.819 14.2742 136.659C14.9193 136.057 15.5644 135.454 16.0886 134.812C16.895 133.889 17.6208 132.885 18.3466 131.881C19.274 130.516 20.1207 129.151 21.0078 127.746C21.4513 127.023 21.8545 126.301 22.2577 125.578C22.419 125.337 22.54 125.056 22.6609 124.815C22.9432 124.173 23.3061 123.57 23.548 122.888C23.8302 122.005 24.556 121.322 24.677 120.359C24.677 120.078 24.7979 119.796 24.8786 119.515C25.0399 118.994 25.2011 118.472 25.4027 117.95C25.564 117.508 25.685 116.946 26.0479 116.665C26.3704 116.384 26.3301 116.063 26.3704 115.741C26.4511 115.34 26.4914 114.979 26.572 114.577C26.572 114.497 26.693 114.417 26.693 114.376C26.572 113.573 27.0156 112.811 26.8543 111.847L26.7736 111.807Z" fill="#A7E92F"/>
<path d="M16.5719 65.9977C17.0557 65.7568 17.7412 65.6765 17.6202 64.9137C17.5396 64.8334 17.4993 64.7932 17.4186 64.7129C17.3783 64.8735 17.2977 65.0341 17.2573 65.2349C17.1364 64.7932 17.0557 64.3918 16.9751 64.0304C17.0154 64.0304 17.0961 64.0304 17.1364 63.9903C17.2977 64.2312 17.4589 64.4319 17.5799 64.6326C17.8622 64.4319 18.1444 64.2312 18.467 63.9903C18.1444 63.7494 17.8218 63.5085 17.5396 63.2676C17.6202 62.9464 17.7009 62.5449 17.7815 62.1836C17.7815 62.1836 17.8622 62.1836 17.9025 62.1434C17.9428 62.3843 17.9831 62.6252 18.0638 62.9866C18.225 62.9464 18.5476 62.9063 18.7895 62.7858C18.9105 62.7457 18.9105 62.4646 18.9911 62.304C18.9911 62.1836 18.9911 61.9829 18.9911 61.9829C19.354 61.9427 19.3137 61.6617 19.1927 61.5011C19.1524 61.4208 18.8702 61.5011 18.6686 61.5011C18.6283 61.5011 18.5879 61.5011 18.3863 61.6215C18.3863 61.3405 18.3863 60.9791 18.467 60.9791C18.7492 60.9791 19.0718 60.9791 19.5153 61.0594C19.3137 60.8989 19.1927 60.7784 19.0718 60.658C18.9508 60.5375 18.7895 60.3368 18.7895 60.3368C19.1121 59.9754 18.9105 59.2126 19.6766 59.1725C19.6766 59.1725 19.6766 59.0119 19.7572 58.9316C20.0798 58.1286 20.4427 57.3256 20.7653 56.5227C20.9265 56.1613 21.0072 55.8 21.1685 55.4387C21.2894 55.1576 21.1685 54.8364 21.612 54.6759C21.8539 54.5956 21.9749 54.0335 22.0152 53.6721C22.0959 52.9495 22.6603 52.4275 22.6603 51.6246C22.6603 51.1428 23.2248 50.661 23.5071 50.1792C23.5877 50.0588 23.5877 49.8982 23.5474 49.7376C23.7893 48.9346 24.6361 49.0149 25.1602 48.493C24.9586 48.493 24.757 48.5332 24.5957 48.5733C24.5957 48.6135 24.5957 48.6937 24.5957 48.7339C24.4345 48.6536 24.2732 48.5733 24.0716 48.493C24.5957 47.7703 25.2409 47.0878 25.6038 46.2447C25.9263 45.522 26.0876 44.6789 26.5312 43.9562C26.0876 43.6351 26.2086 43.3139 26.5715 42.9525C26.6521 42.8722 26.6924 42.7919 26.7328 42.6715C26.9344 42.27 27.0956 41.8685 27.2972 41.467C27.4182 41.2262 27.6198 41.0656 27.4585 40.7845C27.4585 40.7444 27.4989 40.6239 27.5392 40.5436C27.6601 40.2224 27.7811 39.9414 27.9021 39.6202C27.9021 39.5399 27.9021 39.4195 27.9021 39.3793C28.5069 38.8976 28.4666 38.0946 28.9101 37.5325C29.1117 37.2515 29.0714 36.8098 29.1923 36.4084C29.273 36.2076 29.4343 36.0069 29.5552 35.8061C29.7165 35.5652 29.9987 35.2441 29.9584 35.0433C29.7971 34.5214 30.0391 34.0798 30.16 33.6381C30.2004 33.4775 30.402 33.3571 30.4826 33.1965C30.5632 33.076 30.6036 32.9155 30.6439 32.7549C30.7245 32.5541 30.8052 32.3935 30.8858 32.1928C30.8858 32.1526 30.9261 32.0723 30.9261 32.0322C31.0471 30.4664 31.8132 29.1014 32.297 27.6159C32.3777 27.3348 32.539 27.1742 32.2567 26.9735C32.7809 26.291 33.6276 26.0501 34.434 26.2107C34.7163 26.2508 35.0792 26.0902 35.3614 26.0099C35.563 25.9296 35.7646 25.8493 36.0066 25.769C36.0066 25.8092 36.0469 25.8493 36.0872 25.9296C36.0066 25.9698 35.8856 26.0099 35.7646 26.0902C35.805 26.1304 35.8453 26.1705 35.8856 26.1705C36.2888 26.0902 36.4501 26.0902 36.6114 26.6122C36.7323 27.0538 36.9743 27.6159 37.6194 27.8166C37.7807 27.8166 37.8613 28.1378 37.9823 28.3385C37.9823 28.3787 37.8613 28.4991 37.7807 28.6196C37.821 28.6196 37.8613 28.6196 37.942 28.6196C37.942 28.8203 37.942 29.0211 37.942 29.1817C37.7807 29.8642 37.5388 30.5467 37.4178 31.2292C37.4178 31.3898 36.7323 31.1891 37.2162 31.5504C36.6114 31.9519 37.0146 32.795 36.4904 33.2768C36.2888 33.4374 36.3694 33.879 36.3291 34.2002C36.4098 34.2403 36.4501 34.2805 36.5307 34.3206C37.1355 33.9192 37.7807 33.5177 38.3855 33.0359C39.5951 32.1125 40.8451 31.2292 42.2966 30.7073C42.7805 29.7839 44.0707 30.0649 44.6352 29.1817C44.7562 29.0211 45.1191 29.0211 45.4013 29.1014C45.1594 29.2218 44.9175 29.3422 44.6756 29.4627C44.7159 29.543 44.7965 29.5831 44.8368 29.6634C45.1594 29.3824 45.4417 29.1014 45.8045 28.7802C46.1271 28.9809 46.5706 29.0612 46.9335 28.5794C46.7722 28.5393 46.611 28.4991 46.4497 28.459V28.2984C46.8529 28.2984 47.2561 28.2181 47.619 28.2582C48.3044 28.2582 48.9899 28.3385 49.5141 28.3385C49.7963 28.1378 49.9576 27.9772 50.1592 27.8568C50.3608 27.7363 50.643 27.7765 50.8447 27.656C51.3285 27.375 51.7317 27.2545 52.014 27.8969C52.1752 27.6962 52.2962 27.4553 52.4978 27.375C52.8204 27.2545 52.9817 27.4553 53.0623 27.7765C53.0623 27.8568 53.3042 27.9371 53.3445 27.9371C54.2719 27.5757 55.1187 28.2181 56.046 28.0976C56.167 28.0976 56.3283 28.0575 56.5702 27.9772C56.7315 28.1779 56.9734 28.4991 57.2557 28.74C57.3363 28.8203 57.6186 28.6597 57.7395 28.6196C58.1831 29.2218 58.8685 29.8642 59.1508 30.627C59.312 31.0285 59.554 31.5103 59.4733 32.0723C59.3524 33.2768 58.9895 34.4009 58.8685 35.6054C58.8282 36.0872 58.5863 36.6091 58.2637 36.9704C57.6992 37.6128 57.4976 38.3756 57.0944 39.0581C56.8928 39.3793 56.8121 39.6604 56.9331 40.0217C56.9734 40.1823 56.7315 40.383 56.6509 40.5838C56.3686 41.1459 56.0864 41.7079 55.8041 42.3102C55.8848 42.3102 55.9654 42.3102 56.167 42.3102C55.8444 42.8722 55.2396 43.3942 55.3203 43.8759C55.4009 44.5585 54.8364 44.8395 54.6751 45.3213C54.5542 45.7228 54.1913 46.044 53.909 46.4053C53.909 46.4856 53.909 46.6863 53.8284 46.8068C53.022 47.8105 52.2156 48.8142 51.3688 49.8179C51.2075 49.9785 50.9656 50.0989 50.8447 50.1391C50.764 50.38 50.8043 50.6209 50.6834 50.7012C50.4011 50.9421 50.0786 51.1428 49.7963 51.3435C49.756 51.3435 49.6753 51.4238 49.6753 51.464C49.2721 52.5881 48.3448 53.2305 47.4577 53.913C47.0142 54.2744 46.7319 54.7963 46.2884 55.1576C45.361 55.9606 44.7965 57.0446 43.7079 57.6468C43.3046 57.8877 43.0224 58.4097 42.6595 58.7308C42.4579 58.8914 42.216 59.0119 42.0144 59.1323C41.9741 59.1323 41.8531 59.1725 41.8531 59.2126C41.3289 60.3769 40.1193 60.8988 39.3129 61.7821C38.95 62.1836 38.5065 62.4646 38.0629 62.826C38.0629 62.826 38.0226 62.9063 37.9823 62.9063C36.5307 63.7092 35.563 65.0743 34.1115 65.8772C33.1035 66.4393 32.2567 67.2824 31.2084 67.8044C29.9584 68.4066 28.6682 68.9285 27.1763 68.5672C26.5715 68.4066 26.007 68.4066 25.4828 68.0051C25.1602 67.7642 24.6764 67.8445 24.6764 67.162C24.6764 66.7605 24.1119 66.3992 23.7893 66.0378C23.9909 66.0378 24.1925 66.0378 24.5957 66.078C24.3538 65.7969 24.2732 65.6765 24.1522 65.5561C23.9103 65.2349 23.5474 64.9137 23.5474 64.5925C23.5474 64.2312 23.9506 63.8698 24.1925 63.4683C24.1119 63.4683 23.9909 63.3479 23.8296 63.2676C23.8296 63.2676 23.8296 63.2275 23.8296 63.1873C24.0716 63.1873 24.3135 63.2676 24.5151 63.3078C24.5957 63.3078 24.7167 63.3078 24.7974 63.3078C24.999 63.2676 25.2409 63.1873 25.4425 63.1472C25.4425 63.2275 25.4828 63.2676 25.5231 63.3479C25.4425 63.4683 25.3618 63.5888 25.2409 63.7895C26.3699 63.8698 27.4182 63.91 28.4262 63.3881C28.5069 63.3479 28.5472 63.2275 28.5875 63.1472C28.6682 63.0267 28.7085 62.826 28.8294 62.7457C29.7568 62.1033 30.6439 61.4609 31.5713 60.8587C31.7729 60.7383 32.0551 60.7383 32.2164 60.7383C32.4583 59.855 33.547 59.8148 33.8292 58.9316C33.8696 59.1323 33.9099 59.2929 33.9905 59.4134C33.9905 59.4134 34.0712 59.3732 34.1115 59.3331C34.1518 58.6505 34.7566 58.3695 35.1598 57.968C35.9662 57.1249 36.813 56.3219 37.7807 55.6394C38.6274 55.0372 39.3935 54.3145 40.1999 53.6721C40.1999 53.6721 40.079 53.6721 39.958 53.7123C39.9983 53.5116 40.0387 53.351 40.079 53.1502C40.6435 53.2305 40.9257 53.0298 41.0467 52.4677C41.087 52.3071 41.208 52.1465 41.3289 52.0261C41.8934 51.5041 42.4982 51.0224 43.0627 50.5004C43.6272 49.9384 44.1917 49.3361 44.7562 48.7339C45.1997 48.2521 45.6836 47.7703 46.0868 47.2484C46.49 46.7666 47.0142 46.4454 47.3367 45.9235C47.6593 45.4016 48.1835 44.96 48.627 44.5183C48.748 44.3979 48.9496 44.3577 49.0705 44.2774C49.2318 43.9964 49.3125 43.5949 49.5544 43.3942C50.2398 42.8722 50.4818 42.0291 51.0866 41.467C51.772 40.7845 52.4575 40.0619 53.022 39.2187C53.1833 38.9377 53.3445 38.6567 53.5058 38.3756C53.7881 37.8938 54.1106 37.4522 54.3929 36.9704C54.3929 36.8901 54.3929 36.8098 54.3929 36.7295C54.3929 36.2076 54.2719 35.6857 54.8767 35.3645C54.9171 35.3645 54.9171 35.1638 54.8767 35.0835C54.6348 34.4411 55.0783 33.9995 55.3606 33.5177C55.1187 33.3169 54.6751 33.1162 55.1187 32.795C55.1187 32.4337 55.0783 32.1526 55.0783 31.9117C55.159 30.8679 54.3929 30.2657 53.3849 30.5467C53.1833 30.5868 52.9817 30.627 52.7801 30.627C52.3365 30.627 51.9736 30.8277 51.6107 31.1489C51.2075 31.5103 50.6834 31.8716 50.1995 31.9117C49.5544 31.992 49.1915 32.4337 48.627 32.6344C47.8609 32.9155 47.1755 33.3169 46.4497 33.7184C46.0465 33.9593 45.6433 34.3206 45.24 34.4812C44.3933 34.8024 43.8288 35.4849 43.0627 35.9266C42.6595 36.1675 42.1353 36.2879 41.7321 36.5689C41.4902 36.7295 41.2886 36.9704 41.087 37.1712C40.8047 37.4121 40.5225 37.6128 40.2403 37.8537C39.9177 38.0946 39.6354 38.3756 39.3129 38.6165C39.0709 38.7771 38.829 38.8976 38.5468 38.9779C37.7807 40.1422 36.8533 40.8648 36.2082 40.6239C36.1275 40.8247 36.0066 40.9853 35.9662 41.0656C35.6437 41.2663 35.4017 41.4269 35.1598 41.5473C34.7163 41.7079 34.2324 41.7481 33.8292 41.9488C32.8615 42.4306 31.7729 42.7919 31.5309 44.0365C31.5309 44.1168 31.3697 44.157 31.289 44.1971C31.1681 44.2774 30.9664 44.3979 31.0068 44.4782C31.1681 45.1205 30.7648 45.522 30.4423 45.9637C30.3213 46.1243 30.4423 46.5659 30.3616 46.6462C29.7568 47.0477 29.8778 47.7302 29.6359 48.2521C29.4343 48.774 29.273 49.296 28.8294 49.6975C28.7891 49.6975 28.7488 49.8179 28.7488 49.8581C28.9101 50.4201 28.5069 50.7815 28.3456 51.2632C28.1037 51.9859 27.8214 52.6684 27.4989 53.351C27.2166 53.8729 26.6924 54.3547 26.6118 54.9167C26.5312 55.3584 25.8457 55.519 26.1683 56.1212C26.2489 56.2818 25.886 56.6833 25.7651 56.9643C25.6844 57.1249 25.6441 57.2855 25.5634 57.4461C25.4828 57.4461 25.3618 57.4461 25.2409 57.3658C25.2812 58.3294 24.7974 59.052 24.3135 59.8148C24.0313 60.2565 23.7893 60.7383 23.5877 61.22C23.5474 61.3405 23.6684 61.5412 23.749 61.7821C23.2652 61.9828 22.7813 62.2639 22.8216 62.7858C22.8216 63.2275 22.62 63.5486 22.4991 63.8698C22.2168 64.5523 21.8136 65.1947 21.491 65.8371C21.2491 66.3189 21.0878 66.8408 20.8459 67.3226C20.483 68.0051 20.0798 68.6876 19.7572 69.4103C19.475 70.0125 19.3137 70.6549 19.0718 71.2571C18.8702 71.6988 18.6283 72.1404 18.3863 72.582C18.225 72.8631 18.1041 73.1441 17.9428 73.4251C17.6202 74.1077 17.4993 74.9508 16.8138 75.2318C16.7332 75.6333 16.7332 75.9946 16.6122 76.2757C16.209 77.3195 15.5235 78.2028 15.2816 79.3269C15.1607 79.9693 14.6768 80.5314 14.3946 81.1336C14.072 81.776 13.8704 82.4585 13.5075 83.0206C12.943 83.8236 12.6608 84.7068 12.2979 85.5901C12.1366 85.9916 11.6527 86.3529 11.6124 86.7142C11.5318 87.5574 10.8463 88.0391 10.7254 88.8019C10.7254 88.9224 10.8463 89.0428 10.7254 89.1231C10.6044 89.5648 10.5641 90.0465 10.2818 90.3677C9.95926 90.8094 9.8383 91.251 9.67702 91.7328C9.43509 92.335 9.0722 92.8569 8.74963 93.419C8.66899 93.5395 8.50771 93.6599 8.42707 93.7001C8.50771 93.9008 8.62867 94.1015 8.70931 94.3023C8.42707 94.3826 7.98354 94.222 8.26578 94.7038C7.78193 94.9446 8.14482 95.6673 7.49969 95.9082C7.29808 95.9885 7.29808 96.5506 7.17712 96.9119C7.01584 97.3535 6.97551 97.8755 6.65295 98.1565C6.20942 98.5981 6.12878 99.1201 5.88685 99.6019C5.64493 100.084 5.28204 100.485 4.91915 100.927C4.83851 101.007 4.6369 101.047 4.47562 101.047C3.83049 101.087 3.22567 101.127 2.54022 101.168C2.54022 101.047 2.54022 100.927 2.54022 100.846C2.33861 100.766 2.13701 100.686 1.85476 100.565C1.47843 100.833 1.20963 100.887 1.04834 100.726C1.12899 100.284 1.20963 99.9632 1.29027 99.6019C0.967701 99.5216 0.604813 99.4011 0.201604 99.2807C0.201604 99.2004 0.0806418 98.9996 0 98.6784C0.604813 97.7149 1.29027 96.6309 1.9354 95.5067C2.25797 94.9446 2.54022 94.3424 2.78214 93.7402C2.86278 93.5796 2.7015 93.3387 2.78214 93.138C2.94343 92.7766 3.10471 92.4153 3.34663 92.1343C3.6692 91.6926 4.23369 91.4116 3.99177 90.6889C3.95145 90.5283 4.23369 90.2473 4.35466 90.0064C4.4353 89.886 4.4353 89.7254 4.35466 89.5648C4.59658 89.083 4.79819 88.6414 5.12075 88.0391C5.12075 88.0391 5.24172 88.0391 5.36268 87.9588C5.28204 86.7142 6.49166 87.1157 7.1368 86.5536C6.89487 86.393 6.73359 86.2726 6.49166 86.0719C6.49166 85.2287 6.97552 84.6265 7.86258 84.3053C7.98354 84.3053 8.02386 84.0644 8.1045 83.944C7.98354 83.8637 7.86257 83.7834 7.74161 83.7834C7.66097 83.7834 7.58033 83.8637 7.41904 83.7834C7.66097 83.4622 7.86258 83.141 8.1045 82.8198C8.14482 82.86 8.22546 82.9001 8.26578 82.9403C8.14482 83.0607 8.02386 83.2213 7.9029 83.3418C8.3061 83.5425 8.62867 83.3016 8.83028 82.6191C8.70931 82.579 8.62867 82.4987 8.50771 82.4585C8.42707 82.4585 8.3061 82.4585 8.06418 82.3782C8.34643 81.9366 8.58835 81.6154 8.83028 81.2541C8.83028 81.2942 8.91092 81.3745 8.95124 81.4147C9.15284 81.495 9.43509 81.6555 9.59637 81.6154C9.75766 81.6154 9.95926 81.2942 9.95926 81.0935C9.95926 80.8124 9.8383 80.5314 9.75766 80.2102C9.39477 80.0898 9.11252 80.2102 9.11252 80.7321H9.51573C9.51573 80.7321 9.43509 80.9329 9.39477 80.9329C9.19316 81.0132 9.03188 81.0533 8.83028 81.0533C8.83028 81.0533 8.74963 80.9329 8.74963 80.8927C8.99156 80.3708 9.27381 79.889 9.47541 79.4875C9.91894 79.5678 10.2012 79.6481 10.5238 79.7284C10.5238 79.4474 10.4834 79.2868 10.4431 79.086H10.8463C10.6447 78.8452 10.4834 78.6444 10.3221 78.4838C10.6044 78.4035 10.8463 78.4035 10.927 78.2831C11.0882 78.0422 10.927 77.9217 10.685 78.0422C10.5238 78.1225 10.4028 78.1626 10.3625 78.2028C10.1609 78.524 9.99958 78.805 9.8383 79.1663C9.55605 78.524 9.8383 78.0823 10.4834 77.721C10.4834 77.1589 10.3221 76.637 10.4431 76.1552C10.5238 75.8742 10.927 75.6734 11.0882 75.5128C11.2899 75.0712 11.4915 74.7099 11.6527 74.3887C11.6931 74.3887 11.7737 74.3887 11.814 74.4288C11.7334 74.3084 11.6527 74.188 11.6527 74.188C11.7737 74.0274 11.935 73.9069 11.935 73.8668C11.8543 73.5054 11.8543 73.5054 12.2979 73.5857C12.2979 73.3047 12.2172 73.0236 12.2979 72.7828C12.2979 72.5017 12.3785 72.1805 12.8624 72.3411C12.9833 72.3813 13.1849 72.1805 13.3865 72.1002C13.5881 72.1805 13.8301 72.301 13.9107 72.3411C14.1123 71.9798 14.193 71.7389 14.3946 71.4177H13.5075C13.6285 71.0162 13.6285 70.414 13.9107 70.133C14.3946 69.6913 14.1123 68.9687 14.7171 68.5672C15.0397 68.3263 15.08 67.7642 15.2816 67.3627C15.3623 67.2021 15.4832 67.0817 15.6848 67.0014C15.6445 67.2423 15.6042 67.443 15.5235 67.7642C15.7251 67.6036 15.8864 67.5233 16.088 67.4029V67.8044C16.088 67.8044 16.209 67.8044 16.2493 67.8044C16.2896 67.6438 16.33 67.4832 16.4106 67.3226C16.4912 67.1218 16.6122 66.8809 16.7332 66.7204C16.9348 66.4795 17.0557 66.3189 16.7735 66.078C16.6929 65.9977 16.6929 65.8371 16.6525 65.6765L16.5719 65.9977ZM14.3946 69.5709C14.6365 69.7716 14.8784 70.0928 15.0397 70.0527C15.7252 69.8921 14.8784 69.4103 15.201 69.1293C14.9591 69.2497 14.7574 69.3701 14.3946 69.5307V69.5709ZM13.064 74.469C13.064 74.469 12.9027 74.3485 12.822 74.2682C12.6204 74.4288 12.3785 74.5493 12.2172 74.75C12.1366 74.8303 12.1769 75.0311 12.2172 75.1515C12.2172 75.1917 12.4995 75.272 12.5398 75.2318C12.7414 74.9909 12.9027 74.7099 13.1043 74.469H13.064ZM14.7574 70.695C14.7574 70.695 15.0397 70.4943 15.201 70.3739C14.5155 70.0125 14.5155 70.8155 14.0317 70.8556C14.2736 71.0564 14.3946 71.1768 14.5962 71.3374C14.5962 71.1768 14.6768 70.9761 14.7171 70.7352L14.7574 70.695ZM30.9261 62.2237C30.6439 62.2237 30.402 62.304 30.16 62.3442C30.1197 62.5048 30.0794 62.6654 29.9987 62.826C30.402 62.826 30.7111 62.6252 30.9261 62.2237Z" fill="#A7E92F"/>
<path d="M105.236 101.047C105.035 101.167 104.914 101.167 104.833 101.248C104.39 101.81 103.906 102.332 103.543 102.934C103.261 103.416 103.14 103.938 102.898 104.46C102.898 104.54 102.817 104.701 102.777 104.741C101.89 105.062 101.849 105.905 101.567 106.588C101.567 106.628 101.527 106.708 101.446 106.828C101.366 106.668 101.285 106.547 101.325 106.467C101.607 105.343 101.93 104.259 102.253 103.135C102.333 102.894 102.696 102.733 102.656 102.412C102.616 102.011 102.777 101.77 102.978 101.449C103.14 101.208 103.261 100.927 103.099 100.525C102.978 100.204 103.341 99.7623 103.462 99.3608C103.624 98.879 103.704 98.3973 103.906 97.9556C104.309 96.9519 104.712 95.9081 105.236 94.9445C105.64 94.1817 106.204 93.5393 106.648 92.8166C106.97 92.3349 107.252 91.8531 107.575 91.3713C107.857 90.9698 108.18 90.5683 108.543 90.207C108.785 89.9661 109.107 89.8457 109.389 89.6449C109.914 89.2434 110.156 89.3237 110.276 90.0063C110.276 90.0866 110.317 90.1669 110.357 90.4077C110.478 90.2472 110.518 90.1669 110.599 90.0866C110.72 89.926 110.881 89.8055 111.002 89.6851C111.123 89.8055 111.285 89.926 111.325 90.0464C111.405 90.6085 111.809 90.488 112.051 90.5683C112.454 91.1304 112.897 91.6925 113.301 92.2546C113.381 92.3349 113.422 92.4553 113.422 92.5758C113.341 93.6196 113.381 94.7036 113.18 95.7475C112.897 97.2731 112.494 98.7987 112.131 100.324C112.01 100.886 111.768 101.489 111.768 102.051C111.768 103.135 111.164 104.138 111.123 105.182C111.123 106.146 110.599 106.869 110.397 107.752C110.156 108.956 109.793 110.161 109.47 111.365C109.147 112.529 108.825 113.654 108.502 114.778C108.26 115.621 108.019 116.504 107.777 117.387C107.777 117.508 107.777 117.709 107.857 117.709C107.978 117.709 108.18 117.709 108.22 117.628C108.422 117.106 108.986 116.906 109.147 116.303C109.228 115.942 109.591 115.621 109.833 115.3C110.68 114.095 111.526 112.851 112.413 111.646C113.139 110.643 113.986 109.759 114.712 108.756C115.155 108.113 115.478 107.39 115.881 106.708C116.002 106.507 116.163 106.306 116.365 106.226C116.728 106.066 116.849 105.785 117.01 105.504C117.171 105.142 117.615 104.901 117.696 104.54C117.857 103.898 118.462 103.657 118.744 103.135C118.905 102.854 119.228 102.693 119.51 102.492C119.591 102.412 119.671 102.332 119.671 102.252C119.712 101.368 120.599 100.967 120.962 100.284C121.042 100.164 121.365 100.124 121.647 100.043C121.647 99.2404 122.413 98.6783 122.978 98.0359C123.542 97.4337 124.228 96.9118 124.832 96.3497C124.913 96.2694 124.953 96.149 125.034 95.9482C126.123 96.1088 125.518 94.8642 126.123 94.4627C126.123 94.5832 126.203 94.6635 126.203 94.7839C126.365 94.7036 126.526 94.6635 126.687 94.5832C126.647 94.5832 126.566 94.5029 126.526 94.4627C126.889 94.2218 126.848 93.6196 127.453 93.5795C127.695 93.5795 127.937 93.2181 128.139 92.9772C128.26 92.8568 128.421 92.7363 128.663 92.4955C128.542 92.1743 129.066 92.094 129.308 91.8129C129.55 91.572 129.59 91.1706 129.751 90.6888C129.832 90.9698 129.832 91.0903 129.872 91.1706C130.155 90.9698 130.437 90.7691 130.719 90.5683C130.639 90.4479 130.558 90.2873 130.518 90.207C131.485 90.207 131.808 89.3237 132.574 88.9624C132.493 89.1631 132.332 89.3237 132.332 89.5245C132.292 89.7654 132.251 90.0866 132.332 90.2873C132.453 90.5683 132.614 90.7289 132.211 90.9297C131.687 91.1706 131.888 91.6122 132.211 92.0538C132.05 92.094 131.929 92.1341 131.808 92.1743C131.808 91.9735 131.727 91.7728 131.687 91.6122C131.499 91.6925 131.593 92.094 131.969 92.8166C131.969 92.8166 132.332 92.6159 132.493 92.5356C132.534 93.3386 132.09 93.9408 131.647 94.5832C131.122 95.3861 130.76 96.2694 130.276 97.0724C129.792 97.8753 129.308 98.6783 128.743 99.4411C127.735 100.806 126.727 102.171 125.719 103.496C125.074 104.339 124.59 105.343 123.784 106.025C123.139 106.588 122.776 107.23 122.332 107.872C121.889 108.474 121.526 109.157 121.082 109.759C120.841 110.121 120.599 110.442 120.357 110.763C119.591 111.767 118.784 112.73 118.058 113.734C117.333 114.738 116.768 115.862 116.083 116.906C115.196 118.271 114.228 119.596 113.341 121.001C112.817 121.844 112.333 122.727 111.809 123.57C111.607 123.891 111.365 124.213 111.123 124.574C110.518 125.538 109.914 126.461 109.349 127.425C108.744 128.509 108.22 129.633 107.656 130.717C107.252 131.479 106.769 132.202 106.406 132.965C105.962 133.929 105.599 134.932 105.196 135.896C105.156 136.016 105.035 136.137 104.954 136.177C104.47 136.337 104.067 136.779 103.462 136.578C103.301 136.538 103.019 136.779 102.736 136.94C102.575 136.739 102.414 136.538 102.212 136.297C102.091 136.378 101.93 136.418 101.769 136.498C101.688 136.337 101.607 136.217 101.527 136.056C101.527 136.097 101.487 136.177 101.446 136.217C101.204 136.137 100.882 136.137 100.72 136.016C100.116 135.454 99.5511 134.812 98.9463 134.21C98.8657 134.129 98.8253 134.009 98.8253 133.888C98.785 132.764 98.6641 131.64 98.6641 130.516C98.6641 129.753 98.785 128.95 98.906 128.187C99.1479 126.501 99.3495 124.815 99.6721 123.129C99.7527 122.687 100.035 122.245 100.156 121.804C100.317 121.202 100.358 120.559 100.519 119.957C100.72 119.074 101.003 118.19 101.245 117.347C101.487 116.584 101.849 115.822 101.89 115.019C101.89 114.296 102.212 113.654 102.333 112.971C102.495 112.048 102.817 111.205 103.019 110.281C103.18 109.639 103.261 108.956 103.422 108.314C103.543 107.672 103.704 106.989 103.865 106.347C104.107 105.263 104.349 104.138 104.632 103.054C104.793 102.372 104.954 101.689 105.196 100.846L105.236 101.047Z" fill="#A7E92F"/>
<path d="M191.646 26.3719C191.767 26.0909 191.848 25.85 191.969 25.5689C192.049 25.5689 192.211 25.5689 192.493 25.6091C192.332 25.4886 192.211 25.3682 192.13 25.3281C193.178 24.4046 194.186 23.4812 195.235 22.598C195.477 22.3972 195.92 22.3972 196.243 22.3169C196.444 21.6344 197.13 21.514 197.694 21.3534C198.178 21.1928 198.702 21.2329 199.186 21.1125C199.348 21.1125 199.509 20.9117 199.67 20.8314C199.751 20.7913 199.872 20.7511 199.952 20.711C200.154 20.6307 200.436 20.6307 200.477 20.5102C200.678 20.1088 201.001 20.1891 201.283 20.1489C201.404 20.1489 201.525 20.0285 201.646 19.9883C201.767 19.9883 201.928 19.908 202.049 19.908C202.21 19.908 202.412 19.9883 202.694 20.0686C202.452 19.7876 202.331 19.627 202.17 19.4664C202.17 19.4262 202.21 19.3861 202.251 19.3459C203.138 19.7073 203.984 20.0686 204.952 20.43C204.71 20.5905 204.589 20.6708 204.468 20.7511C204.468 20.7913 204.549 20.8314 204.589 20.9117H205.154C205.517 21.7548 206.283 22.5177 206.242 23.4812C206.363 23.6418 206.525 23.7623 206.565 23.8827C206.646 24.6455 206.484 25.3281 206.242 26.0909C205.759 27.5764 205.073 28.9013 204.146 30.0656C203.299 31.1496 202.251 32.073 201.323 33.0767C200.96 33.4782 200.678 33.9198 200.315 34.2811C198.823 35.6462 197.332 37.0112 195.799 38.3361C195.275 38.7778 194.63 39.1391 194.066 39.5406C193.904 39.661 193.824 39.9019 193.622 40.0223C192.412 40.9056 191.243 41.8692 189.953 42.5918C189.348 42.913 188.582 43.2342 187.775 43.1539C187.453 43.1539 187.13 43.2744 186.848 43.2744C186.526 43.2744 186.203 43.2744 185.719 43.1941C185.437 44.2379 185.155 45.3621 185.397 46.4862C185.921 47.0082 186.526 46.7673 187.09 46.8074C188.179 46.8877 188.985 46.4461 189.832 45.9242C190.679 45.4022 191.525 44.9606 192.372 44.4788C193.42 43.8766 194.428 43.2342 195.436 42.5918C196.283 42.0298 197.09 41.4275 197.936 40.8655C198.138 40.745 198.42 40.6647 198.702 40.5443C198.702 40.3837 198.622 40.2231 199.106 40.2632C199.549 40.3034 200.033 39.9421 200.477 39.7815C200.477 39.7815 200.477 39.661 200.477 39.5807C200.275 39.661 200.114 39.7413 199.872 39.8216C200.235 39.0186 200.96 39.2194 201.565 39.0588C201.404 38.9785 201.243 38.8982 201.041 38.7777C201.323 38.577 201.525 38.296 201.807 38.2558C202.13 38.1755 202.493 38.2558 202.815 38.2558C203.178 38.2558 203.46 38.2558 203.662 37.8142C203.823 37.493 204.146 37.2521 204.468 37.0112C204.751 36.8105 205.073 36.6499 205.396 36.4491C205.678 36.2886 205.96 36.128 206.202 35.9272C206.928 35.4454 207.654 34.9235 208.42 34.4819C208.581 34.4016 208.863 34.5622 209.186 34.6023C209.186 34.5622 209.105 34.3614 209.065 34.1607C209.468 34.0001 209.992 33.9599 210.355 33.6789C210.637 33.438 210.879 33.157 211.283 33.157C211.323 33.157 211.404 32.9964 211.404 32.9964C211.524 33.0365 211.605 33.1168 211.726 33.1971C211.484 33.438 211.283 33.6789 211 33.9198C211.121 34.0001 211.242 34.1607 211.323 34.1205C211.968 34.0001 212.573 33.8395 213.218 33.7191C213.42 33.6789 213.702 33.7191 213.903 33.7191C214.266 33.6388 214.549 33.438 214.911 33.3176C215.234 33.1971 215.557 33.157 216 33.0365C215.718 33.5986 215.516 33.9599 215.315 34.3614C215.315 34.3614 215.395 34.4417 215.436 34.4417C215.194 34.6023 214.952 34.7629 214.75 34.9235C214.911 35.4856 214.549 36.0878 213.903 36.5696C213.541 36.8506 213.258 37.2521 212.936 37.5331C212.734 37.7339 212.492 37.8945 212.25 38.0149C211.202 38.6573 210.154 39.2997 209.146 39.9822C208.178 40.6246 207.21 41.3874 206.283 42.0699C205.597 42.5918 204.872 43.0736 204.146 43.5956C203.218 44.2781 202.331 44.9606 201.404 45.6431C200.154 46.5264 198.944 47.4498 197.694 48.3331C196.606 49.0959 195.436 49.8587 194.348 50.6617C193.783 51.0631 193.38 51.6654 192.816 52.0267C192.17 52.4282 191.404 52.7494 190.638 52.9903C189.792 53.2713 188.904 53.472 188.017 53.6326C187.614 53.7129 187.13 53.7531 186.727 53.6326C186.001 53.5122 185.235 53.3917 184.55 53.1509C184.066 52.9903 183.824 52.1873 183.139 52.6289C183.058 52.4282 182.614 52.6289 182.735 52.1471C182.735 52.0669 182.211 51.7858 181.889 51.6252C181.687 51.5048 181.445 51.4646 181.324 51.304C180.921 50.742 180.598 50.1397 180.235 49.5375C179.994 49.1762 179.671 48.8148 179.55 48.4134C179.106 47.2089 179.106 45.9643 179.348 44.7197C179.55 43.7963 179.631 42.8327 180.034 42.0298C180.598 40.9056 180.679 39.661 181.243 38.6172C181.969 37.2923 182.655 35.9674 183.421 34.6826C183.703 34.241 184.147 33.8797 184.469 33.438C184.953 32.7956 185.356 32.0328 185.961 31.5109C186.646 30.9087 187.009 30.0254 187.937 29.6641C188.3 29.5436 188.542 28.9816 188.864 28.6604C189.106 28.4195 189.509 28.2589 189.671 27.9377C189.912 27.4961 190.114 27.0544 190.719 26.934C190.8 26.934 190.8 26.6931 190.84 26.5727C191.001 26.1712 191.203 25.9704 191.687 26.3318L191.646 26.3719ZM188.783 36.7703C188.783 36.7703 188.904 36.8506 188.945 36.9309C189.227 36.7703 189.509 36.6499 189.751 36.4893C190.759 35.6863 191.727 34.8432 192.695 34.0402C193.299 33.5183 193.985 33.0365 194.549 32.4745C195.88 31.2299 197.17 29.9451 198.461 28.6604C199.065 28.0581 199.63 27.3756 200.154 26.7332C200.235 26.6128 200.194 26.4522 200.235 26.2916C200.114 26.2916 199.952 26.2113 199.831 26.2916C199.549 26.4522 199.267 26.6128 198.985 26.8135C198.178 27.3355 197.372 27.8574 196.646 28.4596C195.961 28.9816 195.275 29.5838 194.63 30.186C193.824 30.9087 192.977 31.6715 192.211 32.4745C191.566 33.157 190.921 33.9198 190.356 34.6425C189.792 35.3651 189.308 36.128 188.743 36.8506L188.783 36.7703Z" fill="#A7E92F"/>
<path d="M92.4963 39.58C92.335 38.7771 92.7786 38.2953 93.6656 38.3354C93.7059 38.3354 93.8269 38.1749 93.8269 38.0946C93.8269 38.0143 93.7463 37.8938 93.7463 37.8135C93.7463 37.7332 93.7463 37.6128 93.7866 37.5325C94.1092 37.6529 94.3108 37.9741 94.714 37.3719C95.0365 36.8901 95.4397 36.2879 96.0446 35.9667C96.5284 35.6857 96.851 35.0834 97.2945 34.6819C97.6977 34.3206 98.1816 34.0797 98.5445 33.7184C98.867 33.3972 99.1089 32.9957 99.3509 32.5942C99.4315 32.4738 99.4315 32.3132 99.5122 32.2329C100.157 31.711 100.802 31.2292 101.488 30.7474C102.012 30.3459 102.496 29.9043 103.262 29.9444C103.464 29.9444 103.625 29.6634 103.826 29.5028C103.826 29.4627 103.786 29.4225 103.746 29.3824C104.754 28.8604 105.722 28.2582 106.77 27.8969C107.778 27.5355 108.504 26.4515 109.471 26.6121C110.318 26.2909 110.923 26.0902 111.528 25.8895C111.689 25.8092 111.85 25.7289 112.052 25.6486C112.213 25.5683 112.375 25.1266 112.536 25.6486C112.536 25.6486 112.616 25.6486 112.657 25.6486C113.221 25.4478 113.786 25.1668 114.391 25.0463C114.874 24.966 115.399 25.1266 115.923 25.1668C115.923 25.1668 115.963 25.3274 116.003 25.4077C116.003 25.488 116.044 25.5281 116.084 25.6084C116.649 25.3675 116.931 25.8092 117.253 26.0902C117.576 26.3712 118.019 26.5318 118.06 27.1341C118.06 27.3348 118.463 27.5355 118.705 27.6961C118.907 27.8567 119.148 28.0173 119.431 28.2181C119.269 28.2984 119.148 28.3787 118.947 28.459C119.108 28.5392 119.269 28.5392 119.269 28.6195C119.592 29.3021 119.955 30.0247 119.874 30.7876C119.794 31.4299 119.753 32.0322 119.431 32.6745C119.027 33.3972 118.866 34.2403 118.584 35.0834C118.342 35.766 118.382 35.766 117.737 35.8061C118.261 36.4083 118.06 37.0507 117.173 37.6931C117.253 37.7734 117.334 37.8938 117.334 37.8537C116.931 38.7369 116.608 39.58 116.205 40.3429C115.761 41.2261 115.278 42.0692 114.834 42.9124C114.552 43.4343 114.189 43.9562 113.866 44.438C113.705 44.719 113.463 44.9599 113.262 45.2008C113.181 45.3213 113.02 45.4417 113.02 45.522C113.02 46.4053 112.254 46.8469 111.971 47.5696C111.81 47.8907 111.608 48.2119 111.407 48.493C111.286 48.6536 111.165 48.7339 110.963 48.9346C110.883 49.0952 110.842 49.4565 110.641 49.6974C110.238 50.2595 109.754 50.7413 109.35 51.3034C108.988 51.8253 108.705 52.4275 108.302 52.9494C107.899 53.5115 107.375 54.0334 106.931 54.5554C105.843 55.8 104.673 57.0044 103.706 58.2892C103.302 58.8512 102.577 59.2126 102.456 60.0155C102.456 60.1761 102.012 60.2163 101.851 60.417C101.528 60.8185 101.286 61.2601 100.964 61.6616C99.996 62.7456 99.0686 63.8296 98.0203 64.8334C97.6574 65.1947 97.0526 65.3954 96.4881 65.5159C95.4801 65.7166 94.4317 65.8371 93.3834 65.9174C93.1818 65.9174 92.9802 65.7969 92.7786 65.7166C92.456 65.5962 92.0931 65.556 91.8109 65.3954C91.0851 64.9538 90.3996 64.472 89.7545 63.9501C89.0287 63.3077 88.8271 62.304 88.6658 61.3806C88.5449 60.8185 88.6658 60.2163 88.3433 59.6542C88.2626 59.4535 88.4239 59.1323 88.5046 58.8512C88.7465 58.1687 88.3029 57.4059 88.9078 56.8037C88.9078 56.7635 88.9884 56.6832 88.9884 56.6431C88.6658 56.1613 89.1094 55.8401 89.19 55.4386C89.311 54.9569 89.3513 54.4349 89.4723 53.9531C89.5126 53.7524 89.6739 53.5918 89.7545 53.4714C89.7948 53.0699 89.8351 52.6684 89.9158 52.2669C89.9964 51.8253 90.319 51.1829 90.1577 51.0223C89.5932 50.4602 90.44 50.2194 90.2787 49.7376C90.1577 49.3762 90.2787 48.9346 90.2787 48.5331C90.2383 48.5331 90.1577 48.5331 90.1174 48.5331C90.2787 48.4127 90.4803 48.2922 90.7222 48.0915C90.3996 48.0112 90.2383 47.9309 89.9964 47.8907C90.1577 47.7302 90.2787 47.6097 90.3996 47.4893C90.3996 47.4893 90.3593 47.409 90.319 47.3688C90.1577 47.3688 89.9964 47.3688 89.8351 47.409C89.8351 47.3688 89.8351 47.3287 89.7948 47.2484C89.9561 47.1681 90.1174 47.1279 90.2787 47.0476C90.3593 46.4856 90.44 45.8432 90.5609 45.1205C90.44 45.0804 90.2787 45.0001 90.0367 44.8796C90.4803 44.3577 90.1577 43.1532 91.4883 43.354C91.5689 43.073 91.6496 42.7919 91.7302 42.5109C91.7302 42.5109 91.6496 42.5109 91.6093 42.4707C91.5286 42.551 91.448 42.6715 91.4077 42.7518C91.3673 42.8722 91.4077 43.0328 91.3673 43.1934C91.2464 43.073 91.1254 42.9525 91.0044 42.8722C91.3673 42.4707 91.7302 42.0692 92.0125 41.7481C92.0931 41.7481 92.0125 41.7481 91.8109 41.7481C91.8915 41.5875 91.9721 41.4269 92.0125 41.3064C91.9318 41.3064 91.8109 41.2261 91.6899 41.186C91.6899 41.186 91.6899 41.1458 91.6899 41.1057H92.335C92.5366 40.8648 92.6979 40.7042 92.9398 40.4232C92.8189 40.4232 92.7382 40.4232 92.6173 40.383C92.456 40.383 92.2947 40.4232 92.1334 40.383C92.0931 40.383 92.1334 40.1421 92.2141 39.9815C92.2544 40.102 92.2947 40.1823 92.3754 40.3027C92.4157 40.3027 92.456 40.3027 92.4963 40.3027C92.4963 40.1421 92.4963 39.9815 92.4963 39.8209C92.7382 39.8209 93.0608 39.9012 93.1818 39.7406C93.3834 39.4997 93.464 39.1786 93.585 38.8574C93.5447 38.8574 93.5043 38.8574 93.464 38.8172C93.1415 39.0983 92.8189 39.3793 92.4963 39.6603V39.58ZM110.238 31.3496C110.358 31.9519 110.157 32.1125 109.794 32.273C109.189 32.5139 108.504 32.3935 108.02 33.076C107.697 33.5578 107.012 33.7987 106.528 34.16C105.722 34.7221 104.915 35.2842 104.109 35.8462C103.907 35.9667 103.706 36.1273 103.585 36.328C103.141 37.0106 102.738 37.7332 102.335 38.4157C101.891 39.1384 101.528 39.9012 101.044 40.5436C100.641 41.0254 100.319 41.5072 100.117 42.1495C99.9154 42.8321 99.4718 43.3941 99.1493 44.0365C98.9073 44.4781 98.7057 44.9198 98.5041 45.4016C98.3429 45.803 98.2622 46.2447 98.0606 46.606C97.2945 48.0513 96.7703 49.6171 96.3671 51.1829C96.2865 51.464 96.0446 51.6647 95.9639 51.9056C95.6817 52.7085 95.5204 53.5517 95.1978 54.3546C94.9559 54.997 94.714 56.0409 94.6333 56.6832C94.5124 57.4461 94.1898 58.1687 94.0285 58.9315C93.9882 59.1724 94.0285 59.5739 94.1495 59.7345C94.3108 59.8951 94.7543 59.8951 94.9559 59.7747C95.4397 59.5338 95.9236 59.2126 96.3268 58.8512C97.4961 57.8074 98.6251 56.7635 99.7541 55.7197C100.48 55.0372 101.206 54.3145 101.81 53.5115C102.093 53.1502 102.294 53.0699 102.496 53.1903C102.577 52.9093 102.577 52.548 102.738 52.3071C103.141 51.7851 103.625 51.3435 104.028 50.8617C104.512 50.2595 104.754 49.4565 105.681 49.2959C105.318 48.774 106.689 46.887 107.536 46.6462C107.536 46.4856 107.536 46.2447 107.576 46.2045C108.181 45.7227 108.423 45.0001 108.746 44.3175C108.907 43.9964 109.149 43.5146 109.673 43.9964C109.915 43.354 109.592 42.551 110.358 42.3503C110.52 41.8685 110.641 41.467 110.721 41.186C110.923 41.1057 111.125 41.1057 111.165 40.9852C111.246 40.8648 111.205 40.664 111.205 40.4633C111.326 40.4633 111.487 40.4633 111.528 40.4633C111.81 39.8611 112.052 39.299 112.254 38.8574C112.455 38.8574 112.616 38.8574 112.737 38.8574C112.737 38.5362 112.697 38.3354 112.737 38.0946C112.737 37.8537 112.858 37.6128 112.899 37.3719C112.858 37.3719 112.778 37.3719 112.737 37.3317C112.858 37.1711 112.979 36.9704 113.141 36.7697C113.262 36.8098 113.383 36.8901 113.504 36.9704C113.544 36.6894 113.624 36.4083 113.665 36.1674C113.624 36.047 113.786 36.0871 113.826 36.0068C114.028 35.4849 114.189 35.0031 114.35 34.4812C114.592 33.7987 114.794 33.1162 114.995 32.3935C114.995 32.3132 115.116 32.3132 115.157 32.2329C115.237 31.992 115.318 31.7511 115.318 31.5504C115.318 31.3095 115.278 31.0284 115.237 30.6671C114.834 30.6671 114.391 30.5467 113.947 30.5467C113.705 30.5467 113.463 30.7073 113.221 30.8277C112.818 30.9883 112.415 31.189 112.012 31.3095C111.487 31.4701 111.084 32.1125 110.318 31.4701L110.238 31.3496Z" fill="#A7E92F"/>
<path d="M83.8674 54.1138C83.5045 54.435 83.1819 54.716 82.819 55.0372C83.0206 55.4789 83.4642 55.5993 83.9077 55.4789C84.3109 55.3986 84.3109 55.519 84.1496 55.8001C83.948 56.0811 84.0287 56.3621 84.1093 56.6432C84.1899 57.2454 83.948 57.8476 83.5851 58.3294C83.5851 58.3695 83.4642 58.4097 83.4642 58.4498C83.2222 59.293 82.5771 59.8952 82.0126 60.4974C81.6497 60.8989 81.2062 61.2602 80.7627 61.6216C80.0772 62.1836 79.3918 62.7457 78.666 63.2676C78.3837 63.4684 78.0612 63.629 77.7789 63.7896C76.8112 64.4319 75.9242 65.1948 74.9161 65.6765C73.5452 66.3189 72.3759 67.2825 70.884 67.684C69.6744 68.0052 68.5857 68.6074 67.4164 69.049C66.1665 69.4906 64.8359 69.5709 63.5456 69.3702C62.5376 69.2096 61.4893 68.9286 60.6022 68.4468C59.7152 67.965 58.9087 67.2825 58.2636 66.5197C57.941 66.1583 57.5378 65.6765 57.7394 64.9539C57.8604 64.5524 57.5378 64.0305 57.4572 63.5487C57.3765 63.1472 57.2959 62.7457 57.2959 62.3442C57.2959 61.461 57.2959 60.5777 57.4169 59.6944C57.5378 58.6907 57.6991 57.687 57.9007 56.6833C57.9814 56.2818 58.062 55.9205 58.183 55.5592C58.3039 55.1175 58.4652 54.716 58.6265 54.2744C58.8684 53.632 59.1103 53.0298 59.3119 52.3874C59.3926 52.0663 59.6748 51.8254 59.9168 51.4239C60.3603 51.2633 61.0054 51.0224 61.8118 50.7414C61.4893 50.5808 61.328 50.5005 61.0457 50.3399C61.328 50.2997 61.5296 50.2596 61.7715 50.2194C61.328 50.0187 61.3683 49.8581 61.7715 49.5771C62.0134 49.3763 62.1344 49.0551 62.2957 48.7741C62.457 48.5332 62.5779 48.2522 62.6989 47.9711C62.6183 47.9711 62.5779 47.8908 62.4973 47.8507C62.2957 48.0916 62.0941 48.3726 61.8522 48.6135C61.8118 48.6135 61.7312 48.5332 61.6909 48.4931C61.8118 48.2923 61.8925 48.0113 62.0538 47.8507C62.3763 47.4492 62.7795 47.0477 63.1424 46.6462C63.4247 46.2849 63.7876 46.0842 64.2714 46.1644C64.4327 46.1644 64.594 46.1243 64.7149 46.0842C64.7149 46.0842 64.7149 45.8834 64.6746 45.8433C64.5133 45.763 64.3521 45.763 64.1908 45.7228C64.473 45.1206 64.6746 45.0804 65.4407 45.2009C65.8036 45.241 66.1665 45.1206 66.61 45.0403C66.4891 44.679 66.4084 44.3979 65.9649 44.7994C65.8439 44.9199 65.602 45.0001 65.3601 45.0001C65.8439 44.4381 66.2875 43.8358 66.852 43.3942C67.4568 42.9124 68.1825 42.6314 68.9083 42.2299C68.747 42.1496 68.6261 42.0693 68.4648 42.0292C68.4648 41.989 68.5051 41.9087 68.5454 41.9087C69.0293 41.8284 69.3518 41.5875 69.5131 41.1058C69.5131 40.9853 69.6744 40.8649 69.7551 40.8649C70.5615 40.7846 70.8034 39.9415 71.4485 39.6203C71.8517 39.3794 72.255 39.1385 72.6985 38.8574C72.7791 38.8173 72.8194 38.737 72.9001 38.6969C73.4243 38.2552 73.9484 37.8136 74.4323 37.372C74.4323 37.372 74.5129 37.2917 74.5129 37.3318C75.2387 37.6129 75.4403 36.6894 76.0854 36.6493C76.408 36.6493 76.7709 36.3683 77.0935 36.2077C77.1338 36.2077 77.1338 36.0872 77.2144 36.0069C77.416 35.7259 77.6176 35.485 78.0612 35.6456C78.2224 35.7259 78.424 35.6456 78.6257 35.6456C78.545 35.4448 78.5047 35.2842 78.4644 35.1237C78.9885 35.1237 79.5127 35.1237 80.0369 35.1237C80.0369 35.0835 80.0369 35.0032 80.0369 34.9631C79.9562 34.9229 79.8756 34.8426 79.674 34.7623C79.9159 34.682 80.1175 34.5616 80.2788 34.6017C80.803 34.7222 81.3272 34.8426 81.8916 35.0032C82.2545 35.1237 82.6577 35.2039 82.9803 35.4047C83.2626 35.6054 83.5448 35.8865 83.7061 36.1675C83.948 36.7697 84.4319 37.1712 84.9157 37.5326C85.2383 37.7734 85.3189 38.0143 85.3592 38.3757C85.4399 39.018 85.6415 39.6604 85.6818 40.3028C85.7625 41.6678 85.6415 43.0329 84.6738 44.157C83.9077 45.0804 83.2222 46.0842 82.4561 46.9674C81.7304 47.7704 80.9643 48.5332 80.1982 49.296C79.9562 49.5369 79.5934 49.6172 79.3918 49.8581C78.1015 51.1428 76.6096 52.1867 75.0371 53.1503C74.1097 53.7123 73.2227 54.435 72.255 54.9569C71.0856 55.5993 69.8357 56.2015 68.5858 56.6833C67.5374 57.0848 66.4084 57.4461 65.2391 57.2855C64.5133 57.1651 63.8279 57.0045 63.1021 56.8439C62.9811 56.8439 62.8602 56.8439 62.6586 56.8038C62.4973 57.8075 62.2957 58.8112 62.1747 59.8149C62.0941 60.4171 62.0538 61.0595 61.9328 61.6617C61.7312 63.1071 62.7795 63.8297 64.3924 63.5487C66.4084 63.1873 68.1825 62.3442 69.997 61.461C71.0856 60.939 72.0533 60.1762 73.1017 59.5338C74.392 58.771 75.6822 58.0082 77.0128 57.2855C77.537 57.0045 78.0208 56.6432 78.545 56.3621C78.7466 56.2417 78.9885 56.2818 79.1901 56.1614C79.553 55.9606 79.8756 55.7198 80.2385 55.519C80.5611 55.3183 80.8433 55.1175 81.1659 54.9971C82.0529 54.6358 82.94 54.3146 83.8674 53.9934C83.8674 53.9934 83.9077 53.9934 83.948 54.0335L83.8674 54.1138ZM80.7223 39.9816L80.5207 39.7006C79.795 39.9415 79.0289 40.0619 78.3434 40.3831C77.537 40.7846 76.8515 41.3466 76.1258 41.8284C75.1984 42.3905 74.271 42.8723 73.3436 43.3942C73.1017 43.5147 72.9807 43.8358 72.7388 43.9563C71.4082 44.5184 70.4808 45.6425 69.3518 46.4455C68.3035 47.2083 67.4164 48.2522 66.5697 49.2157C65.9246 49.9384 65.3601 50.7815 64.7956 51.5845C64.7149 51.7049 64.7553 51.8655 64.6746 52.1867C66.2068 51.183 67.7793 50.7414 69.2309 49.8179C71.0856 48.6536 72.9404 47.5295 74.5936 46.0842C74.7145 45.9637 74.9161 45.9637 75.0774 45.8834C75.6016 45.4016 76.1661 44.9199 76.7306 44.4782C77.2951 44.0366 77.8596 43.6351 78.3837 43.1533C78.666 42.9124 78.9079 42.5912 79.1498 42.2701C79.674 41.5072 80.1982 40.7043 80.7223 39.9415V39.9816ZM62.9408 47.3288C63.3037 47.3689 63.7069 47.5295 63.8279 47.409C63.9892 47.2485 63.9488 46.847 63.9892 46.5659C63.9085 46.5659 63.8682 46.5258 63.7876 46.4856C63.5053 46.7667 63.2634 47.0076 62.9408 47.3288Z" fill="#A7E92F"/>
<path d="M160.598 31.5508C160.356 31.0691 160.961 30.9486 161.163 30.6274C161.243 30.5471 161.284 30.4267 161.324 30.3464C161.405 30.1055 161.485 29.8646 161.606 29.6237C162.131 28.7405 162.655 27.8973 163.139 27.0141C163.582 26.171 163.945 25.3278 164.348 24.4847C164.509 24.1635 164.751 23.8825 164.913 23.5212C165.397 22.5576 165.88 21.5539 166.405 20.6305C166.888 19.7472 167.453 18.9041 167.937 18.0208C168.38 17.258 168.703 16.4149 169.146 15.6521C169.429 15.09 169.751 14.5681 170.074 14.0462C170.316 13.5644 170.558 13.0826 170.799 12.6008C171.082 11.9986 171.283 11.3562 171.606 10.754C172.049 9.95103 172.291 8.98747 172.856 8.2648C173.34 7.66257 173.42 6.98005 173.783 6.37783C174.186 5.65516 174.59 4.93249 174.993 4.20982C175.477 4.37041 175.961 4.45071 176.122 3.68789C175.84 3.68789 175.557 3.68789 175.235 3.68789C175.275 3.60759 175.315 3.48715 175.356 3.40685C175.759 2.80462 176.162 2.16225 176.606 1.56003C176.686 1.43958 176.888 1.35928 177.009 1.23884C177.211 1.0381 177.452 0.837356 177.533 0.596466C177.775 0.114685 178.299 -0.0860563 178.904 0.0343887C179.428 0.154834 179.952 0.194982 180.477 0.23513C181.001 0.23513 181.202 0.435872 181.202 0.997949C181.202 1.19869 181.202 1.39943 181.202 1.56003C181.444 2.08195 181.364 2.60388 181.162 3.12581C180.799 4.00907 180.557 4.93249 180.154 5.7756C179.348 7.54213 178.501 9.26851 177.614 10.9949C176.565 13.0425 175.477 15.09 174.428 17.1376C173.622 18.6632 172.816 20.1889 172.009 21.7145C171.243 23.1598 170.517 24.6453 169.711 26.0907C169.025 27.3754 168.259 28.5799 167.574 29.8646C167.453 30.0653 167.453 30.3865 167.332 30.5873C167.171 30.9085 167.009 31.2297 166.848 31.5508C166.767 31.6713 166.767 31.8319 166.687 31.9523C165.8 33.1166 165.276 34.4817 164.509 35.6861C164.348 35.9672 164.308 36.3285 164.106 36.6095C163.622 37.3723 163.098 38.0549 162.655 38.8177C162.413 39.179 162.292 39.6207 162.09 40.0221C161.606 40.9857 161.082 41.9091 160.598 42.8727C160.397 43.2742 160.397 43.7559 160.195 44.1976C159.631 45.5626 159.026 46.8875 158.502 48.2124C158.139 49.0957 157.897 50.0191 157.534 51.0629C157.897 50.9826 158.219 50.9425 158.381 50.822C159.59 50.0191 160.679 49.0555 161.969 48.4533C162.574 48.1723 162.977 47.3693 163.784 47.57C163.864 46.9678 164.509 46.9678 164.792 46.6065V46.5663C165.921 46.3254 166.485 44.9604 167.816 45.1611C167.896 45.0005 167.937 44.8399 168.017 44.6793C168.017 44.7195 168.058 44.7998 168.098 44.8399C168.34 44.7596 168.582 44.7195 168.783 44.599C169.308 44.1976 169.832 43.7559 170.558 43.7158C170.679 43.7158 170.84 43.4347 170.961 43.2742C171.203 43.515 171.485 43.8764 171.767 44.1976C172.09 44.1976 172.412 44.1976 172.695 44.1574C172.856 44.1574 173.138 44.1173 173.219 43.9968C173.541 43.4749 173.904 43.4749 174.469 43.7559C174.227 43.9968 173.985 44.1976 173.783 44.3983C173.783 44.4385 173.783 44.5188 173.824 44.5589C174.254 44.9871 174.254 45.4422 173.824 45.9239C173.824 45.9239 173.743 45.9641 173.743 46.0042C173.904 46.8072 173.098 46.9678 172.775 47.4496C172.13 48.373 171.203 48.9752 170.396 49.6979C169.106 50.7819 167.775 51.8659 166.405 52.9098C165.276 53.793 164.066 54.596 162.897 55.4391C162.05 56.0413 161.203 56.6837 160.356 57.2859C159.348 58.0086 158.421 58.8517 157.252 59.2933C156.163 59.6948 155.155 59.8554 153.945 59.5744C153.018 59.3335 152.212 58.9722 151.445 58.4502C151.123 58.2093 151.002 57.7677 150.679 57.567C150.034 57.1253 149.913 56.6034 149.833 55.8406C149.752 55.1179 149.954 54.5157 150.115 53.8733C150.196 53.5923 150.236 53.3514 150.316 53.0703C150.518 52.4681 150.76 51.906 150.921 51.3038C151.405 49.8183 151.849 48.2927 152.333 46.8072C152.534 46.2853 152.857 45.7634 153.099 45.2414C153.421 44.5188 153.744 43.8362 154.066 43.1136C154.187 42.8325 154.349 42.5916 154.47 42.3507C154.953 41.347 155.437 40.3433 155.921 39.3396C156.163 38.898 156.445 38.4965 156.727 38.0549C157.05 37.5731 157.413 37.1315 157.736 36.6497C157.856 36.4891 157.736 36.208 157.856 36.0073C158.34 35.0036 158.865 34.04 159.389 33.0765C159.55 32.7553 159.711 32.394 159.913 32.1129C159.993 31.9523 160.155 31.872 160.356 31.6713L160.598 31.5508Z" fill="#A7E92F"/>
<path d="M38.3457 137.863C38.507 137.261 38.6683 136.779 38.7489 136.338C38.8699 135.816 38.8296 135.254 38.9908 134.772C39.1924 134.049 39.5553 133.367 39.7973 132.644C40.0392 131.801 40.2005 130.958 40.4424 130.155C40.644 129.512 40.9666 128.91 41.2488 128.308C41.3294 128.107 41.3295 127.826 41.4101 127.625C41.7327 126.943 42.2165 126.3 42.3375 125.578C42.5391 124.574 43.1036 123.731 43.4261 122.808C43.8697 121.603 44.5148 120.439 44.9986 119.234C45.6438 117.709 46.2889 116.183 46.7728 114.617C47.0147 113.895 47.5389 113.212 47.3776 112.369C47.3776 112.168 47.6195 111.887 47.7808 111.686C47.9421 111.446 48.1437 111.205 48.2646 110.924C48.6679 109.759 48.9904 108.595 49.4743 107.471C49.8775 106.467 50.442 105.544 50.9661 104.58C50.9661 104.5 51.1274 104.42 51.0871 104.379C50.6839 103.536 51.5306 103.456 51.8935 103.095C52.0145 102.934 52.3371 102.934 52.4983 102.854C52.6193 102.613 52.7403 102.372 52.8612 102.131C52.9015 102.131 52.9822 102.131 53.0225 102.131V102.774C53.0225 102.774 53.1435 102.854 53.1838 102.854C53.3451 102.533 53.5064 102.252 53.6676 101.93C53.708 101.93 53.7886 101.93 53.8289 101.93C53.7483 102.332 53.708 102.733 53.6273 103.135C53.6273 103.135 53.6676 103.135 53.708 103.175C53.8289 102.974 53.9499 102.774 54.0708 102.573C54.1918 102.412 54.3934 102.211 54.5547 102.211C54.716 102.211 54.9982 102.332 55.0385 102.493C55.4418 103.215 55.6837 104.018 56.2885 104.661C56.4901 104.861 56.4498 105.463 56.3691 105.825C56.1675 106.708 55.9659 107.591 55.6837 108.475C55.2402 109.759 54.716 111.044 54.2725 112.329C53.8692 113.413 53.5064 114.537 53.1435 115.621C52.9015 116.304 52.6193 116.986 52.3774 117.669C52.3774 117.789 52.2967 117.869 52.2564 118.15C53.0628 117.428 53.7483 116.825 54.4337 116.183C55.3611 115.34 56.2885 114.537 57.2159 113.694C58.2239 112.77 59.2319 111.847 60.2399 110.924C61.006 110.241 61.7721 109.599 62.4979 108.916C62.8205 108.635 63.1027 108.314 63.4656 108.033C63.5866 107.953 63.7479 107.953 63.9495 107.872C63.9898 107.792 64.0301 107.631 64.1511 107.511C64.393 107.27 64.7156 107.11 64.9172 106.869C65.8042 105.985 66.6106 105.022 67.538 104.179C68.1832 103.536 68.9493 103.014 69.675 102.412C70.1589 101.971 70.3605 102.211 70.4411 102.733C70.804 102.693 71.1266 102.613 71.4492 102.573C71.4492 102.894 71.4492 103.135 71.4088 103.456C72.1346 103.135 72.5781 103.657 73.0217 103.978C73.062 103.978 73.0217 104.179 73.0217 104.259C72.8604 104.259 72.6991 104.259 72.4169 104.219C72.5781 104.379 72.6991 104.5 72.8201 104.58C73.8281 105.142 73.9087 105.945 73.3442 106.909C72.6185 108.153 71.4895 108.956 70.4411 109.84C69.6347 110.482 68.9089 111.165 68.1025 111.847C66.6106 113.172 65.1188 114.457 63.6269 115.782C62.7802 116.544 61.8931 117.307 61.0867 118.07C60.1593 118.953 59.2722 119.837 58.3449 120.72C57.3772 121.683 56.3691 122.567 55.4014 123.57C54.1918 124.815 53.0628 126.14 51.8935 127.425C51.1677 128.228 50.4016 129.071 49.7162 129.914C49.313 130.396 48.9904 130.958 48.5872 131.48C48.1034 132.202 47.5792 132.885 47.1357 133.607C46.6518 134.41 46.2083 135.213 45.7647 136.016C45.6841 136.137 45.6438 136.297 45.5228 136.418C45.039 137.181 44.918 137.984 44.8777 138.867C44.8777 139.148 44.3938 139.429 44.1116 139.67C43.8697 139.83 43.5874 139.951 43.3052 140.071C42.902 140.232 42.5391 140.393 42.1359 139.991C41.9343 139.79 41.5714 139.59 41.2488 139.911C41.1682 139.951 40.9262 139.911 40.8456 139.83C40.3214 139.429 39.9989 138.827 39.2731 138.626C39.1924 138.626 39.1521 138.385 39.1521 138.265C39.1521 137.863 39.1521 137.502 38.386 137.863H38.3457Z" fill="#A7E92F"/>
<path d="M77.0546 134.973C76.7321 134.893 76.4901 134.772 76.2482 134.812C75.1595 135.053 74.2725 134.571 73.4257 133.969C73.2645 133.849 73.0225 133.769 72.8209 133.648C72.7403 133.046 72.6193 132.403 72.5387 131.801C72.4984 131.44 72.5387 131.159 72.9419 131.038C72.9822 131.038 73.0225 130.878 73.0629 130.757C72.9419 130.757 72.8613 130.757 72.7 130.798C73.1838 129.352 73.6273 127.907 74.1918 126.462C74.3934 125.94 74.6757 125.498 74.6757 124.896C74.6757 124.735 74.9176 124.575 74.9983 124.374C75.5224 123.21 76.0466 122.005 76.5708 120.841C77.1756 119.516 77.8207 118.231 78.3852 116.906C79.0303 115.421 79.5948 113.855 80.2803 112.369C80.8045 111.285 81.1674 110.161 81.6512 109.077C82.256 107.712 82.9818 106.347 83.6672 105.022C84.0705 104.219 84.5543 103.457 84.9575 102.654C85.3204 101.971 85.8043 101.329 86.4494 100.927C86.6913 100.847 86.9736 100.927 87.0542 100.566C87.0542 100.486 87.1752 100.405 87.2155 100.325C87.2155 100.325 87.3768 100.365 87.3768 100.445C87.6187 101.248 87.9009 100.847 88.2235 100.486C88.2235 100.445 88.3042 100.405 88.3445 100.405C88.7477 100.726 89.1912 100.967 89.5138 101.329C89.796 101.65 90.038 102.011 90.1589 102.413C90.4815 103.376 91.0863 104.259 90.3202 105.343C89.9573 105.825 89.9573 106.548 89.7154 107.15C89.3525 107.953 88.9493 108.756 88.5864 109.559C88.1429 110.563 87.7397 111.607 87.2961 112.61C87.0139 113.213 86.6913 113.775 86.4091 114.377C86.2881 114.618 86.1671 114.899 86.0462 115.14C85.6027 116.103 85.1994 117.067 84.7559 117.99C84.2317 119.195 83.7076 120.359 83.1028 121.523C82.6189 122.527 82.0947 123.491 81.5706 124.494C81.4496 124.735 81.4899 125.016 81.4093 125.257C81.2883 125.538 81.1674 125.819 81.0464 126.14C80.9658 126.381 80.9254 126.662 80.7641 126.823C80.119 127.626 80.0384 128.67 79.5142 129.553C79.0303 130.396 78.9497 131.44 78.5868 132.403C78.3449 133.046 77.9417 133.608 77.5385 134.21C77.3369 134.491 77.0949 134.772 76.8933 134.973H77.0546Z" fill="#A7E92F"/>
<path d="M92.0931 73.1843C92.3753 73.2245 92.6575 73.2646 93.0204 73.3449C92.9398 73.1442 92.8592 73.0237 92.7382 72.823C93.3027 73.104 93.7865 73.3449 94.3107 73.626C94.351 73.5055 94.472 73.3449 94.5526 73.2245C94.9558 73.626 95.359 74.0676 95.7219 74.5092C96.2864 75.1516 96.3671 75.8743 96.1655 76.6772C95.9639 77.681 95.7219 78.7248 95.48 79.7285C95.2784 80.5315 95.0768 81.3746 94.8752 82.1776C94.8349 82.3783 94.6736 82.5389 94.5526 82.7396C94.472 82.9002 94.4317 83.0608 94.3107 83.2214C94.1897 83.382 94.0688 83.5828 93.9478 83.7434C93.343 84.5062 92.8188 85.3493 92.1334 85.9917C91.4076 86.6742 91.327 87.5976 90.9237 88.4407C90.6415 89.0028 90.3593 89.5649 90.0367 90.1269C89.9157 90.3678 89.7948 90.6489 89.6738 90.8898C89.6335 91.0102 89.5125 91.1708 89.4319 91.1708C88.6255 91.2109 88.1013 91.8132 87.4965 92.1745C87.2546 92.3351 86.8917 92.3351 86.5691 92.3752C86.3272 92.3752 86.0449 92.2949 85.7627 92.2548C85.4401 90.6087 85.4401 89.0028 86.0449 87.3969C86.2868 84.8274 87.0529 82.3783 87.9803 79.9694C88.9077 77.5204 90.1173 75.1516 92.0527 73.2646L92.0931 73.1843Z" fill="#A7E92F"/>
<path d="M55.5229 27.4159C55.7245 27.4159 55.9261 27.4159 56.047 27.4159C56.047 27.4159 56.047 27.6969 56.047 27.7371C55.8857 27.7772 55.6438 27.8575 55.5229 27.7772C55.2406 27.6568 55.039 27.4159 54.7971 27.2553C54.3401 27.4426 54.0041 27.4025 53.7891 27.1348C54.5552 26.8538 55.4422 27.0144 55.5229 27.4159Z" fill="#A7E92F"/>
<path d="M90.2385 45.4023C89.9966 45.9644 89.7547 46.5265 89.4724 47.1287C89.1499 46.5666 89.3111 46.0447 90.2385 45.4023Z" fill="#A7E92F"/>
<path d="M16.5716 65.9587C16.5716 65.9587 16.249 66.1995 15.9668 66.4003C16.249 65.7178 16.4506 65.1155 16.6926 64.5535C16.7732 64.5535 16.8539 64.5535 16.8942 64.5936C16.8942 64.7141 16.8942 64.8747 16.8539 64.9951C16.7732 65.3163 16.6523 65.6776 16.5716 65.9988V65.9587Z" fill="#A7E92F"/>
</svg>
