<?xml version="1.0" encoding="utf-8"?>
<!-- Generator: Adobe Illustrator 26.5.0, SVG Export Plug-In . SVG Version: 6.00 Build 0)  -->
<svg version="1.1" id="Layer_1" xmlns="http://www.w3.org/2000/svg" xmlns:xlink="http://www.w3.org/1999/xlink" x="0px" y="0px"
	 viewBox="0 0 1080 1080" style="enable-background:new 0 0 1080 1080;" xml:space="preserve">
<style type="text/css">
	.st0{fill:#FFFFFF;}
	.st1{fill:#A5E82F;}
	.st2{fill:#C9C9C9;}
	.st3{fill:#FEC8C7;}
</style>
<g id="Layer_1_00000064334890407518240810000003154703156506483072_">
	<g>
		<path d="M476.23,836.71c0,0,25.67,9.14,67.08,14.79s85.15,7.69,85.15,7.69l-4.96-26.23l-135.15-16.09L476.23,836.71z"/>
	</g>
	<g>
		<path d="M571.83,696.02c1.41,5.36,167.43,20.02,167.43,20.02l79.06,7.65l65.98-17.79l-21.09-37.55l-25.69-15.53l-184.09-10.73
			l-48.64,23.44L571.83,696.02z"/>
	</g>
	<g>
		<polygon class="st0" points="585.16,699.04 695.5,644.91 721.38,646.4 633.61,700.25 		"/>
	</g>
	<g>
		<polygon class="st0" points="652.58,704.52 735.03,646.05 739.71,646.73 667.83,705.62 		"/>
	</g>
	<g>
		<polygon class="st0" points="791.67,724.93 841.36,656.57 846.05,657.19 806.93,725.86 		"/>
	</g>
	<g>
		<path class="st1" d="M909.52,759.41c-0.53-13.15-9.53-47.42-13.18-52.65c-3.65-5.23-10.25-5.03-11.34-7.69
			c-1.08-2.66-10.05-31.95-38.44-46.54c-28.39-14.59-166.41-20.31-201.03-10.45s-84.5,55.41-84.5,55.41s-28.53,10.65-51.4,20.64
			c-22.32,9.75-29.71,19.98-29.71,19.98s12.5,11.99,12.62,17.35c0.05,2.19-2.89,4.73-11.83,6.05c-8.94,1.31-15.51-6.57-15.51-6.57
			s0.79,70.33,1.58,72.3c0.79,1.97,5.49,8.13,9.46,9.46c6.47,2.18,12-12.13,15.97-14.04c6.24-3,116.14,16.02,119.69,18.38
			c3.55,2.37,13.01,16.56,16.56,18.14s93.07,0.92,95.7-1.97c2.63-2.89-2.21-27.55,2.63-52.06c3.32-16.79,10.91-34.11,26.29-38.85
			c15.38-4.73,25.81,9.68,29.97,26.42c6.09,24.5-1.38,44.17-0.59,45.55s90.18-23.73,92.61-26.41c0.96-1.06-1.24-10.85-0.85-21.69
			c0.39-10.85,5.51-29.79,15.53-32.89c7.78-2.41,13.55,5.22,14.4,16.24c0.88,11.45-2,26.12-0.16,21.12
			C905.84,789.65,910.04,772.56,909.52,759.41z M708.73,774.59c-7.69,8.08-73.75,12.23-83.61,8.28c-9.86-3.94-20.9-9.46-20.31-13.21
			c0.5-3.17,31.16-11.4,55.61-13.98c24.45-2.58,49.3-6.72,52.65-4.55C716.42,753.3,716.42,766.51,708.73,774.59z M741.06,707.55
			c-11.83,0.99-68.82-6.31-88.54-8.28c-15.58-1.56-57.01-1.64-73.72-1.6c-2.52,0.01-3.69-3.11-1.8-4.77
			c5.02-4.39,13.39-11.4,24.24-19.46c18.34-13.61,37.42-23.37,51.62-26.33s130.31,1.33,133.84,8.85c0.57,1.21-3.12,5.13-13.11,19.06
			C764.79,687.29,752.89,706.57,741.06,707.55z M874.94,705.19c-2.37,4.34-60.93,10.85-60.93,10.85s0.34-4.8-9.07-9.66
			c-17.16-8.87-37.86,4.34-37.86,4.34s32.01-45.16,36.48-50.02c6.4-6.96,26.08-6.16,44.42,0.94S877.31,700.85,874.94,705.19z"/>
	</g>
	<g>
		<path d="M792.17,732.85c-9.81,0-20.92-0.58-22.86-0.69c-0.83-0.05-1.46-0.75-1.42-1.58c0.04-0.83,0.73-1.44,1.58-1.42
			c8.53,0.47,31.68,1.34,36.38-0.2c5.42-1.78,6.59-6.86,6.64-7.08c0.18-0.81,0.97-1.32,1.78-1.15c0.81,0.17,1.32,0.96,1.15,1.77
			c-0.06,0.28-1.54,6.97-8.64,9.31C804.39,732.6,798.55,732.85,792.17,732.85z"/>
	</g>
	<g>
		<path class="st0" d="M808.29,810.94c-4.56,0-7.66-2.83-8.54-7.87c-1.41-7.99,4.87-19.55,16-29.45
			c10.36-9.21,22.16-14.93,33.81-16.69c-0.07-3.6-1.91-5.49-5.99-6.24c-30.39-5.57-58.03,14.18-58.31,14.39l-3.53-4.86
			c1.21-0.88,30.04-21.46,62.91-15.43c6.69,1.23,10.57,5.4,10.89,11.58c5.13-0.18,10.2,0.44,15.03,1.89l-1.72,5.75
			c-2.42-0.73-7.41-1.87-14.02-1.53c-4.76,18.46-31.6,47.63-45.9,48.43C808.71,810.93,808.5,810.94,808.29,810.94z M848.4,763.25
			c-8.33,1.56-18.32,5.65-28.67,14.85c-9.31,8.28-15.1,18.12-14.08,23.92c0.5,2.8,1.67,2.97,2.94,2.9
			C818.81,804.36,842.85,779.78,848.4,763.25z"/>
	</g>
	<g>
		<path d="M760.46,877.26c-0.59,0-1.18-0.04-1.77-0.11c-7.49-0.93-13.69-7.72-17.48-19.13c-3.66-11.03-4.67-25.19-2.85-39.85
			c3.88-31.17,18.86-54.12,34.15-52.21c15.27,1.9,24.2,27.81,20.33,58.98C789.11,854.91,775.1,877.26,760.46,877.26z M770.72,768.85
			c-12.92,0-25.91,21.7-29.39,49.69c-1.77,14.23-0.8,27.92,2.72,38.54c3.4,10.24,8.73,16.32,15,17.1
			c13.37,1.66,27.2-20.59,30.81-49.6c3.61-29.01-4.34-53.97-17.72-55.63C771.67,768.88,771.19,768.85,770.72,768.85z M739.84,818.35
			L739.84,818.35L739.84,818.35z"/>
	</g>
	<g>
		<path d="M763.88,845.11c-0.15,0-0.3-0.01-0.45-0.03c-5.26-0.66-6.62-12.29-5.23-23.44c1.35-10.83,5.31-21.47,10.36-21.47
			c0.15,0,0.3,0.01,0.45,0.03c1.73,0.21,4.03,1.77,5.15,7.93c0.77,4.26,0.8,9.76,0.08,15.5
			C772.9,834.47,768.93,845.11,763.88,845.11z M768.56,803.18c-1.76,0-5.84,6.45-7.38,18.84c-1.57,12.59,0.91,19.87,2.62,20.09
			c0.03,0,0.05,0,0.08,0c1.76,0,5.84-6.45,7.38-18.84c0.68-5.45,0.66-10.63-0.06-14.6c-0.75-4.18-2.01-5.42-2.56-5.49
			C768.62,803.18,768.59,803.18,768.56,803.18z"/>
	</g>
	<g>
		<path d="M880.99,825.44c-0.4,0-0.81-0.02-1.21-0.08c-5.08-0.63-9.27-5.17-11.8-12.79c-2.4-7.24-3.07-16.53-1.88-26.14l0,0
			c1.19-9.61,4.11-18.45,8.22-24.88c4.32-6.76,9.48-10.15,14.57-9.51c5.08,0.63,9.27,5.17,11.8,12.79
			c2.41,7.24,3.07,16.53,1.88,26.14s-4.11,18.45-8.22,24.88C890.38,822.09,885.68,825.44,880.99,825.44z M887.73,754.98
			c-3.6,0-7.51,2.94-10.87,8.2c-3.87,6.07-6.63,14.46-7.77,23.64l0,0c-1.14,9.18-0.52,17.99,1.75,24.82
			c2.11,6.36,5.51,10.28,9.32,10.76c3.82,0.47,8.06-2.5,11.67-8.15c3.87-6.07,6.63-14.46,7.77-23.64
			c1.14-9.18,0.52-17.99-1.75-24.82c-2.11-6.36-5.51-10.28-9.32-10.76C888.27,754.99,888,754.98,887.73,754.98z M867.6,786.63
			L867.6,786.63L867.6,786.63z"/>
	</g>
	<g>
		<path d="M883.23,804.54c-0.12,0-0.24-0.01-0.36-0.02c-3.93-0.49-4.75-8.54-3.85-15.82v0c0.9-7.27,3.68-14.9,7.6-14.39
			c1.3,0.16,3.01,1.26,3.79,5.58c0.51,2.82,0.53,6.45,0.06,10.23c-0.47,3.78-1.38,7.3-2.56,9.91
			C886.27,803.68,884.52,804.54,883.23,804.54z M882.01,789.07c-0.97,7.82,0.53,12.15,1.27,12.48c0.74-0.14,3.26-3.97,4.23-11.79
			c0.97-7.83-0.53-12.15-1.27-12.48C885.5,777.42,882.98,781.25,882.01,789.07L882.01,789.07z"/>
	</g>
	<g>
		<path d="M746.44,876.32c-0.02,0-0.04,0-0.06,0c-0.91-0.04-22.42-1.01-31.43-7.18c-5.24-3.59-6-6.73-6.07-7.08
			c-0.16-0.81,0.36-1.6,1.17-1.77c0.81-0.15,1.58,0.35,1.76,1.14c0.03,0.11,0.71,2.41,4.83,5.23c8.29,5.69,29.64,6.65,29.86,6.66
			c0.83,0.04,1.47,0.73,1.44,1.56C747.91,875.69,747.24,876.32,746.44,876.32z"/>
	</g>
	<g>
		<path d="M869.71,824.49c-0.08,0-0.16-0.01-0.24-0.02l-8.66-1.41c-0.82-0.13-1.37-0.9-1.24-1.72c0.13-0.82,0.9-1.38,1.72-1.24
			l8.66,1.41c0.82,0.13,1.37,0.9,1.24,1.72C871.07,823.97,870.43,824.49,869.71,824.49z"/>
	</g>
	<g>
		<path d="M567.84,774.38c-48.08,0-65.74-11.82-66.59-12.41c-0.66-0.46-0.83-1.37-0.37-2.04c0.46-0.66,1.37-0.83,2.03-0.37
			c0.09,0.06,6.15,4.14,20.55,7.47c13.34,3.09,36.76,6.15,72.55,3.19c0.8-0.07,1.51,0.53,1.58,1.34c0.07,0.8-0.53,1.51-1.34,1.58
			C585.79,774.01,576.34,774.38,567.84,774.38z"/>
	</g>
	<g>
		<path class="st1" d="M846.35,655.86c-0.15,1.69-0.14,61.86-0.14,61.86l9.02-2.46l-3.01-57.64L846.35,655.86z"/>
	</g>
	<g>
		<path d="M596.16,762.23c-0.17,0-0.34-0.03-0.5-0.09c-0.22-0.08-22.34-8.09-49.08-11.83c-26.48-3.71-43.01,2.17-43.17,2.24
			c-0.76,0.28-1.6-0.11-1.88-0.87c-0.28-0.76,0.11-1.6,0.87-1.88c0.69-0.25,17.32-6.2,44.59-2.39c27.06,3.79,49.46,11.9,49.68,11.99
			c0.76,0.28,1.15,1.12,0.87,1.88C597.32,761.87,596.76,762.23,596.16,762.23z"/>
	</g>
	<g>
		<path d="M602.07,824.13c-0.02,0-0.04,0-0.05,0c-3-0.07-28.58-3.24-52.65-6.52c-48.9-6.67-50.63-8.02-51.28-8.53
			c-3.18-2.48-17.57-27.7-20.42-32.73c-0.4-0.7-0.15-1.6,0.55-1.99c0.7-0.4,1.6-0.15,1.99,0.55c6.44,11.36,17.4,29.93,19.63,31.83
			c1.69,0.8,15.86,3.34,50.71,8.08c25.47,3.46,49.02,6.32,51.53,6.38c0.01,0,0.02,0,0.03,0c3.45,0,24.68-13.41,42.96-26.06
			c0.66-0.46,1.58-0.29,2.04,0.37c0.46,0.67,0.29,1.58-0.37,2.04C640.32,802,608.04,824.13,602.07,824.13z"/>
	</g>
	<g>
		<path class="st1" d="M214.09,478.98c0,0-30.34-13.66-51.74-7.02s-29.02,36-32.12,50.69c-3.11,14.68-8.56,60.24-7.44,61.84
			c1.13,1.6,0.22-2.6,16.19-4.8c21.84-3.01,63.06,35.01,63.06,35.01s-1.42,39.04,5.55,37.19c8.19-2.18,67.03-70.7,74.65-82.56
			c3.84-5.98-1.75-26.54-3.07-29.74s-1.2-10.84-0.14-13.69c2.03-5.5,7.62-8.89,18.83-13.98l-26.88-15.81c0,0,0.14,12.28-11.19,12.27
			C228.18,508.36,214.09,478.98,214.09,478.98z"/>
	</g>
</g>
<g id="Layer_2_00000131333006856282919060000010387118807101686193_">
	<g>
		<path class="st2" d="M229.21,925.29h147.05c10.17,0,18.02-7.85,16.69-16.7c-6.81-45.38-25.92-168.63-38.03-178.66
			c-44.27-36.73-120.12-4.25-139.48,10.04s-34.76,59.46-32.12,83.4c2.06,18.65,21.47,70.1,29.95,91.93
			C215.6,921.27,222.01,925.29,229.21,925.29z"/>
	</g>
	<g>
		<path class="st1" d="M537.05,446.02h-37.91c-3.72,0-7.05,2.33-8.32,5.83l-29.14,80.05c-2.1,5.78,2.17,11.88,8.32,11.88h37.91
			c2.91,0,5.58-1.43,7.21-3.73l-0.81-0.26c0,0-23.74-10.5-22.52-15.26s22.77,1,22.77,1s-24.27-26.78-19.77-30.63
			s25.46,10.77,25.46,10.77v-7.92c0,0-4.7-20.64,1.06-19.52s11.97,12.84,11.97,12.84l0,0l12.07-33.17
			C547.48,452.13,543.2,446.02,537.05,446.02z"/>
	</g>
	<g>
		<g>
			<path d="M896.66,661.38c-0.83,0-1.5-0.67-1.5-1.5V378.36l-94.35-66.04v301.14c0,0.83-0.67,1.5-1.5,1.5s-1.5-0.67-1.5-1.5V309.44
				c0-0.56,0.31-1.07,0.81-1.33c0.49-0.26,1.09-0.22,1.55,0.1l97.35,68.14c0.4,0.28,0.64,0.74,0.64,1.23v282.3
				C898.16,660.71,897.49,661.38,896.66,661.38z"/>
		</g>
		<g>
			<path d="M585.16,639.16c-0.83,0-1.5-0.67-1.5-1.5V455.45c0-0.49,0.24-0.95,0.64-1.23l97.34-68.14c0.68-0.47,1.61-0.31,2.09,0.37
				c0.48,0.68,0.31,1.61-0.37,2.09l-96.7,67.69v181.43C586.66,638.49,585.99,639.16,585.16,639.16z"/>
		</g>
		<g>
			<path d="M682.5,605.47c-0.83,0-1.5-0.67-1.5-1.5V251.03c0-0.83,0.67-1.5,1.5-1.5h146.02c0.83,0,1.5,0.67,1.5,1.5v38.94
				c0,0.83-0.67,1.5-1.5,1.5s-1.5-0.67-1.5-1.5v-37.44H684v351.44C684,604.8,683.33,605.47,682.5,605.47z"/>
		</g>
		<g>
			<path d="M896.66,418.02h-54.3c-0.83,0-1.5-0.67-1.5-1.5s0.67-1.5,1.5-1.5h54.3c0.83,0,1.5,0.67,1.5,1.5
				S897.49,418.02,896.66,418.02z"/>
		</g>
		<g>
			<path d="M896.66,466.69h-54.3c-0.83,0-1.5-0.67-1.5-1.5s0.67-1.5,1.5-1.5h54.3c0.83,0,1.5,0.67,1.5,1.5
				S897.49,466.69,896.66,466.69z"/>
		</g>
		<g>
			<path d="M896.66,515.36h-54.3c-0.83,0-1.5-0.67-1.5-1.5s0.67-1.5,1.5-1.5h54.3c0.83,0,1.5,0.67,1.5,1.5
				S897.49,515.36,896.66,515.36z"/>
		</g>
		<g>
			<path d="M993.95,614.96h-54.3c-0.83,0-1.5-0.67-1.5-1.5s0.67-1.5,1.5-1.5h54.3c0.83,0,1.5,0.67,1.5,1.5
				S994.78,614.96,993.95,614.96z"/>
		</g>
		<g>
			<path d="M993.95,663.64h-54.3c-0.83,0-1.5-0.67-1.5-1.5s0.67-1.5,1.5-1.5h54.3c0.83,0,1.5,0.67,1.5,1.5
				S994.78,663.64,993.95,663.64z"/>
		</g>
		<g>
			<path d="M639.45,486.16h-54.29c-0.83,0-1.5-0.67-1.5-1.5s0.67-1.5,1.5-1.5h54.29c0.83,0,1.5,0.67,1.5,1.5
				S640.28,486.16,639.45,486.16z"/>
		</g>
		<g>
			<path d="M639.45,534.83h-54.29c-0.83,0-1.5-0.67-1.5-1.5s0.67-1.5,1.5-1.5h54.29c0.83,0,1.5,0.67,1.5,1.5
				S640.28,534.83,639.45,534.83z"/>
		</g>
		<g>
			<path d="M639.45,583.5h-54.29c-0.83,0-1.5-0.67-1.5-1.5s0.67-1.5,1.5-1.5h54.29c0.83,0,1.5,0.67,1.5,1.5
				S640.28,583.5,639.45,583.5z"/>
		</g>
		<g>
			<path d="M750.64,437.48H682.5c-0.83,0-1.5-0.67-1.5-1.5s0.67-1.5,1.5-1.5h68.14c0.83,0,1.5,0.67,1.5,1.5
				S751.47,437.48,750.64,437.48z"/>
		</g>
		<g>
			<path d="M750.64,310.94H682.5c-0.83,0-1.5-0.67-1.5-1.5s0.67-1.5,1.5-1.5h68.14c0.83,0,1.5,0.67,1.5,1.5
				S751.47,310.94,750.64,310.94z"/>
		</g>
		<g>
			<path d="M750.64,359.61H682.5c-0.83,0-1.5-0.67-1.5-1.5s0.67-1.5,1.5-1.5h68.14c0.83,0,1.5,0.67,1.5,1.5
				S751.47,359.61,750.64,359.61z"/>
		</g>
		<g>
			<path d="M750.64,486.16H682.5c-0.83,0-1.5-0.67-1.5-1.5s0.67-1.5,1.5-1.5h68.14c0.83,0,1.5,0.67,1.5,1.5
				S751.47,486.16,750.64,486.16z"/>
		</g>
	</g>
	<g>
		<path d="M993.95,760.2c-0.83,0-1.5-0.67-1.5-1.5V560.29h-86.6c-0.83,0-1.5-0.67-1.5-1.5s0.67-1.5,1.5-1.5h88.1
			c0.83,0,1.5,0.67,1.5,1.5V758.7C995.45,759.53,994.78,760.2,993.95,760.2z"/>
	</g>
	<g>
		<path d="M742.94,968.86c-0.57,0-1.11-0.32-1.36-0.87c-0.35-0.75-0.02-1.64,0.73-1.99c0.37-0.17,37.13-17.3,79.6-40.36
			c56.13-30.48,96.71-57.43,117.33-77.93c19.23-19.12,28.53-38.89,26.9-57.17c-1.23-13.77-8.26-22.02-8.33-22.1
			c-0.54-0.62-0.48-1.57,0.15-2.12s1.57-0.48,2.11,0.14c0.31,0.36,7.67,8.93,9.04,23.61c2.27,24.33-13.84,45.92-27.76,59.76
			c-14.52,14.44-46.79,39.77-118.03,78.45c-42.55,23.1-79.39,40.27-79.75,40.44C743.37,968.81,743.15,968.86,742.94,968.86z"/>
	</g>
	<g>
		<path class="st3" d="M239.52,399.56c0,0,15.4,1.21,19.3,18.25c4.83,21.13-9.65,32-9.65,32s-16.44-5.65-23.36-26.73
			c5.08-7.53,2.42-17,2.42-17S232.37,407.66,239.52,399.56z"/>
	</g>
	<g>
		<path d="M393.1,841.52c-0.69,0-1.31-0.48-1.46-1.18c-0.18-0.81,0.33-1.61,1.14-1.79l63.81-14.12c0.81-0.17,1.61,0.33,1.79,1.14
			c0.18,0.81-0.33,1.61-1.14,1.79l-63.81,14.12C393.31,841.51,393.21,841.52,393.1,841.52z"/>
	</g>
	<g>
		<path d="M215.79,299.68c-0.09,0-0.18-0.01-0.26-0.02c-0.36-0.06-35.91-6.7-54.12-38.28c-17.88-31.01-6.06-68.36,15.73-82.48
			c0.69-0.45,1.62-0.25,2.07,0.44s0.25,1.62-0.44,2.07c-9.93,6.43-17.88,18.56-21.28,32.45c-3.84,15.72-1.53,32.06,6.51,46.01
			c17.52,30.38,51.7,36.76,52.04,36.82c0.82,0.15,1.36,0.92,1.21,1.74C217.14,299.17,216.51,299.68,215.79,299.68z"/>
	</g>
	<g>
		<path d="M404.96,541.5c-0.74,0-1.38-0.55-1.48-1.3c-0.11-0.82,0.47-1.58,1.29-1.68c0.14-0.02,15.18-2.58,27.61-33.36
			c6.26-15.52,5.86-36.53,1.71-54.68c-4.43,2.65-9.66,3.12-15.44,1.33c-25.27-7.8-28.17-23.45-25.9-31.47
			c2.43-8.6,10.58-13.21,19.38-10.95c6.08,1.56,11.91,7.57,16.87,17.38c2.7,5.34,5.04,11.65,6.87,18.48
			c0.61-0.63,1.2-1.32,1.77-2.08c7.6-10.13,10.6-30.97,8.02-55.74c-2.62-25.19-10.7-50.12-21.61-66.69
			c-4.82-7.32-9.73-13.62-14.61-18.98c-3.15,3.72-7.11,6.64-11.81,8.62c-12.35,5.21-29.09,3.19-38.96-4.72
			c-5.7-4.56-8.23-10.43-7.12-16.51c1.42-7.82,6.05-12.9,13.03-14.33c7.85-1.6,18.07,1.52,28.77,8.78
			c5.36,3.64,10.69,8.21,15.86,13.56c2.77-4.15,4.87-9.66,5.58-16.93c2.1-21.79-5.34-47.68-20.96-72.9
			c-14.89-24.05-35.37-44.28-56.19-55.51c-28.03-15.12-58.03-19.04-82.32-10.76c-20.82,7.1-36.69,22.64-47.18,46.19
			c-11.25,25.26-10.13,49.9,3.33,73.23c10.09,17.48,23.72,27.63,23.86,27.73c0.67,0.49,0.81,1.43,0.32,2.1
			c-0.49,0.67-1.43,0.81-2.1,0.32c-0.58-0.42-14.21-10.56-24.62-28.55c-9.64-16.66-18.08-43.38-3.53-76.05
			c10.84-24.35,27.31-40.43,48.95-47.81c25.08-8.55,55.95-4.55,84.71,10.96c21.27,11.47,42.16,32.09,57.32,56.58
			c15.96,25.78,23.56,52.33,21.39,74.77c-0.71,7.35-2.93,13.72-6.49,18.84c5.33,5.78,10.46,12.4,15.28,19.72
			c23.58,35.81,30.76,102.87,13.48,125.88c-1.04,1.38-2.15,2.58-3.33,3.6c4.52,18.99,5.08,41.28-1.54,57.69
			c-13.17,32.62-29.31,35.12-29.99,35.22C405.09,541.5,405.02,541.5,404.96,541.5z M407.85,411.85c-5.19,0-10.41,2.88-12.23,9.3
			c-3.67,12.96,9.36,23.3,23.9,27.79c5.3,1.64,9.93,1.12,13.81-1.55c-1.83-7.14-4.24-13.74-7.03-19.27
			c-4.49-8.89-9.79-14.51-14.94-15.83C410.22,412,409.04,411.85,407.85,411.85z M368.79,277.43c-1.29,0-2.5,0.12-3.63,0.35
			c-5.78,1.18-9.47,5.3-10.67,11.92c-1.15,6.34,2.65,10.92,6.05,13.63c9.07,7.27,24.51,9.11,35.92,4.29
			c3.58-1.51,7.58-3.99,10.94-8.03C392.73,284.23,378.59,277.43,368.79,277.43z"/>
	</g>
	<g>
		<path d="M194.58,306.96c-11.69,0-32.15-3.65-46.42-26.33c-0.44-0.7-0.23-1.63,0.47-2.07c0.7-0.44,1.63-0.23,2.07,0.47
			c8.29,13.18,19.59,21.26,33.58,24.01c10.49,2.07,18.65,0.2,18.73,0.18c0.81-0.19,1.61,0.31,1.8,1.12c0.19,0.81-0.31,1.61-1.11,1.8
			C203.6,306.17,200.04,306.96,194.58,306.96z"/>
	</g>
	<g>
		<path d="M195.74,418.28c-0.32,0-0.64-0.1-0.92-0.31c-9.34-7.22-16.01-21.05-17.83-36.98c-1.9-16.67,1.69-33.46,9.87-46.06
			c15.84-24.42,36.84-24.5,41.49-24.19c3.05-3.96,18.87-21.9,50.21-14c28.83,7.27,55.6,32.07,60.96,56.47
			c4.29,19.58-0.83,33.84-5.89,42.35c-5.49,9.25-11.96,13.8-12.23,13.99c-0.68,0.47-1.61,0.3-2.09-0.38
			c-0.47-0.68-0.31-1.61,0.37-2.09c0.25-0.17,24.69-17.72,16.9-53.23c-5.13-23.38-30.94-47.19-58.76-54.21
			c-32.8-8.27-46.92,12.59-47.51,13.49c-0.32,0.48-0.88,0.74-1.45,0.67c-0.06-0.01-5.81-0.7-13.52,1.75
			c-7.1,2.26-17.36,7.74-25.97,21.01c-14.28,22.01-13.73,62.8,7.28,79.04c0.66,0.51,0.78,1.45,0.27,2.1
			C196.63,418.08,196.19,418.28,195.74,418.28z"/>
	</g>
	<g>
		<path class="st3" d="M313.12,417c0,0-7.26,1.49-12.48,14.69s0,27.74,0,27.74s7.23-3.76,10.88-16.21
			C315.17,430.76,313.12,417,313.12,417z"/>
	</g>
	<g>
		<path d="M209.46,439.72c-4.97,0-8.82-2.18-9.04-2.31c-0.72-0.41-0.96-1.33-0.55-2.05c0.41-0.72,1.33-0.96,2.05-0.55
			c0.1,0.06,6.07,3.38,12.06,1.09c4.53-1.73,8.03-6.21,10.4-13.3c1.59-4.78,2.32-9.84,2.36-14.84c-3,0.22-6.13-0.28-9.33-1.5
			c-16.3-6.24-20.89-16.66-19.74-24.34c0.96-6.46,5.81-11.26,11.78-11.68c3.86-0.27,7.74,1.93,11.17,6.36
			c4.83,6.23,8.42,16.6,9.01,27.63c2.71-0.77,5.27-2.29,7.67-4.56c12-11.39,17.03-39.96,10.56-59.94c-0.25-0.79,0.18-1.63,0.97-1.89
			c0.79-0.25,1.63,0.18,1.89,0.97c6.89,21.3,1.59,50.76-11.35,63.04c-2.96,2.81-6.2,4.63-9.65,5.46c0.01,5.47-0.75,11.02-2.49,16.25
			c-2.67,8.01-6.77,13.11-12.2,15.17C213.1,439.44,211.21,439.72,209.46,439.72z M210.09,373.21c-0.14,0-0.28,0-0.42,0.02
			c-4.56,0.32-8.27,4.07-9.03,9.13c-0.97,6.52,3.21,15.49,17.85,21.1c2.85,1.09,5.59,1.53,8.2,1.31
			c-0.47-10.52-3.86-20.42-8.43-26.33C216.39,376.02,213.48,373.21,210.09,373.21z"/>
	</g>
	<g>
		<path d="M313.08,378.08c-8.88,0-21.63-1.89-36.45-9.68c-28.52-14.98-25.39-46.91-25.35-47.23c0.09-0.82,0.83-1.42,1.65-1.33
			c0.82,0.09,1.42,0.83,1.33,1.65c-0.03,0.3-2.92,30.23,23.77,44.25c26.99,14.18,47.2,7.88,47.4,7.81c0.79-0.26,1.63,0.17,1.89,0.96
			c0.26,0.79-0.17,1.63-0.96,1.89C325.95,376.55,321.09,378.08,313.08,378.08z"/>
	</g>
	<g>
		<path d="M237.05,443.22c-0.43,0-0.85-0.18-1.15-0.53c-9.13-10.85-11.45-18.86-11.55-19.2c-0.22-0.8,0.24-1.63,1.04-1.85
			c0.79-0.22,1.62,0.24,1.85,1.04c0.03,0.12,2.3,7.8,10.95,18.08c0.53,0.63,0.45,1.58-0.18,2.11
			C237.73,443.1,237.39,443.22,237.05,443.22z"/>
	</g>
	<g>
		<path d="M282.52,466.79c-13.65,0-22.76-6.97-23.23-7.33c-0.65-0.51-0.77-1.45-0.26-2.11c0.51-0.65,1.45-0.77,2.1-0.26l0,0
			c0.13,0.1,13.03,9.9,30.53,5.57c13.26-3.29,19.96-15.38,21.07-38.05c0.15-2.99,0.12-6.13,0.08-9.46
			c-0.1-10.02-0.22-22.49,4.66-39.31c0.23-0.79,1.06-1.25,1.86-1.02c0.8,0.23,1.25,1.06,1.02,1.86c-4.76,16.39-4.65,28.1-4.54,38.44
			c0.03,3.37,0.06,6.55-0.09,9.64c-1.17,23.86-8.81,37.21-23.35,40.81C288.9,466.44,285.59,466.79,282.52,466.79z"/>
	</g>
	<g>
		<path d="M259.28,509.31c-29.33,0-46.3-29.28-46.48-29.59c-0.27-0.48-0.26-1.07,0.04-1.54c0.06-0.09,5.76-9.2,9.23-21.81
			c3.47-12.64,3.46-29.97,3.46-30.15c0-0.83,0.67-1.5,1.5-1.5c0,0,0,0,0,0c0.83,0,1.5,0.67,1.5,1.49c0,0.73,0.02,17.92-3.56,30.95
			c-3.04,11.02-7.6,19.27-9.1,21.81c2.96,4.71,20.31,30.16,48.06,27.07c0.82-0.1,1.56,0.5,1.66,1.33c0.09,0.82-0.5,1.56-1.33,1.66
			C262.55,509.22,260.9,509.31,259.28,509.31z"/>
	</g>
	<g>
		<path d="M269.06,502.51c-0.08,0-0.15-0.01-0.23-0.02c-0.82-0.13-1.38-0.89-1.25-1.71l5.57-35.87c0.13-0.82,0.9-1.38,1.71-1.25
			c0.82,0.13,1.38,0.89,1.25,1.71l-5.57,35.87C270.43,501.98,269.79,502.51,269.06,502.51z"/>
	</g>
	<g>
		<path d="M290.46,421.23c-0.68,0-1.29-0.46-1.46-1.15c-0.19-0.81,0.31-1.61,1.11-1.81c1.92-0.46,7.51-2.39,8.05-5.18
			c0.57-2.95-0.69-4.77-2.14-6.89c-1.61-2.33-3.43-4.98-2.66-9.19c0.97-5.28,4.22-9.83,8.91-12.47c4.67-2.63,10.16-3.07,15.08-1.21
			c0.77,0.29,1.17,1.16,0.87,1.93c-0.29,0.77-1.16,1.16-1.93,0.87c-4.09-1.55-8.66-1.18-12.54,1.01c-3.91,2.21-6.62,6-7.43,10.4
			c-0.55,2.99,0.72,4.82,2.18,6.95c1.61,2.33,3.43,4.97,2.62,9.16c-1.01,5.18-9.36,7.3-10.31,7.52
			C290.69,421.22,290.57,421.23,290.46,421.23z"/>
	</g>
	<g>
		<path d="M287.36,381.56c-0.52,0-1.02-0.27-1.3-0.74c-0.11-0.18-2.3-3.55-10.07-3.92c-6.86-0.33-10.37,1.86-10.4,1.88
			c-0.7,0.44-1.62,0.25-2.07-0.45c-0.45-0.69-0.26-1.61,0.43-2.07c0.17-0.11,4.27-2.75,12.19-2.36c9.61,0.45,12.41,5.22,12.52,5.42
			c0.41,0.72,0.15,1.64-0.57,2.04C287.87,381.5,287.61,381.56,287.36,381.56z"/>
	</g>
	<g>
		<ellipse transform="matrix(0.155 -0.9879 0.9879 0.155 -158.5207 600.5994)" cx="271.83" cy="392.97" rx="4.36" ry="3.4"/>
	</g>
	<g>
		<ellipse transform="matrix(0.155 -0.9879 0.9879 0.155 -136.2017 637.5447)" cx="304.59" cy="398.39" rx="4.36" ry="3.4"/>
	</g>
	<g>
		<path d="M281.25,445.06c-0.64,0-1.29-0.04-1.96-0.11c-6.63-0.77-10.19-9.75-10.96-15.59c-0.6-4.53,0.27-7.62,2.39-8.47
			c3.75-1.5,17.13,5.16,22.38,9.2c2.41,1.86,3.41,3.3,3.24,4.67C295.85,438.59,289.72,445.06,281.25,445.06z M271.82,423.67
			c-0.26,0.11-1.01,1.63-0.53,5.29c0.8,6.01,4.13,12.52,8.34,13.01c7.44,0.87,13.22-4.8,13.71-7.47c-0.32-0.71-2.77-3.02-8.82-6.2
			C277.92,424.83,272.82,423.35,271.82,423.67z M293.37,434.57L293.37,434.57L293.37,434.57z M271.82,423.68L271.82,423.68
			L271.82,423.68L271.82,423.68z M271.27,422.28L271.27,422.28L271.27,422.28z"/>
	</g>
	<g>
		<path d="M199,619.31c-0.39,0-0.78-0.15-1.08-0.45c-0.24-0.25-24.73-25.17-49.7-31.21c-13.11-3.17-17.28-1.17-18.6,0.3
			c-1.47,1.64-0.66,3.93-0.63,4.03c0.28,0.78-0.12,1.64-0.89,1.92c-0.77,0.28-1.63-0.1-1.92-0.88c-0.06-0.16-1.48-4.05,1.18-7.05
			c3.13-3.53,10.38-3.95,21.57-1.25c13.53,3.27,26.72,11.81,35.4,18.4c9.37,7.11,15.49,13.37,15.74,13.63
			c0.58,0.59,0.56,1.54-0.03,2.12C199.75,619.17,199.38,619.31,199,619.31z"/>
	</g>
	<g>
		<path d="M188.92,760.46c-2.88,0-5.71-0.44-8.47-1.32c-13.82-4.43-24.12-19.11-29.01-41.33c-8.96-40.71-10.56-131.06-10.58-131.97
			c-0.01-0.83,0.65-1.51,1.48-1.53c0.84,0.02,1.51,0.65,1.52,1.47c0.01,0.91,1.61,90.96,10.5,131.37
			c4.58,20.83,14.43,35.09,27,39.12c10,3.2,21.26-0.22,31.71-9.64c28.23-25.45,65.14-110.03,65.51-110.88
			c0.17-0.4,0.52-0.71,0.94-0.84c0.14-0.04,14.48-4.45,19.51-8.06c2.71-1.95,6.19-4.84,9.88-7.9c5.84-4.85,12.47-10.34,18.07-13.81
			c4.17-2.58,8.78-4.51,12.85-6.22c4.72-1.98,9.58-4.02,10.19-5.9c-1.04-0.39-4.45-0.71-15.22,0.41c-8.5,0.88-16.98,3.83-17.07,3.86
			c-0.73,0.25-1.53-0.08-1.86-0.79c-0.32-0.7-0.06-1.54,0.6-1.92c0.08-0.05,8.26-4.82,17.78-9.56c2.46-1.23,4.89-2.25,7.04-3.16
			c4.39-1.86,8.18-3.46,9.76-5.72c0.57-0.81,0.54-1.15,0.54-1.15c-0.51-0.68-5.36-1.14-14.2,1.07c-4.74,1.19-8.97,2.41-12.5,3.57
			c-7.83,5.97-10.74,7.98-12.65,7.06c-1.64-0.79-1.7-2.01-1.65-2.5c0.24-2.41,5.91-5.01,12.99-7.33c0.16-0.12,0.31-0.24,0.46-0.35
			c3.44-2.62,7.33-5.6,11.15-8.21c6.16-4.22,10.93-9.18,11.28-11.71c-2.1-0.78-12.47,2.29-17.7,4.97
			c-11.99,6.15-24.48,15.31-24.61,15.4c-0.6,0.44-1.42,0.38-1.94-0.14c-0.52-0.52-0.6-1.34-0.17-1.94
			c0.4-0.57,9.94-13.89,13.28-17.26c2.87-2.9,9.47-9.56,9.65-15.56c-2.43,0.58-9.88,5.19-16.85,11.48
			c-9.86,8.89-25.02,26.96-25.18,27.14c-0.02,0.03-0.05,0.06-0.08,0.09c-5.18,5.28-31.19,32.35-54.75,58.77
			c-10.12,11.35-17.91,20.47-23.9,27.81c-2.84,17.01-10.29,32.93-16.71,34.33c-1.26,0.27-3.66,0.25-5.48-3.02
			c-0.96-1.73-2.92-5.27,19.37-32.62c0.34-2.17,0.6-4.38,0.78-6.62c1.85-23.7-4.67-103.24-4.74-104.04
			c-0.07-0.83,0.55-1.55,1.37-1.62c0.83-0.06,1.55,0.55,1.62,1.37c0.27,3.28,6.61,80.58,4.74,104.52c-0.05,0.68-0.11,1.36-0.18,2.04
			c5.58-6.7,12.45-14.67,20.89-24.14c23.53-26.4,49.52-53.44,54.81-58.83c0.86-1.02,15.66-18.58,25.43-27.39
			c4.06-3.66,16.52-13.74,20.46-12.11c0.83,0.34,1.34,1.09,1.39,2.04c0.34,6.6-5.13,13.05-10.51,18.49
			c-1.6,1.62-4.87,5.88-7.73,9.71c4.78-3.18,11.28-7.28,17.66-10.55c3.2-1.64,17.06-7.18,20.86-4.74c0.82,0.53,1.26,1.39,1.22,2.37
			c-0.25,5.64-11.34,13.38-12.6,14.25c-1.7,1.17-3.43,2.41-5.12,3.67c1.65-0.45,3.3-0.88,4.9-1.28c4.44-1.11,15.02-3.32,17.42,0.18
			c0.59,0.86,0.97,2.34-0.58,4.54c-2.08,2.96-6.04,4.63-11.05,6.76c-2.21,0.93-4.49,1.9-6.87,3.08c-2.48,1.24-4.88,2.48-7.05,3.63
			c1.9-0.37,3.92-0.69,5.95-0.9c11.3-1.17,16.12-1.04,17.81,0.48c0.5,0.46,0.78,1.06,0.78,1.71c0,3.97-5.34,6.21-12.09,9.05
			c-3.97,1.67-8.46,3.55-12.43,6.01c-5.43,3.36-11.96,8.78-17.73,13.57c-3.73,3.09-7.25,6.02-10.04,8.02
			c-4.83,3.47-16.75,7.35-19.72,8.29c-3.7,8.45-38.25,86.28-65.98,111.29C206.63,756.5,197.58,760.46,188.92,760.46z M200.22,672.35
			c-16.15,20.37-15.9,24.19-15.53,24.85c1.01,1.81,1.89,1.62,2.22,1.55C190.74,697.9,196.93,686.78,200.22,672.35z"/>
	</g>
	<g>
		<path class="st1" d="M355.83,637.66c0,0,9.82,45.55,10.95,66.26s-6.49,22.23-6.49,22.23s-6.82-15.55-43.71-18.56
			s-71.44,11.01-71.44,11.01s33.88-74.82,37.55-77.65c3.67-2.82,1.13,7.06,12.71,13.27s45.46,8.27,51.39,1.88
			C352.73,649.71,355.83,637.66,355.83,637.66z"/>
	</g>
	<g>
		<path class="st0" d="M382.94,910.98c-0.58,0-1.13-0.34-1.38-0.9l-64.94-148.71c-0.33-0.76,0.02-1.64,0.77-1.98
			c0.76-0.33,1.64,0.02,1.97,0.77l64.94,148.71c0.33,0.76-0.02,1.64-0.77,1.98C383.34,910.94,383.14,910.98,382.94,910.98z"/>
	</g>
	<g>
		<path d="M331.08,657.59c-6.69,0-13.82-0.88-18.65-1.78c-6.88-1.28-18.6-4.13-19.82-8.93c-0.37-1.47-0.06-2.83,0.89-3.93
			c3.59-4.14,16.49-3.71,26.68-2.62c11.1,1.19,21.96,5.18,22.42,5.35c0.78,0.29,1.17,1.15,0.89,1.93c-0.29,0.78-1.15,1.18-1.93,0.89
			c-0.11-0.04-10.98-4.03-21.7-5.18c-15.32-1.64-22.49-0.25-24.1,1.61c-0.31,0.35-0.38,0.71-0.25,1.22
			c0.36,1.41,5.41,4.49,17.46,6.72c15.4,2.86,30.11,2.1,32.79-1.68c2.95-4.17,12.09-66.21,17.55-107.2
			c-1.18-2-8.62-12.51-34.72-14.47c-15.15-1.13-25.44,1.99-31.41,4.82c-5.11,2.42-8,5.04-9,6.03l1.65,26.53
			c0.05,0.83-0.58,1.54-1.4,1.59c-0.83,0.05-1.54-0.58-1.59-1.4l-1.69-27.18c-0.02-0.39,0.1-0.77,0.35-1.06
			c0.5-0.6,12.71-14.62,43.31-12.32c30.73,2.3,37.16,15.98,37.42,16.57c0.11,0.25,0.15,0.53,0.12,0.81
			c-1.4,10.51-13.8,102.88-18.14,109.02C345.71,656.45,338.67,657.59,331.08,657.59z"/>
	</g>
	<g>
		<path d="M369.76,545.18c-0.05,0-0.1,0-0.15-0.01c-0.82-0.08-1.42-0.82-1.34-1.64l0.99-9.84c-0.68-1.19-3.24-5.22-8.69-9.28
			c-5.97-4.45-16.73-9.85-34.09-10.28c-30.47-0.74-41.13,11.9-42.74,14.08v10.25c0,0.83-0.67,1.5-1.5,1.5s-1.5-0.67-1.5-1.5v-10.72
			c0-0.27,0.08-0.54,0.22-0.78c0.41-0.68,10.52-16.68,45.6-15.83c35.1,0.86,45.18,20.75,45.59,21.59c0.12,0.25,0.17,0.53,0.14,0.81
			l-1.04,10.3C371.17,544.6,370.52,545.18,369.76,545.18z"/>
	</g>
	<g>
		<path d="M392.97,663.57c-0.43,0-0.85-0.08-1.25-0.25c-1.33-0.54-2.98-2.2-3.23-7.03c-0.24-4.56,1.3-10.7,4.03-17.77
			c-8.7-14.81-29.94-36.21-30.19-36.46c-0.58-0.59-0.58-1.54,0-2.12c0.59-0.58,1.54-0.58,2.12,0c0.98,0.98,20.04,20.18,29.46,35.12
			c14.26-33.81,51.85-85.1,56.11-90.86c-0.05-2.82-0.04-15.75,4.46-23.43c4.79-8.18,10.78-15.9,10.84-15.97
			c0.51-0.65,1.45-0.77,2.1-0.26c0.65,0.51,0.77,1.45,0.26,2.1c-0.06,0.08-5.93,7.64-10.62,15.65c-4.52,7.71-4.04,22.19-4.03,22.34
			c0.01,0.34-0.09,0.68-0.29,0.95c-0.52,0.7-43.03,58.18-56.93,92.67c1.18,2.14,2.11,4.14,2.67,5.93
			c2.52,8.02,0.63,15.17-2.54,18.08C395.01,663.12,393.98,663.57,392.97,663.57z M394.38,642c-2,5.61-3.09,10.46-2.9,14.13
			c0.16,3.12,0.97,4.25,1.37,4.41c0.22,0.09,0.64-0.1,1.06-0.49c2.06-1.9,3.96-7.8,1.7-14.97C395.32,644.12,394.9,643.09,394.38,642
			z"/>
	</g>
	<g>
		<path d="M399.7,714.08c-12.89,0-23.75-6.56-29.96-12.77c-0.59-0.59-0.59-1.54,0-2.12s1.54-0.59,2.12,0
			c10.12,10.11,33.54,21.21,57.19-1.38c10.14-9.69,22.62-34.33,36.09-71.27c10.22-28.02,17.45-53.45,17.52-53.7
			c0.23-0.8,1.06-1.26,1.85-1.03c0.8,0.23,1.26,1.06,1.03,1.85c-1.18,4.16-29.2,102.22-54.43,126.32
			C420.25,710.36,409.4,714.08,399.7,714.08z"/>
	</g>
	<g>
		<path d="M490.09,568.11c-7.76,0-13.88-0.87-14.4-0.94c-0.82-0.12-1.39-0.88-1.27-1.7s0.88-1.39,1.7-1.27
			c0.25,0.04,25.42,3.58,38.33-3.82c12.78-7.34,19.25-29.77,18.52-39.55c-0.09-0.83-2.48-4.17-8.48-9.6
			c-5.39-4.88-11.44-9.41-16.17-12.13c-5.56-3.2-7.24-2.74-7.52-2.61c-0.15,0.07-0.29,0.15-0.35,0.53
			c-0.62,3.71,9.93,20.49,22.25,31.81c0.61,0.56,0.65,1.51,0.09,2.12c-0.56,0.61-1.51,0.65-2.12,0.09
			c-7.28-6.69-24.42-27.07-23.18-34.51c0.22-1.3,0.96-2.29,2.1-2.79c2.19-0.96,5.83,0.11,11.13,3.29
			c9.25,5.56,24.91,19.04,25.25,23.58c0.75,10.05-5.63,34.11-20.02,42.37C508.77,567.1,498.48,568.11,490.09,568.11z"/>
	</g>
	<g>
		<path d="M534.46,515.39c-0.08,0-0.16-0.01-0.24-0.02c-0.82-0.13-1.37-0.9-1.24-1.72c1.13-7,2.45-18.51,1.44-21.56
			c-1.66-4.98-11.89-16.92-14.41-16.92c-0.02,0-0.04,0-0.06,0c-1,1.77,1.28,12.03,5.05,22.69c0.08,0.21,0.1,0.44,0.08,0.67
			l-1.02,9.06c-0.09,0.82-0.83,1.42-1.66,1.32c-0.82-0.09-1.42-0.84-1.32-1.66l0.98-8.72c-3.81-10.83-7.46-24-3.54-26.03
			c0.88-0.45,1.92-0.44,3.11,0.05c5.22,2.12,14.24,14.37,15.65,18.58c1.57,4.71-1.02,21.13-1.32,22.98
			C535.82,514.87,535.18,515.39,534.46,515.39z"/>
	</g>
	<g>
		<path d="M514.38,556.94c-1.31,0-5.21-0.12-15.83-1.01c-10.17-0.86-16.6-3.45-17.63-7.1c-0.29-1.02-0.38-3.02,2.25-4.94
			c3.78-2.78,19.65-1.78,30.23-0.76c-4.58-2.18-10.15-4.81-13.84-6.49c-5.43-2.46-15.36-8.97-14.88-13.56
			c0.09-0.84,0.5-1.54,1.19-2.03c2.5-1.76,8.52-0.4,19.84,2.37l2.16,0.53c11.75,2.86,23.85,9.73,24.36,10.02
			c0.72,0.41,0.97,1.33,0.56,2.05c-0.41,0.72-1.33,0.97-2.05,0.56c-0.12-0.07-12.25-6.96-23.58-9.71l-2.17-0.53
			c-6.68-1.63-15.8-3.86-17.34-2.87c-0.02,1.93,6.36,7.37,13.14,10.45c7.27,3.3,21.74,10.27,21.88,10.33c0.66,0.32,1,1.07,0.79,1.78
			c-0.21,0.71-0.9,1.16-1.63,1.06c-23.59-2.98-35.15-2.06-36.89-0.78c-0.5,0.37-1.31,1.08-1.13,1.71c0.42,1.5,4.77,4.06,14.99,4.92
			c13.31,1.12,15.86,1,15.96,1c0.81-0.05,1.53,0.58,1.59,1.4c0.05,0.82-0.56,1.53-1.38,1.59
			C514.91,556.93,514.75,556.94,514.38,556.94z"/>
	</g>
	<g>
		<path class="st0" d="M256.44,923.97c-0.51,0-1-0.26-1.28-0.72c-0.09-0.15-9.19-15.14-18.16-35.25
			c-8.3-18.62-18.2-45.58-18.2-68.31c0-43.38,21.25-81.94,21.46-82.32c0.4-0.72,1.32-0.98,2.04-0.58c0.72,0.4,0.98,1.32,0.58,2.04
			c-0.21,0.38-21.08,38.28-21.08,80.86c0,22.19,9.75,48.71,17.92,67.05c8.89,19.95,17.91,34.8,18,34.95
			c0.43,0.71,0.21,1.63-0.5,2.06C256.98,923.9,256.71,923.97,256.44,923.97z"/>
	</g>
	<g>
		<path class="st0" d="M236.57,841.59c-1.11,0-1.75-0.08-1.79-0.09c-0.82-0.12-1.39-0.88-1.27-1.7s0.88-1.38,1.7-1.27
			c0.76,0.11,18.84,2.28,30.05-21.74c4.71-10.09,5.1-25.64,1.15-44.97c-3.02-14.75-7.54-26.58-7.59-26.7
			c-0.3-0.77,0.09-1.64,0.86-1.94c0.77-0.3,1.64,0.09,1.94,0.86c0.75,1.96,18.35,48.33,6.36,74.02
			C257.88,839.68,241.9,841.59,236.57,841.59z"/>
	</g>
	<g>
		<path d="M125.91,590.08c-2.13,7.13,16.46,14.65,16.46,14.65v-19.77C142.37,584.95,128.75,580.61,125.91,590.08z"/>
	</g>
</g>
</svg>
