<?xml version="1.0" encoding="utf-8"?>
<!-- Generator: Adobe Illustrator 26.5.0, SVG Export Plug-In . SVG Version: 6.00 Build 0)  -->
<svg version="1.1" id="Layer_1" xmlns="http://www.w3.org/2000/svg" xmlns:xlink="http://www.w3.org/1999/xlink" x="0px" y="0px"
	 viewBox="0 0 1080 1080" style="enable-background:new 0 0 1080 1080;" xml:space="preserve">
<style type="text/css">
	.st0{fill:#A5E82F;}
	.st1{fill:#FFFFFF;}
	.st2{fill:#C9C9C9;}
</style>
<g id="Layer_1_00000005231515284193689190000012646710159661850531_">
	<g>
		<path class="st0" d="M517.85,131.03c-1.33,9.73-17.22,18.64-25.51,41.32c-25.91,70.97,23.72,96,19.58,134.78
			c-2.91,27.21-15.21,45.26-37.8,60.31c-22.59,15.06-44.64,11.97-45.4,7.83c-0.75-4.14,56.85-31.62,59.48-70.4
			s-47.44-39.91-63.62-39.15c-16.19,0.75-67.39,12.8-69.65,18.07c-2.26,5.27,3.39,21.46,3.39,21.46s-55.34,23.34-59.86,46.68
			s21.08,55.72,21.08,55.72s-7.91,20.33-17.69,20.33c-9.79,0-82.07-75.67-83.95-89.98c-1.88-14.31,60.99-189.74,74.92-207.06
			S466,86.89,480.68,91.03C495.36,95.17,518.98,122.75,517.85,131.03z"/>
	</g>
	<g>
		<path class="st0" d="M599.45,299.31l19.76-5.93c0,0,10.16,14.12,9.88,29.65c-0.28,15.53-24.56,52.52-34.45,52.52
			s15.16-33.32,13.46-52.24C606.41,304.39,599.45,299.31,599.45,299.31z"/>
	</g>
	<g>
		<path class="st1" d="M255.75,340c-8.42,0-14.15-5.24-15.79-14.53c-2.61-14.75,8.99-36.1,29.54-54.38
			c13.69-12.18,29.54-21.45,45.82-26.79c5.62-1.85,11.19-3.2,16.7-4.06c-0.12-6.67-3.52-10.17-11.07-11.55
			c-16.79-3.08-34.78-2.28-53.45,2.37l-2.68-10.76c20.21-5.04,39.77-5.88,58.13-2.51c12.35,2.27,19.52,9.97,20.12,21.38
			c9.51-0.35,18.79,0.82,27.78,3.52l-3.19,10.62c-8.61-2.58-17.31-3.41-25.84-2.9c-3.72,15.05-15.29,34.27-32.21,53.14
			c-15.29,17.04-37.15,35.56-52.66,36.43C256.53,339.99,256.14,340,255.75,340z M329.85,251.98c-20.54,4.17-39.42,15.33-52.98,27.4
			c-17.19,15.3-27.88,33.46-25.99,44.17c0.91,5.17,3.09,5.48,5.43,5.35C275.18,327.84,319.53,282.51,329.85,251.98z"/>
	</g>
	<g>
		<path d="M396.83,878.26c-50.56,0-102.18-43.09-123.17-107.45c-24.72-75.81,2.28-152.86,60.2-171.75
			c14.22-4.64,29.22-5.49,44.57-2.51c0.81,0.16,1.34,0.95,1.19,1.76c-0.16,0.81-0.95,1.34-1.76,1.19
			c-14.85-2.88-29.34-2.07-43.07,2.41c-56.35,18.38-82.49,93.73-58.28,167.97c24.21,74.23,89.75,119.68,146.1,101.31
			c20.41-6.66,37.53-21,49.52-41.46c0.42-0.71,1.34-0.96,2.05-0.54c0.71,0.42,0.95,1.34,0.54,2.05
			c-12.37,21.11-30.06,35.91-51.18,42.8C414.8,876.9,405.83,878.26,396.83,878.26z"/>
	</g>
	<g>
		<path d="M397.41,859.54c-44.62,0-90.17-38.03-108.69-94.82c-21.82-66.9,2.02-134.89,53.13-151.57c12.56-4.1,25.79-4.84,39.33-2.21
			c0.72,0.14,1.19,0.83,1.05,1.55s-0.83,1.19-1.55,1.05c-13.1-2.54-25.88-1.83-38.01,2.13c-49.72,16.23-72.8,82.72-51.43,148.23
			c21.37,65.51,79.21,105.62,128.93,89.4c18.02-5.88,33.13-18.53,43.71-36.59c0.37-0.63,1.18-0.84,1.81-0.47
			c0.63,0.37,0.84,1.18,0.47,1.81c-10.91,18.62-26.53,31.69-45.17,37.77C413.27,858.34,405.35,859.54,397.41,859.54z"/>
	</g>
	<g>
		<path d="M792.8,1000.18c-27.25,0-55.25-9.3-81.51-27.45c-37.98-26.24-67.76-67.87-83.85-117.21
			c-11.41-34.98-15.03-71.48-10.47-105.55c4.44-33.21,16.4-62.76,34.58-85.46c0.52-0.65,1.46-0.75,2.11-0.23
			c0.65,0.52,0.75,1.46,0.23,2.11c-17.84,22.27-29.58,51.31-33.95,83.98c-4.5,33.63-0.92,69.67,10.35,104.22
			c15.89,48.72,45.26,89.8,82.7,115.68c37.32,25.79,78.18,33.36,115.07,21.33c76.29-24.88,111.71-126.83,78.96-227.27
			c-15.89-48.72-45.26-89.8-82.71-115.68c-37.32-25.79-78.18-33.36-115.06-21.33c-0.79,0.26-1.63-0.17-1.89-0.96
			c-0.26-0.79,0.17-1.63,0.96-1.89c37.79-12.33,79.59-4.61,117.7,21.72c37.98,26.25,67.76,67.87,83.85,117.21
			c33.27,102.01-3.02,205.66-80.88,231.05C817.24,998.28,805.1,1000.18,792.8,1000.18z"/>
	</g>
	<g>
		<path d="M787.18,979.09c-58.72,0.01-118.69-50.08-143.08-124.86c-9.85-30.21-12.98-61.72-9.04-91.13
			c3.84-28.68,14.16-54.21,29.87-73.81c0.52-0.65,1.46-0.75,2.11-0.23c0.65,0.52,0.75,1.46,0.23,2.11
			c-15.36,19.18-25.47,44.19-29.24,72.33c-3.87,28.97-0.79,60.03,8.92,89.81c28.22,86.51,104.62,139.46,170.32,118.04
			c65.7-21.43,96.19-109.25,67.97-195.77c-28.22-86.51-104.62-139.47-170.32-118.04c-0.79,0.26-1.63-0.17-1.89-0.96
			c-0.26-0.79,0.17-1.63,0.96-1.89c67.26-21.94,145.37,31.87,174.1,119.96c28.73,88.09-2.62,177.61-69.89,199.55
			C808.04,977.5,797.62,979.09,787.18,979.09z"/>
	</g>
	<g>
		<path d="M842.68,641.7c-0.33,0-0.66-0.11-0.95-0.32c-28.78-22.23-60.59-33.06-91.98-31.34c-0.85,0.05-1.58-0.61-1.63-1.46
			s0.61-1.58,1.46-1.63c32.14-1.77,64.66,9.29,94.04,31.98c0.68,0.52,0.8,1.5,0.28,2.17C843.6,641.49,843.14,641.7,842.68,641.7z"/>
	</g>
	<g>
		<g>
			<path class="st0" d="M300.18,682.52c4.83,32.08,11.89,64.03,27.87,92.33c13.84,24.66,33.26,45.7,58.94,58.54
				c7.95,4.05,16.61,7.56,26.14,10.39l0.27,1.98c-61.88,5.47-109.34-48.46-117.37-106.29c-2.8-19.11-2.29-38.65,2.23-57.46
				L300.18,682.52L300.18,682.52z"/>
		</g>
	</g>
	<g>
		<g>
			<path class="st0" d="M652.91,746.75c4.08,83.24,39.7,176.79,122.81,208.11c11.59,4.32,24.04,7.53,37.29,9.15l0.41,1.96
				c-13.18,2.36-26.57,1.81-39.7-0.39c-67.24-11.92-113.26-75.92-124.06-140.4c-4.51-26.1-4.48-53,1.31-78.91
				C650.97,746.26,652.91,746.75,652.91,746.75L652.91,746.75z"/>
		</g>
	</g>
	<g>
		<path d="M558.88,204.71c0,0,31.86-20.5,51.84-21.82c19.98-1.32,18.76,3.8,18.76,3.8l1.9,11.01c0,0,20.26-7.7,13.37-21.04
			c-6.89-13.34-40.2-1.84-55.83,6.62S558.88,204.71,558.88,204.71z"/>
	</g>
	<g>
		<path d="M884.37,973.61c-0.45,0-0.89-0.2-1.2-0.57c-0.54-0.66-0.44-1.64,0.22-2.18c19.36-15.79,41.92-52.39,47.56-91.8
			c6.95-48.52-0.56-83.31-0.64-83.66c-0.19-0.83,0.34-1.66,1.18-1.85c0.83-0.19,1.66,0.34,1.85,1.18c0.08,0.36,1.97,9,3.01,23.82
			c0.96,13.65,1.34,35.31-2.33,60.94c-5.75,40.2-28.84,77.59-48.66,93.76C885.06,973.49,884.71,973.61,884.37,973.61z"/>
	</g>
	<g>
		<path d="M443.29,874.41c-0.67,0-1.28-0.45-1.45-1.12c-0.21-0.8,0.27-1.62,1.07-1.83c0.24-0.06,24.62-6.67,36.86-32.24
			c0.36-0.75,1.26-1.07,2-0.71c0.75,0.36,1.06,1.25,0.71,2c-12.86,26.87-37.76,33.57-38.82,33.84
			C443.54,874.39,443.41,874.41,443.29,874.41z"/>
	</g>
	<g>
		<path d="M276.54,635.36c-0.25,0-0.5-0.06-0.73-0.19c-0.72-0.4-0.98-1.32-0.58-2.04c22.18-39.81,51.59-46.73,52.84-47
			c0.81-0.17,1.61,0.33,1.79,1.14c0.18,0.81-0.33,1.61-1.14,1.79c-0.29,0.07-29.38,6.98-50.87,45.54
			C277.58,635.08,277.06,635.36,276.54,635.36z"/>
	</g>
	<g>
		<path d="M468.44,792.67c-0.24,0-0.49-0.06-0.72-0.19l-74.54-40.94c-0.73-0.4-0.99-1.31-0.59-2.04s1.31-0.99,2.04-0.59l74.54,40.94
			c0.73,0.4,0.99,1.31,0.59,2.04C469.48,792.39,468.97,792.67,468.44,792.67z"/>
	</g>
	<g>
		<path d="M429.76,738.06c-0.09,0-0.18-0.01-0.27-0.02l-30.5-5.53c-0.81-0.15-1.36-0.93-1.21-1.74c0.15-0.82,0.93-1.36,1.74-1.21
			l30.5,5.53c0.81,0.15,1.36,0.93,1.21,1.74C431.1,737.55,430.47,738.06,429.76,738.06z"/>
	</g>
</g>
<g id="Layer_2_00000086654866996254430830000010639458831189477537_">
	<g>
		<path class="st2" d="M600.39,483.31c-4.52,0.38-36.89,6.21-39.91,15.25c-3.01,9.04-1.32,15.81-11.29,24.09
			c-9.98,8.28-45.79,5.65-45.59,29.84c0.12,14.22,62.82,2.88,87.38-12.49C615.55,524.63,600.39,483.31,600.39,483.31z"/>
	</g>
	<g>
		<path class="st2" d="M575.17,459.22c0,0-44.99-15.81-58.73-17.88s-54.02,5.46-55.34,11.95c-1.32,6.49,8.47,12.89,14.49,12.89
			s17.88-8.85,40.66-7.72c22.78,1.13,26.73,7.34,38.59,7.72C566.7,466.56,587.41,466.18,575.17,459.22z"/>
	</g>
	<g>
		<ellipse transform="matrix(0.9947 -0.1027 0.1027 0.9947 -18.7244 60.9224)" cx="582.27" cy="212.3" rx="4.17" ry="5.35"/>
	</g>
	<g>
		<ellipse transform="matrix(0.9947 -0.1027 0.1027 0.9947 -17.7548 64.596)" cx="618.43" cy="204.72" rx="4.17" ry="5.35"/>
	</g>
	<g>
		<path d="M524.83,270.99c-5.04,0-10.37-1.43-15.69-4.28c-18.64-9.98-32.42-34.15-35.11-61.56c-2.27-23.12,5.01-46.59,19.99-64.42
			c15.02-17.88,36.32-28.71,59.98-30.5c22.36-1.69,45.15,4.62,64.16,17.77c15.74,10.89,27.38,25.67,29.66,37.65
			c2.24,11.81-1.34,19.8-4.74,24.42c-3.7,5.03-7.92,7.23-8.1,7.32c-0.74,0.38-1.64,0.09-2.02-0.65c-0.38-0.74-0.08-1.64,0.65-2.02
			c0.62-0.32,15.13-8.09,11.26-28.5c-3.96-20.8-41.37-56.72-90.65-52.99c-22.85,1.73-43.42,12.18-57.91,29.43
			c-14.45,17.21-21.49,39.88-19.3,62.19c3.16,32.13,20.04,51.98,33.55,59.21c8.72,4.67,17.38,5.18,24.4,1.45
			c20.53-10.94,14.25-50.83,14.19-51.23c-0.13-0.82,0.42-1.59,1.24-1.72c0.81-0.13,1.59,0.42,1.72,1.24
			c0.07,0.43,1.71,10.63,0.69,22.43c-1.38,15.91-7.06,26.95-16.42,31.94C532.81,270.05,528.91,270.99,524.83,270.99z"/>
	</g>
	<g>
		<path d="M555.12,209.89c-0.36,0-0.73-0.13-1.02-0.4c-0.61-0.56-0.65-1.51-0.08-2.12c0.23-0.25,23.75-25.37,59.68-36.09
			c11.99-3.58,21.26-3.52,27.55,0.17c5.32,3.12,6.39,7.73,6.44,7.92c0.18,0.81-0.33,1.61-1.14,1.79c-0.81,0.18-1.61-0.33-1.79-1.14
			c-0.03-0.14-0.9-3.6-5.12-6.04c-5.46-3.15-14.14-3.1-25.08,0.17c-35.11,10.48-58.11,35-58.34,35.25
			C555.93,209.73,555.52,209.89,555.12,209.89z"/>
	</g>
	<g>
		<path d="M590.13,299.97c-0.82,0-1.48-0.65-1.5-1.47c-0.01-0.83,0.65-1.51,1.47-1.53c29.15-0.52,48.13-14.67,50.78-37.85
			c2.49-21.83-0.49-29.99-7.01-47.89l-0.06-0.15c-6.61-18.14-6.22-30.72-6.2-31.25c0.03-0.83,0.75-1.45,1.55-1.44
			c0.83,0.03,1.47,0.73,1.44,1.55c0,0.12-0.38,12.57,6.02,30.11l0.06,0.15c6.49,17.8,9.75,26.73,7.18,49.26
			c-2.83,24.82-22.91,39.96-53.7,40.51C590.15,299.97,590.14,299.97,590.13,299.97z"/>
	</g>
	<g>
		<path d="M544.04,259.29c0,0,5.24,12.83,18.52,24.12c15.72,13.36,42.92,14.4,42.92,14.4s-17.44,4.83-30.02,2.21
			c-11.84-2.47-26.54-8.11-42.92-30.53C539.31,265.43,544.04,259.29,544.04,259.29z"/>
	</g>
	<g>
		
			<ellipse transform="matrix(0.983 -0.1837 0.1837 0.983 -35.1227 99.2074)" class="st0" cx="517.9" cy="239.17" rx="7.34" ry="9.88"/>
	</g>
	<g>
		
			<ellipse transform="matrix(0.914 -0.4056 0.4056 0.914 -264.3415 374.6892)" class="st0" cx="751.87" cy="811.03" rx="19.58" ry="26.35"/>
	</g>
	<g>
		
			<ellipse transform="matrix(0.914 -0.4056 0.4056 0.914 -264.6902 216.4139)" class="st0" cx="378.26" cy="732.72" rx="11.49" ry="15.47"/>
	</g>
	<g>
		<path d="M615.81,231.92c-0.52,0-1.03-0.27-1.3-0.76c-0.41-0.72-0.16-1.63,0.56-2.05c2.73-1.57,9.51-6.58,8.09-10.94
			c-0.82-2.52-4.45-3.65-7.96-4.73c-4.15-1.28-8.45-2.61-9.43-6.52c-1.69-6.75,6.8-17.4,7.77-18.59c0.52-0.64,1.47-0.74,2.11-0.21
			c0.64,0.52,0.74,1.47,0.21,2.11c-2.38,2.92-8.31,11.48-7.19,15.97c0.57,2.27,3.89,3.3,7.41,4.39c4.04,1.25,8.62,2.67,9.93,6.67
			c2.47,7.56-8.96,14.2-9.45,14.48C616.32,231.86,616.06,231.92,615.81,231.92z"/>
	</g>
	<g>
		<path d="M608.33,253.66c-3.03,0-6.82-0.67-11.09-2.9c-10.78-5.62-10.06-15.53-10.02-15.95c0.07-0.83,0.8-1.44,1.62-1.37
			c0.82,0.07,1.43,0.79,1.37,1.62c-0.03,0.35-0.53,8.37,8.42,13.04c9.12,4.75,15.51,1.47,15.78,1.33c0.73-0.39,1.64-0.11,2.03,0.61
			c0.39,0.73,0.12,1.63-0.6,2.03C615.65,252.17,612.83,253.66,608.33,253.66z"/>
	</g>
	<g>
		<path d="M545.25,317.47c-1.97,0-3.87-0.27-5.68-0.82c-17.85-5.36-15.69-40.33-15.58-41.82c0.06-0.83,0.78-1.45,1.6-1.4
			c0.83,0.06,1.45,0.77,1.4,1.6c-0.02,0.34-2.11,34.06,13.46,38.74c15.76,4.73,33.41-16.07,33.59-16.28
			c0.53-0.63,1.48-0.72,2.11-0.19c0.63,0.53,0.72,1.48,0.19,2.11c-0.19,0.23-4.76,5.66-11.52,10.53
			C557.92,314.94,551.27,317.47,545.25,317.47z"/>
	</g>
	<g>
		<path d="M620.63,354.6c-0.51,0-1-0.26-1.29-0.73c-0.43-0.71-0.2-1.63,0.51-2.06c0.28-0.17,27.63-16.89,27.36-36.96
			c-0.26-20-11.36-26.97-11.83-27.26c-0.71-0.43-0.93-1.35-0.51-2.06s1.34-0.94,2.05-0.51c0.53,0.32,13,8.02,13.29,29.79
			c0.12,9.08-4.86,18.82-14.39,28.16c-7.1,6.96-14.13,11.22-14.43,11.4C621.16,354.53,620.89,354.6,620.63,354.6z"/>
	</g>
	<g>
		<path d="M479.14,456.31c-6.27,0-10.87-1.12-11.26-1.22c-0.8-0.2-1.29-1.02-1.09-1.82c0.2-0.8,1.01-1.29,1.82-1.09
			c0.19,0.05,18.7,4.54,31.88-5.09c13.72-10.02,83.91-70.1,84.62-70.71c0.63-0.54,1.58-0.47,2.12,0.16s0.46,1.58-0.16,2.11
			c-0.71,0.61-70.98,60.77-84.8,70.85C494.79,454.97,485.98,456.31,479.14,456.31z"/>
	</g>
	<g>
		<path d="M383.93,373c-0.21,0-0.43-0.05-0.63-0.14c-6.56-3.07-22.91-14.03-33.21-49.45c-5.82-20.04-6.67-39.09-2.06-46.32
			c9.18-14.4,97.98-21.52,108.07-22.28c0.83-0.05,1.55,0.56,1.61,1.38c0.06,0.83-0.56,1.55-1.38,1.61
			c-0.24,0.02-24.73,1.89-49.99,5.47c-43.94,6.22-53.81,12.34-55.78,15.43c-4.11,6.45-3.1,24.9,2.41,43.87
			c6.9,23.76,18.72,41.55,31.6,47.57c0.75,0.35,1.07,1.24,0.72,1.99C385.03,372.68,384.49,373,383.93,373z"/>
	</g>
	<g>
		<path d="M536.58,524.15c-0.66,0-1.26-0.43-1.44-1.1c-0.22-0.8,0.24-1.62,1.04-1.85c0.11-0.03,10.74-3.08,12.91-9.57
			c2.39-7.16,1.89-24.57-0.92-32.13c-2.48-6.66-7.78-14.4-26.88-15.02c-10.17-0.34-24.52,0.56-36.56,2.29
			c-5.22,0.75-9.21,1.53-12.24,2.28c0.68,3.38,0.02,6.13-1.57,7.68c-1.71,1.68-4.94,2.23-8.85-1.24c-1.73-1.54-1.48-3.06-1.17-3.83
			c0.72-1.8,3.61-3.35,7.82-4.67c-0.79-1.94-2.08-4.09-3.97-6.32c-9.45-11.13-78.56-79.98-79.26-80.68c-0.59-0.58-0.59-1.53,0-2.12
			c0.59-0.59,1.53-0.59,2.12,0c2.85,2.84,69.89,69.63,79.43,80.86c2.19,2.58,3.68,5.1,4.59,7.44c13.94-3.57,37.72-5.09,49.75-4.69
			c16.3,0.54,25.43,5.77,29.6,16.98c3.04,8.18,3.55,26.36,0.96,34.13c-2.67,8-14.45,11.37-14.95,11.51
			C536.85,524.13,536.71,524.15,536.58,524.15z M463.68,472.79c0.01,0,0.06,0.16,0.39,0.46c1.98,1.76,3.8,2.27,4.76,1.34
			c0.83-0.81,1.18-2.51,0.76-4.74C465.2,471.17,463.78,472.3,463.68,472.79L463.68,472.79z"/>
	</g>
	<g>
		<path d="M456.2,506.08c-0.21,0-0.43-0.05-0.63-0.14c-10.78-5.04-15.19-12.53-16.28-14.68
			c-101.93-41.6-148.84-108.93-142.29-139.64c2.55-11.96,11.48-22.87,25.81-31.55c10.72-6.49,20.55-9.43,20.96-9.55
			c0.79-0.24,1.63,0.22,1.86,1.01c0.23,0.79-0.22,1.63-1.01,1.86c-0.39,0.12-38.93,11.82-44.69,38.84
			c-2.51,11.77,3.82,34.34,29.11,62.4c18.53,20.56,52.99,50.1,111.92,74.06c0.37,0.15,0.66,0.44,0.82,0.8
			c0.03,0.08,3.74,8.42,15.07,13.72c0.75,0.35,1.07,1.24,0.72,1.99C457.3,505.76,456.76,506.08,456.2,506.08z"/>
	</g>
	<g>
		<path d="M524.91,526.98c-0.73,0-1.36-0.53-1.48-1.27c-0.13-0.82,0.43-1.59,1.25-1.71c9.95-1.57,15.11-4.77,15.67-17.97
			c0.6-14.06-4.06-21.85-4.11-21.93c-0.43-0.71-0.21-1.63,0.49-2.06c0.7-0.43,1.62-0.22,2.06,0.49c0.21,0.34,5.2,8.58,4.55,23.63
			c-0.64,15.04-7.44,19.11-18.21,20.81C525.06,526.97,524.99,526.98,524.91,526.98z"/>
	</g>
	<g>
		<path d="M509.4,532.45c-0.73,0-1.36-0.53-1.48-1.27c-0.13-0.82,0.43-1.59,1.25-1.71c9.95-1.57,15.11-4.77,15.67-17.97
			c0.6-14.06-4.06-21.85-4.11-21.93c-0.43-0.71-0.21-1.63,0.49-2.06c0.7-0.43,1.62-0.22,2.06,0.49c0.21,0.34,5.2,8.58,4.55,23.63
			c-0.64,15.04-7.44,19.12-18.21,20.81C509.55,532.44,509.48,532.45,509.4,532.45z"/>
	</g>
	<g>
		<path d="M494.9,536.81c-0.73,0-1.36-0.53-1.48-1.27c-0.13-0.82,0.43-1.59,1.25-1.71c9.95-1.57,15.11-4.77,15.67-17.97
			c0.6-14.06-4.06-21.85-4.11-21.93c-0.43-0.71-0.21-1.63,0.49-2.06c0.7-0.43,1.62-0.22,2.06,0.49c0.21,0.34,5.2,8.58,4.55,23.63
			c-0.64,15.04-7.44,19.11-18.21,20.81C495.05,536.8,494.98,536.81,494.9,536.81z"/>
	</g>
	<g>
		<path d="M407.64,245.04c-0.39,0-0.78-0.15-1.07-0.45L301.54,137.63c-0.58-0.59-0.57-1.54,0.02-2.12c0.59-0.58,1.54-0.57,2.12,0.02
			l105.03,106.96c0.58,0.59,0.57,1.54-0.02,2.12C408.4,244.9,408.02,245.04,407.64,245.04z"/>
	</g>
	<g>
		<path class="st2" d="M559.36,583.08c-2.29-8.49-48.82,0-49.97,3.95c-1.14,3.95-4.25,40.94,4.22,42.92
			C522.09,631.92,561.34,590.42,559.36,583.08z"/>
	</g>
	<g>
		<path d="M493.97,511.08c-9.12-15.38-25.2-10.97-35.35-5.51s-12.24,12.93-9.78,20.63c2.46,7.7,8.2,13.39,18.37,14.73
			c7.34,0.97,25.84-4.21,28.1-13.75C497.59,517.65,493.97,511.08,493.97,511.08z"/>
	</g>
	<g>
		<path d="M543.57,469.85c0,0,7.6-3.51,12.69-3.57c10.38-0.12,13.84,13.06,13.41,22.5c-0.42,9.45-17.55,12.55-17.55,12.55
			s0.93-13.65-2.55-22.35C546.09,470.28,543.57,469.85,543.57,469.85z"/>
	</g>
	<g>
		<path d="M710.7,401.81c0,0,13.32-5.63,18.33-4.78c9.18,1.56,11.81,10.4,11.39,17.83S722,427.21,722,427.21s-0.56-9.81-4.05-16.66
			C714.46,403.71,710.7,401.81,710.7,401.81z"/>
	</g>
	<g>
		<path d="M667.5,430.79c-6.86-7.83-19.79-4.89-28.51,0.03c-4.76,2.68-7.45,5.89-8.6,9.35c2.06-1.09,4.46-1.62,7-1.36
			c5.57,0.57,10.14,4.99,10.87,10.54c0.51,3.94-0.86,7.57-3.32,10.13c0.32,0.05,0.63,0.1,0.96,0.14c6.28,0.82,20.45-4.49,24.14-12.4
			C673.15,440.58,670.96,434.74,667.5,430.79z"/>
	</g>
	<g>
		<path d="M709.09,447.18c-0.23,0-0.45-0.01-0.66-0.02c-0.83-0.06-1.45-0.77-1.4-1.6c0.06-0.83,0.78-1.46,1.6-1.4
			c0.39,0.02,9.84,0.44,11.49-11.51c1.58-11.4-8.5-34.91-18.18-38.09c-9.22-3.01-44.33,3.68-63.67,18.54
			c0.71,0.75,1.21,1.47,1.49,2.16c0.52,1.27,0.29,2.27,0,2.89c-2.39,5.19-8.15,8.1-11.23,7.89c-1.41-0.09-2.43-0.81-2.78-1.96
			c-0.28-0.92-1.1-3.59,7.87-11.1c-9.1-6.51-33.42-15.71-43.6-19.56c-6.98-2.64-6.99-2.65-7.37-3.22c-0.46-0.69-0.27-1.62,0.43-2.08
			c0.54-0.36,1.23-0.32,1.72,0.05c0.6,0.3,3.36,1.34,6.28,2.44c18.99,7.18,37.07,14.5,44.89,20.46c0.02-0.02,0.05-0.04,0.07-0.06
			c20.31-15.89,56.78-22.6,66.82-19.31c10.44,3.42,22.16,27.38,20.22,41.35C721.54,444.31,713.61,447.18,709.09,447.18z
			 M628.67,423.04c0.29,0.03,0.91,0.01,1.87-0.33c2.27-0.8,5.17-2.9,6.51-5.82c0.02-0.05,0.08-0.17-0.06-0.49
			c-0.19-0.45-0.53-0.94-1.02-1.45C629.81,420.04,628.82,422.4,628.67,423.04z M585.17,388.55
			C585.17,388.55,585.17,388.55,585.17,388.55C585.17,388.55,585.17,388.55,585.17,388.55z M585.17,388.55
			C585.17,388.55,585.17,388.55,585.17,388.55C585.17,388.55,585.17,388.55,585.17,388.55z"/>
	</g>
	<g>
		<path d="M701.48,451.12c-0.64,0-1.23-0.41-1.43-1.05c-0.25-0.79,0.19-1.63,0.98-1.88c0.24-0.08,6.22-2.24,7.24-13.39
			c1.07-11.81-8-27.95-8.09-28.11c-0.41-0.72-0.16-1.64,0.56-2.04c0.72-0.41,1.64-0.16,2.04,0.56c0.39,0.69,9.63,17.12,8.47,29.87
			c-1.21,13.26-8.99,15.87-9.32,15.97C701.78,451.1,701.63,451.12,701.48,451.12z"/>
	</g>
	<g>
		<path d="M687.22,454.5c-0.73,0-1.37-0.53-1.48-1.28c-0.12-0.82,0.44-1.58,1.26-1.71c0.39-0.06,9.74-1.66,10.75-12.7
			c1.07-11.81-8-27.95-8.09-28.11c-0.41-0.72-0.16-1.64,0.56-2.04c0.72-0.41,1.63-0.16,2.04,0.56c0.39,0.69,9.63,17.12,8.47,29.87
			c-1.22,13.44-13.17,15.38-13.29,15.4C687.37,454.49,687.29,454.5,687.22,454.5z"/>
	</g>
	<g>
		<path d="M668.88,457.41c-1.74,0-2.89-0.17-3.02-0.19c-0.82-0.13-1.38-0.9-1.25-1.71c0.13-0.82,0.9-1.38,1.71-1.25
			c0.68,0.1,16.71,2.38,19.18-13.5c1.77-11.35-7.86-25.46-7.95-25.6c-0.47-0.68-0.3-1.62,0.38-2.09c0.68-0.47,1.62-0.3,2.09,0.38
			c0.43,0.62,10.4,15.25,8.45,27.76c-0.86,5.5-3.23,9.71-7.04,12.49C677.13,456.83,672.04,457.41,668.88,457.41z"/>
	</g>
	<g>
		<path d="M610.72,448.86c-0.12,0-0.24-0.01-0.37-0.05l-77.31-19.39c-0.8-0.2-1.29-1.02-1.09-1.82c0.2-0.8,1.01-1.29,1.82-1.09
			l77.31,19.39c0.8,0.2,1.29,1.02,1.09,1.82C612,448.41,611.39,448.86,610.72,448.86z"/>
	</g>
	<g>
		<path d="M566.35,467.68c-0.62,0-1.2-0.38-1.41-1c-0.28-0.78,0.13-1.64,0.91-1.92l65.67-23.35c0.78-0.28,1.64,0.13,1.92,0.91
			c0.28,0.78-0.13,1.64-0.91,1.92l-65.67,23.35C566.69,467.65,566.52,467.68,566.35,467.68z"/>
	</g>
	<g>
		<path d="M572.44,489.14c-0.58,0-1.13-0.34-1.38-0.91c-0.33-0.76,0.02-1.64,0.78-1.97l68.75-29.67c0.76-0.33,1.64,0.02,1.97,0.78
			c0.33,0.76-0.02,1.64-0.78,1.97l-68.75,29.67C572.84,489.1,572.64,489.14,572.44,489.14z"/>
	</g>
	<g>
		<path d="M668,468.65c-11.83,0-20.51-4.71-20.89-4.92c-0.73-0.4-0.99-1.31-0.59-2.04c0.4-0.73,1.31-0.99,2.04-0.59
			c0.09,0.05,9.03,4.89,20.69,4.52c11.3-0.35,18.68-10.98,18.75-11.08c0.47-0.68,1.4-0.86,2.08-0.4c0.68,0.47,0.86,1.4,0.4,2.08
			c-0.33,0.49-8.29,12-21.14,12.4C668.89,468.64,668.44,468.65,668,468.65z"/>
	</g>
	<g>
		<path d="M375.21,724.23c-0.11,0-0.23-0.01-0.35-0.04c-0.81-0.19-1.31-1-1.12-1.8l25.53-108.41c0.19-0.81,1-1.31,1.8-1.12
			s1.31,1,1.12,1.8l-25.53,108.41C376.51,723.76,375.89,724.23,375.21,724.23z"/>
	</g>
	<g>
		<path d="M515.56,714.65c0,0,12.74-9.6,31.65,7.06c18.92,16.66,25.69,55.34,20.61,73.69s-16.38,20.05-16.38,20.05
			s-17.22-5.65-29.08-28.8C510.51,763.5,515.56,714.65,515.56,714.65z"/>
	</g>
	<g>
		<path class="st2" d="M324.16,425.81c-12.7,6.62-13.55,51.39,3.95,86.68c17.51,35.29,76.24,86.4,84.42,103.62
			c8.19,17.22,12.42,109.27,28.61,137.13s66.26,34.64,73.79,19.95c7.53-14.68-0.86-120.09-11.53-159.62
			c-10.68-39.53-18.68-63.34-24.61-65.32c-5.93-1.98-25.22,0.56-35.01-13.93c-8.89-13.16,1.41-20.25,2.07-28.42
			s-28.6-9.41-68.79-39.91C336.87,435.5,329.84,422.85,324.16,425.81z"/>
	</g>
	<g>
		<path d="M563.09,874.14c-11.32,0-23.81-2.25-35.59-6.45c-24.58-8.77-35.25-20.68-39.43-27c-4.04-6.12-17.96-57.39-18.55-59.57
			c-0.22-0.8,0.26-1.62,1.06-1.84c0.8-0.21,1.62,0.26,1.84,1.06c3.99,14.72,15.02,53.95,18.15,58.7
			c3.97,6.01,14.17,17.35,37.93,25.82c33.9,12.08,58.65,5.15,70.5-5.36c5.88-5.22,8.45-10.66,7.63-16.18
			c-1.1-7.45-8.15-13.22-12.62-15.28c-8.21-3.78-37.4-9.66-37.7-9.72c-0.81-0.16-1.34-0.95-1.18-1.77c0.16-0.81,0.96-1.33,1.77-1.18
			c1.21,0.24,29.83,6.01,38.36,9.94c6.07,2.79,13.14,9.48,14.33,17.56c0.98,6.58-1.92,12.93-8.61,18.86
			c-8.37,7.43-20.23,11.68-34.28,12.31C565.53,874.11,564.32,874.14,563.09,874.14z"/>
	</g>
	<g>
		<path d="M521.32,838.5c-11.65,0-34.15-15.49-36.94-17.44c-0.68-0.47-0.84-1.41-0.37-2.09c0.48-0.68,1.41-0.84,2.09-0.37
			c0.07,0.05,7.46,5.2,15.87,9.79c14.35,7.82,19.71,7.57,21.63,6.73c2.9-1.27,2.41-5.16,1.26-11.41
			c-1.33-7.24-2.98-16.24,5.84-19.81c0.77-0.31,1.64,0.06,1.95,0.83c0.31,0.77-0.06,1.64-0.83,1.95c-6.1,2.46-5.55,8.13-4.01,16.48
			c1.12,6.09,2.27,12.38-3,14.7C523.81,838.3,522.63,838.5,521.32,838.5z"/>
	</g>
	<g>
		<path d="M500.27,802.01c-13.17,0-23.01-7.56-23.16-7.68c-0.65-0.51-0.76-1.45-0.25-2.1c0.51-0.65,1.45-0.76,2.11-0.25
			c0.83,0.65,20.55,15.72,41.08-0.01c0.66-0.5,1.6-0.38,2.1,0.28c0.5,0.66,0.38,1.6-0.28,2.1
			C514.37,800.09,506.9,802.01,500.27,802.01z"/>
	</g>
	<g>
		<path d="M512.92,859.7c0,0-6.08,1.78-6.64,5.35s1.79,9.6,2.92,11.29s34.35,16,52.05,14.68c17.69-1.32,15.43-19.6,15.43-19.6
			s-17.44,3.54-36.67-1.61C520.77,864.68,512.92,859.7,512.92,859.7z"/>
	</g>
	<g>
		<path d="M531.7,698.87c-3.92,0-7.55-0.59-9.99-1.8c-0.74-0.37-1.05-1.27-0.68-2.01c0.37-0.74,1.27-1.05,2.01-0.68
			c4.35,2.15,14.93,2.15,22.06-1.07c2.15-0.97,4.85-2.66,5.53-5.2c1.89-7.02-3.44-11.25-14.71-19.41l-1.16-0.84
			c-11.41-8.27-21.14-24.04-21.55-24.71c-0.43-0.71-0.21-1.63,0.5-2.06c0.71-0.43,1.63-0.21,2.06,0.5
			c0.1,0.16,9.83,15.93,20.75,23.85l1.16,0.84c10.66,7.72,18.35,13.29,15.85,22.62c-0.78,2.91-3.27,5.38-7.19,7.15
			C542.23,697.91,536.72,698.87,531.7,698.87z"/>
	</g>
	<g>
		<path d="M385.42,731.02c-0.15,0-0.3-0.02-0.45-0.07c-0.79-0.25-1.23-1.09-0.98-1.88l24.86-78.26c0.25-0.79,1.1-1.23,1.88-0.98
			c0.79,0.25,1.23,1.09,0.98,1.88l-24.86,78.26C386.65,730.61,386.06,731.02,385.42,731.02z"/>
	</g>
	<g>
		<path d="M742.89,802.05c-0.54,0-1.06-0.29-1.33-0.8l-104.7-199.97l-73.83,130.49c-0.41,0.72-1.32,0.97-2.04,0.57
			c-0.72-0.41-0.98-1.32-0.57-2.04L635.6,597.4c0.27-0.48,0.77-0.77,1.33-0.76c0.55,0.01,1.05,0.32,1.3,0.8l105.98,202.41
			c0.38,0.73,0.1,1.64-0.63,2.02C743.36,802,743.12,802.05,742.89,802.05z"/>
	</g>
	<g>
		<path d="M751.92,798.35c-0.58,0-1.14-0.34-1.38-0.91L646.45,552.42c-0.02-0.05-0.04-0.11-0.06-0.17l-23.53-80.96
			c-0.23-0.8,0.23-1.63,1.02-1.86c0.79-0.23,1.63,0.23,1.86,1.02l23.5,80.87L753.3,796.26c0.32,0.76-0.03,1.64-0.79,1.97
			C752.32,798.31,752.12,798.35,751.92,798.35z"/>
	</g>
	<g>
		<path d="M496.07,570.65c-0.67,0-1.28-0.45-1.45-1.13c-0.21-0.8,0.28-1.62,1.08-1.83l121.94-31.43l-15.67-55.28
			c-0.23-0.8,0.24-1.63,1.03-1.85c0.79-0.23,1.63,0.24,1.85,1.03l16.09,56.76c0.11,0.39,0.06,0.81-0.14,1.16
			c-0.2,0.35-0.54,0.6-0.93,0.71L496.44,570.6C496.32,570.64,496.19,570.65,496.07,570.65z"/>
	</g>
	<g>
		<path d="M554.6,720.69c-0.21,0-0.43-0.04-0.63-0.14c-0.75-0.35-1.08-1.24-0.73-1.99l68.59-147.66L499.3,583.06
			c-0.82,0.1-1.56-0.52-1.64-1.34c-0.08-0.82,0.52-1.56,1.34-1.64l125.15-12.42c0.54-0.07,1.06,0.19,1.37,0.62
			c0.31,0.44,0.36,1.01,0.14,1.5l-69.7,150.04C555.71,720.37,555.16,720.69,554.6,720.69z"/>
	</g>
	<g>
		<path class="st1" d="M465.03,765.17c-0.45,0-0.9-0.21-1.2-0.6c-22.51-29.82-19.36-69.31-16.58-104.15
			c1.59-19.9,2.96-37.09-0.77-49.27c-6.28-20.54-25.42-36.55-45.68-53.5c-12.61-10.54-25.64-21.45-36.28-34.04
			c-27.84-32.95-19.5-68.84-19.41-69.19c0.2-0.8,1-1.3,1.81-1.1c0.8,0.2,1.3,1.01,1.1,1.81c-0.08,0.34-8.03,34.8,18.79,66.55
			c10.47,12.4,23.41,23.22,35.92,33.68c20.61,17.24,40.08,33.53,46.62,54.92c3.89,12.73,2.5,30.18,0.89,50.38
			c-2.74,34.31-5.84,73.2,15.99,102.1c0.5,0.66,0.37,1.6-0.29,2.1C465.66,765.07,465.35,765.17,465.03,765.17z"/>
	</g>
</g>
</svg>
