<svg width="28" height="28" viewBox="0 0 28 28" fill="none" xmlns="http://www.w3.org/2000/svg">
<path fill-rule="evenodd" clip-rule="evenodd" d="M14 28C21.732 28 28 21.732 28 14C28 6.26801 21.732 0 14 0C6.26801 0 0 6.26801 0 14C0 21.732 6.26801 28 14 28ZM14.813 10.862L14.8098 11.9085H17.2667L17.0282 13.9992L14.8122 14L14.8106 20.0667H12.3699V14H10.7333V11.9093L12.3699 11.9085L12.3675 10.677C12.3675 8.9715 12.8639 7.93333 15.0205 7.93333H17.2431V10.0248H15.6919C14.8537 10.0248 14.813 10.3168 14.813 10.862Z" fill="white"/>
</svg>
