<?xml version="1.0" encoding="utf-8"?>
<!-- Generator: Adobe Illustrator 26.5.0, SVG Export Plug-In . SVG Version: 6.00 Build 0)  -->
<svg version="1.1" xmlns="http://www.w3.org/2000/svg" xmlns:xlink="http://www.w3.org/1999/xlink" x="0px" y="0px"
	 viewBox="0 0 1080 1080" style="enable-background:new 0 0 1080 1080;" xml:space="preserve">
<style type="text/css">
	.st0{fill:#A5E72F;}
	.st1{fill:#FFFFFF;}
	.st2{fill:#C8C8C8;}
	.st3{fill:#A4E62F;}
</style>
<g id="Layer_1">
</g>
<g id="Layer_2">
	<g id="Layer_2_00000147193264664611429950000007023119832938511500_">
		<g>
			<g>
				<g>
					<path class="st0" d="M1005.92,442.48h-4.18c-2.54,0-4.6-2.06-4.6-4.6v-18.01c0-2.54,2.06-4.6,4.6-4.6h4.18
						c2.54,0,4.6,2.06,4.6,4.6v18.01C1010.52,440.43,1008.46,442.48,1005.92,442.48z"/>
				</g>
				<g>
					<path class="st0" d="M808.99,192.95v353.08l16.9-4.19c1.15-24.94,9.89-44.34,20.51-44.34c9.15,0,16.91,14.42,19.61,34.38
						l79.14-19.63V259.97L808.99,192.95z"/>
				</g>
				<g>
					<g>
						<path d="M607.45,594.28h-31.12c-3.28,0-6.31-1.05-8.54-2.95c-14.08-11.99-16.45-36.5-16.6-50.03
							c-0.01-0.72,0.57-1.32,1.3-1.33c0,0,0.01,0,0.01,0c0.72,0,1.3,0.58,1.31,1.3c0.15,13.09,2.38,36.75,15.68,48.07
							c1.76,1.5,4.19,2.33,6.84,2.33h31.12c0.72,0,1.31,0.59,1.31,1.31S608.17,594.28,607.45,594.28z"/>
					</g>
				</g>
				<g>
					<path d="M630.81,594.28c-12.33,0-21.13-21.29-21.9-52.97c-0.02-0.72,0.55-1.32,1.28-1.34c0.71-0.04,1.32,0.55,1.34,1.28
						c0.61,25.05,7.43,50.41,19.28,50.41c10.48,0,19.33-22.27,19.33-48.63c0-0.72,0.59-1.31,1.31-1.31s1.31,0.59,1.31,1.31
						C652.76,571.76,643.12,594.28,630.81,594.28z"/>
				</g>
				<g>
					<g>
						<path d="M829.57,598.69h-31.12c-3.28,0-6.31-1.05-8.54-2.95c-6.93-5.91-15.42-18.75-16.5-46.36
							c-0.03-0.72,0.54-1.33,1.26-1.36c0.68,0,1.33,0.54,1.36,1.26c0.47,12.04,3.12,33.84,15.58,44.46c1.76,1.5,4.19,2.33,6.84,2.33
							h31.12c0.72,0,1.31,0.59,1.31,1.31S830.29,598.69,829.57,598.69z"/>
					</g>
				</g>
				<g>
					<path d="M852.94,598.69c-12.31,0-21.95-22.51-21.95-51.25s9.64-51.25,21.95-51.25s21.95,22.51,21.95,51.25
						S865.25,598.69,852.94,598.69z M852.94,498.81c-10.48,0-19.33,22.27-19.33,48.63c0,26.36,8.85,48.63,19.33,48.63
						c10.48,0,19.33-22.27,19.33-48.63C872.27,521.08,863.42,498.81,852.94,498.81z"/>
				</g>
				<g>
					<path d="M852.94,569.54c-6.01,0-9.25-11.39-9.25-22.1c0-10.71,3.24-22.1,9.25-22.1c6.01,0,9.25,11.39,9.25,22.1
						C862.19,558.15,858.95,569.54,852.94,569.54z M852.94,527.96c-3.13,0-6.63,8.33-6.63,19.48c0,11.15,3.5,19.48,6.63,19.48
						c3.13,0,6.63-8.33,6.63-19.48C859.57,536.29,856.07,527.96,852.94,527.96z"/>
				</g>
				<g>
					<path d="M974.87,560.1c-9.69,0-17.28-18.19-17.28-41.4s7.59-41.4,17.28-41.4c9.69,0,17.28,18.19,17.28,41.4
						S984.56,560.1,974.87,560.1z M974.87,479.92c-7.08,0-14.66,15.58-14.66,38.78s7.58,38.78,14.66,38.78
						c7.08,0,14.66-15.58,14.66-38.78S981.95,479.92,974.87,479.92z"/>
				</g>
				<g>
					<path d="M957.25,359.25l23.79,10.29c3.79,1.64,6.42,5.16,6.92,9.26l5.34,43.77c0.28,2.31-1.52,4.35-3.85,4.35H955.7
						c-2.14,0-3.88-1.74-3.88-3.88v-60.23C951.83,360.02,954.69,358.14,957.25,359.25z"/>
				</g>
				<g>
					<path d="M962.15,561.24h-28.97c-0.2,0-0.39-0.04-0.57-0.13c-11.14-5.4-10.37-32.41-10.33-33.55c0.02-0.71,0.61-1.27,1.31-1.27
						c0.01,0,0.03,0,0.04,0c0.72,0.02,1.29,0.63,1.27,1.35c-0.24,7.26,0.85,26.81,8.59,30.98h28.66c0.72,0,1.31,0.59,1.31,1.31
						S962.87,561.24,962.15,561.24z"/>
				</g>
				<g>
					<path d="M976.03,535.2c-4.8,0-7.39-8.54-7.39-16.57s2.59-16.57,7.39-16.57s7.39,8.54,7.39,16.57S980.83,535.2,976.03,535.2z
						 M976.03,504.68c-1.99,0-4.77,5.31-4.77,13.95s2.78,13.95,4.77,13.95s4.77-5.31,4.77-13.95S978.02,504.68,976.03,504.68z"/>
				</g>
				<g>
					<path d="M993.74,531.78c-0.61,0-1.16-0.43-1.28-1.05c-0.14-0.71,0.32-1.4,1.03-1.54l5.1-1.02c1-0.37,1.98-1.08,1.94-3.4
						c-0.15-8.6-0.39-30.41-0.62-51.49c-0.25-22.21-0.5-45.17-0.58-46.23l-6.27-51.56c-0.49-5.04-3.45-9.4-7.93-11.69l-33.9-17.4
						c-0.64-0.33-0.9-1.12-0.57-1.76c0.33-0.64,1.12-0.89,1.76-0.57l33.9,17.4c5.27,2.71,8.76,7.84,9.33,13.74l6.27,51.56
						c0.08,0.65,0.24,14.66,0.59,46.48c0.23,21.08,0.47,42.88,0.62,51.47c0.07,3.8-2.02,5.33-3.78,5.95
						c-0.06,0.02-0.12,0.04-0.18,0.05l-5.2,1.04C993.91,531.77,993.82,531.78,993.74,531.78z"/>
				</g>
				<g>
					<path d="M945.15,513.56c-0.6,0-1.14-0.42-1.28-1.03c-0.15-0.71,0.29-1.41,1-1.56l9.63-2.11c0.71-0.15,1.41,0.29,1.56,1
						c0.15,0.71-0.29,1.41-1,1.56l-9.63,2.11C945.33,513.55,945.24,513.56,945.15,513.56z"/>
				</g>
				<g>
					<g>
						<g>
							<path class="st0" d="M649,510.72l-73.42-2.09c-2.21-0.06-4.01-1.94-4.01-4.2v-77.74c0-2.26,1.79-4.06,4.01-4.02l73.4,1.08
								c2.27,0.03,4.11,1.91,4.11,4.2l0.02,78.76C653.1,508.99,651.26,510.79,649,510.72z"/>
						</g>
						<g>
							<path d="M691.07,512.81c-0.04,0-0.08,0-0.12,0l-41.84-1.19c-2.2-0.06-3.99-1.92-3.99-4.13l-0.02-80.64
								c0-1.09,0.42-2.11,1.19-2.86c0.76-0.75,1.76-1.17,2.83-1.13l41.83,0.61c2.23,0.04,4.05,1.88,4.05,4.11l0.03,81.26
								c0,1.09-0.43,2.1-1.2,2.86C693.1,512.42,692.12,512.81,691.07,512.81z M649.07,424.64c-0.57,0-1.11,0.22-1.51,0.62
								c-0.42,0.42-0.66,0.98-0.66,1.59l0.02,80.64c0,1.26,1.01,2.31,2.25,2.35l41.84,1.19l0,0c0.6,0,1.17-0.2,1.59-0.61
								c0.42-0.41,0.66-0.97,0.66-1.57l-0.03-81.26c0-1.26-1.03-2.31-2.29-2.33l-41.83-0.61
								C649.09,424.64,649.08,424.64,649.07,424.64z"/>
						</g>
						<g>
							<path d="M639.55,511.34c-0.01,0-0.02,0-0.03,0l-67.88-1.93c-2.61-0.07-4.73-2.29-4.73-4.94v-77.99c0-1.3,0.51-2.52,1.42-3.43
								c0.9-0.89,2.07-1.37,3.34-1.35l19.03,0.28c0.49,0.01,0.89,0.41,0.88,0.91c-0.01,0.49-0.41,0.88-0.89,0.88c0,0-0.01,0-0.01,0
								l-19.03-0.28c-0.79,0-1.51,0.29-2.06,0.83c-0.57,0.57-0.89,1.33-0.89,2.16v77.99c0,1.69,1.34,3.11,2.99,3.16l67.88,1.93
								c0.49,0.01,0.88,0.42,0.87,0.92C640.43,510.96,640.03,511.34,639.55,511.34z"/>
						</g>
						<g>
							<polygon class="st1" points="607.93,500.52 577.66,499.71 577.66,488.09 607.93,488.85 							"/>
						</g>
					</g>
					<g>
						<g>
							<path class="st0" d="M753.88,513.71l-75.87-2.16c-2.29-0.07-4.14-1.98-4.14-4.27l-0.03-79.02c0-2.29,1.85-4.12,4.14-4.09
								l75.85,1.11c2.34,0.03,4.25,1.95,4.25,4.27l0.05,80.07C758.12,511.94,756.22,513.77,753.88,513.71z"/>
						</g>
						<g>
							<path d="M797.36,515.83c-0.04,0-0.08,0-0.12,0h0l-43.25-1.23c-2.26-0.06-4.1-1.94-4.1-4.18l-0.05-81.98
								c0-1.09,0.43-2.12,1.2-2.88c0.78-0.77,1.86-1.2,2.93-1.16l43.23,0.63c2.29,0.04,4.16,1.91,4.16,4.16l0.06,82.62
								c0,1.1-0.43,2.12-1.21,2.88C799.46,515.42,798.45,515.83,797.36,515.83z M797.29,514.04c0.64,0,1.24-0.21,1.68-0.64
								c0.43-0.42,0.67-0.99,0.67-1.59l-0.06-82.62c0-1.29-1.08-2.36-2.4-2.38l-43.23-0.63c-0.01,0-0.03,0-0.04,0
								c-0.61,0-1.18,0.23-1.61,0.65c-0.43,0.42-0.67,0.99-0.67,1.61l0.05,81.98c0,1.29,1.06,2.36,2.36,2.4L797.29,514.04z"/>
						</g>
						<g>
							<path d="M744.11,514.32c-0.01,0-0.02,0-0.03,0l-70.13-2c-2.68-0.07-4.86-2.32-4.86-5.01l-0.03-79.27
								c0-1.31,0.51-2.54,1.43-3.45c0.92-0.91,2.19-1.37,3.46-1.39l19.66,0.29c0.49,0.01,0.89,0.41,0.88,0.91
								c-0.01,0.49-0.41,0.88-0.89,0.88c0,0-0.01,0-0.01,0l-19.66-0.29c-0.83,0.01-1.6,0.3-2.18,0.87c-0.58,0.57-0.9,1.35-0.9,2.18
								l0.03,79.27c0,1.73,1.4,3.18,3.12,3.23l70.13,2c0.49,0.01,0.88,0.42,0.87,0.92C744.99,513.94,744.59,514.32,744.11,514.32z"
								/>
						</g>
						<g>
							<polygon class="st1" points="743.03,504.17 727.19,503.74 727.18,481.51 743.01,481.88 							"/>
						</g>
					</g>
					<g>
						<g>
							<path class="st0" d="M692.74,418.64l-74.42-1.02c-2.24-0.03-4.06-1.9-4.06-4.17l-0.01-78.23c0-2.27,1.82-4.11,4.06-4.11h74.4
								c2.3,0,4.16,1.86,4.16,4.16l0.03,79.26C696.9,416.83,695.04,418.67,692.74,418.64z"/>
						</g>
						<g>
							<path d="M735.34,420.12c-0.02,0-0.03,0-0.05,0c0,0,0,0,0,0l-42.41-0.58c-2.23-0.03-4.05-1.87-4.05-4.1l-0.03-81.16
								c0-2.24,1.82-4.06,4.05-4.06h42.4c2.26,0,4.1,1.83,4.1,4.08l0.04,81.78c0.01,1.08-0.42,2.1-1.18,2.86
								C737.44,419.7,736.42,420.12,735.34,420.12z M735.31,418.33c0.6-0.02,1.2-0.23,1.64-0.66c0.43-0.42,0.66-0.99,0.66-1.59
								l-0.04-81.79c0-1.27-1.04-2.3-2.32-2.3h-42.4c-1.25,0-2.27,1.02-2.27,2.28l0.03,81.16c0,1.26,1.03,2.3,2.29,2.32
								L735.31,418.33z"/>
						</g>
						<g>
							<path d="M683.16,419.4c0,0-0.01,0-0.01,0l-68.79-0.95c-2.64-0.04-4.79-2.24-4.79-4.91l-0.01-78.47c0-2.68,2.15-4.85,4.8-4.85
								h19.29c0.49,0,0.89,0.4,0.89,0.89s-0.4,0.89-0.89,0.89h-19.29c-1.66,0-3.02,1.38-3.02,3.07l0.01,78.47
								c0,1.7,1.36,3.1,3.03,3.13l68.79,0.95c0.49,0.01,0.89,0.41,0.88,0.91C684.05,419.01,683.65,419.4,683.16,419.4z"/>
						</g>
						<g>
							<polygon class="st1" points="682.1,409.36 666.57,409.17 666.57,387.16 682.09,387.3 							"/>
						</g>
					</g>
				</g>
				<g>
					<path class="st0" d="M545.65,212.12c-4.47,0.33-7.94,4.05-7.94,8.54v307.35c0,4.61,3.65,8.39,8.25,8.55l263.03,9.47V192.95
						L545.65,212.12z M794.21,523c0,3.55-2.94,6.39-6.49,6.26l-229.2-8.39c-3.37-0.12-6.03-2.89-6.03-6.26V233.2
						c0-3.28,2.53-6,5.8-6.24l229.2-16.97c3.63-0.27,6.72,2.6,6.72,6.24L794.21,523L794.21,523z"/>
				</g>
				<g>
					<path d="M808.99,547.34c-0.72,0-1.31-0.59-1.31-1.31V270c0-0.72,0.59-1.31,1.31-1.31s1.31,0.59,1.31,1.31v276.03
						C810.3,546.75,809.71,547.34,808.99,547.34z"/>
				</g>
				<g>
					<path class="st1" d="M875.56,465.02c-3.18,0-6.4-1.24-9.39-3.74c-5.95-4.96-7.8-15.39-5.48-31
						c2.98-20.09,12.76-47.12,26.5-69.83c-0.08-0.12-0.17-0.24-0.25-0.35c-1.49-2.02-3.22-3.61-7.84-0.98
						c-34.37,19.6-43.15,63.52-43.24,63.96l-10.18-1.95c0.38-1.99,9.81-49.07,48.28-71c7.16-4.09,13.96-3.58,19.08,1.28
						c10.26-14.82,22.26-26.82,35.02-32.23l4.04,9.54c-10.92,4.62-22.44,15.94-33.07,32.33c5.91,15.55,4.19,39.73,3.41,47.71
						c-1.88,19.11-7.36,42.8-17.11,52.01C882.32,463.6,878.96,465.02,875.56,465.02z M891.59,373.6
						c-10.26,18.99-18.13,41.1-20.66,58.2c-1.94,13.12-0.21,19.79,1.87,21.52c2.19,1.82,3.4,1.8,5.4-0.09
						c6.23-5.88,11.82-24.16,13.92-45.49C893.39,394.81,893.13,382.71,891.59,373.6z"/>
				</g>
			</g>
			<g>
				<path d="M603.68,873.73c-0.52,0-1.02-0.32-1.22-0.83c-0.26-0.67,0.07-1.43,0.74-1.7c81.6-32.08,153.14-69.13,212.63-110.12
					c47.58-32.78,87.6-68.14,118.96-105.1c53.37-62.9,63.2-109.22,63.3-109.68c0.14-0.71,0.84-1.17,1.54-1.03
					c0.71,0.14,1.17,0.83,1.03,1.54c-0.09,0.47-9.99,47.29-63.7,110.67c-31.49,37.16-71.69,72.7-119.47,105.64
					c-59.69,41.15-131.46,78.33-213.32,110.52C604,873.7,603.84,873.73,603.68,873.73z"/>
			</g>
			<g>
				<path d="M528.63,607.59c-0.52,0-1-0.3-1.22-0.81c-0.28-0.67,0.03-1.45,0.7-1.73l31.54-13.3c0.67-0.29,1.45,0.03,1.73,0.7
					c0.28,0.67-0.03,1.45-0.7,1.73l-31.54,13.3C528.98,607.55,528.8,607.59,528.63,607.59z"/>
			</g>
			<g>
				<g>
					<path class="st2" d="M190.88,785.56c0.43-4.94,5.58-7.99,10.13-6.02c17.09,7.4,49.89,18.03,74.81,11.23
						c15.91-4.34,24.69-10.89,29.42-16.04c4.57-4.98,11.02-7.81,17.78-7.75c33.26,0.28,121.74,0.9,137.56-0.34
						c5.4-0.42,10.6,1.77,11.99,7.01l23.45,85.08c4.17,15.72-7.38,31.23-23.64,31.73l-254.79,7.95
						c-13.95,0.44-25.61-10.53-26.04-24.48l-1.47-47.7C189.65,806,190.22,793.24,190.88,785.56z"/>
				</g>
				<g>
					<path class="st1" d="M395.34,907.42c-0.63,0-1.2-0.43-1.34-1.07L369.95,798.9c-0.17-0.74,0.3-1.47,1.04-1.64
						c0.74-0.17,1.48,0.3,1.64,1.04l24.05,107.45c0.17,0.74-0.3,1.47-1.04,1.64C395.54,907.41,395.44,907.42,395.34,907.42z"/>
				</g>
				<g>
					<path class="st1" d="M215.93,846.66c-0.55,0-1.08-0.34-1.28-0.88c-0.27-0.71,0.09-1.5,0.79-1.77
						c31.91-12.15,42.69-49.7,42.79-50.07c0.21-0.73,0.97-1.16,1.69-0.96c0.73,0.2,1.16,0.96,0.96,1.69
						c-0.11,0.39-11.24,39.26-44.46,51.91C216.26,846.63,216.09,846.66,215.93,846.66z"/>
				</g>
				<g>
					<path d="M163.01,633.19c-0.27,0-0.55-0.08-0.78-0.26c-0.58-0.43-0.7-1.25-0.26-1.83l28.82-38.52c2.11-2.84,1.86-6.74-0.6-9.28
						c-32.87-33.93-65.62-39.11-78.18-39.76c-1.65-0.08-3.1-1-3.89-2.44c-0.79-1.43-0.77-3.14,0.04-4.57
						c9.51-16.72,42.5-73.23,67.52-98.26c8.57-8.57,25.94-20.08,60.01-26.25c20.29-3.68,37.19-3.72,37.36-3.72
						c0.44,0,0.84,0.22,1.09,0.58c0.26,0.39,26.78,38.8,71.42,31.95c11.29-1.73,18.39-5.53,21.13-11.28
						c3.37-7.08-1.16-14.93-1.2-15.01c-0.14-0.24-0.21-0.53-0.17-0.81l1.79-15.95c0.08-0.72,0.74-1.23,1.45-1.16
						c0.72,0.08,1.24,0.73,1.16,1.45l-1.74,15.54c0.98,1.84,4.63,9.6,1.1,17.05c-3.13,6.6-10.9,10.89-23.11,12.76
						c-3.79,0.58-7.46,0.85-11,0.85c-36.73,0-59.27-28.83-62.57-33.34c-7.05,0.11-67.55,1.9-94.84,29.2
						c-24.8,24.79-57.63,81.05-67.1,97.7c-0.36,0.64-0.37,1.37-0.02,2.01c0.35,0.65,0.98,1.04,1.73,1.08
						c12.87,0.67,46.41,5.96,79.92,40.56c3.36,3.47,3.71,8.8,0.82,12.68l-28.82,38.52C163.8,633,163.41,633.19,163.01,633.19z"/>
				</g>
				<g>
					<g>
						<g>
							<path class="st0" d="M408.83,586.45H221.45c-5.38,0-9.75,3.96-9.75,8.82V753.2c0,4.86,4.38,8.81,9.75,8.81l89.26-0.4
								c0,0,7.86-28.16,22.21-26.84c2.45,0.22,5.89,3.8,5.89,3.8s4.24-6.01,10.77-4.34c12.26,3.13,5.37,27.38,5.37,27.38
								c1.62-5.19,2.55-10.52,2.21-15.15c2.65-8.71,15.33-10.44,13.87,3.63c7.72-6.22,11.75,1.62,10.34,11.52l27.45,0.4
								c5.38,0,9.75-3.94,9.75-8.81V595.27C418.58,590.4,414.2,586.45,408.83,586.45z"/>
						</g>
						<g>
							<path d="M513.63,763.32H407.86c-4.62,0-8.37-3.75-8.37-8.37V593.51c0-4.62,3.75-8.37,8.37-8.37h105.78
								c4.62,0,8.37,3.75,8.37,8.37v161.45C522,759.57,518.24,763.32,513.63,763.32z M407.86,587.76c-3.17,0-5.75,2.58-5.75,5.75
								v161.44c0,3.17,2.58,5.75,5.75,5.75h105.77c3.17,0,5.75-2.58,5.76-5.74V593.51c0-3.17-2.58-5.75-5.75-5.75H407.86z"/>
						</g>
						<g>
							<path d="M211.98,763.32c-6.2,0-11.25-4.2-11.25-9.36V594.5c0-5.16,5.04-9.36,11.24-9.36h48.78c0.72,0,1.31,0.59,1.31,1.31
								s-0.59,1.31-1.31,1.31h-48.78c-4.75,0-8.62,3.02-8.62,6.74v159.46c0,3.72,3.87,6.74,8.62,6.74l51.16-0.19c0,0,0,0,0,0
								c0.72,0,1.31,0.58,1.31,1.31c0,0.72-0.58,1.31-1.31,1.32L211.98,763.32z"/>
						</g>
						<g>
							<rect x="231.41" y="699.35" class="st1" width="38.64" height="44.32"/>
						</g>
					</g>
					<g>
						<g>
							<path class="st0" d="M393.49,580.38H240.6c-4.16,0-7.53-3.37-7.53-7.53V445.37c0-4.16,3.37-7.53,7.53-7.53h152.9
								c4.16,0,7.53,3.37,7.53,7.53v127.48C401.02,577.01,397.65,580.38,393.49,580.38z"/>
						</g>
						<g>
							<path d="M478.2,581.69h-85.88c-3.88,0-7.04-3.16-7.04-7.04V443.57c0-3.88,3.16-7.04,7.04-7.04h85.88
								c3.88,0,7.04,3.16,7.04,7.04v131.08C485.24,578.53,482.08,581.69,478.2,581.69z M392.32,439.15c-2.44,0-4.42,1.98-4.42,4.42
								v131.08c0,2.44,1.98,4.42,4.42,4.42h85.88c2.44,0,4.42-1.98,4.42-4.42V443.57c0-2.44-1.98-4.42-4.42-4.42H392.32z"/>
						</g>
						<g>
							<path d="M373.4,581.69H233.29c-5.17,0-9.37-3.52-9.37-7.85V444.38c0-4.33,4.2-7.85,9.37-7.85h39.61
								c0.72,0,1.31,0.59,1.31,1.31s-0.59,1.31-1.31,1.31h-39.61c-3.72,0-6.75,2.35-6.75,5.23v129.46c0,2.88,3.03,5.23,6.75,5.23
								H373.4c0.72,0,1.31,0.59,1.31,1.31S374.12,581.69,373.4,581.69z"/>
						</g>
						<g>
							<rect x="339.89" y="529.5" class="st1" width="31.37" height="35.98"/>
						</g>
					</g>
				</g>
				<g>
					<path d="M202.05,681.97c-0.41,0-0.81-0.19-1.07-0.55c-10.99-15.35-26.47-34.92-39.73-48.6c-6.98-1.64-27.48-6.99-28.74-13.48
						c-0.23-1.2,0.01-2.98,2.51-4.7c6.06-4.16,18.03,5.91,27.7,15.83c0.19,0.04,0.38,0.09,0.57,0.13c0.69,0.15,1.13,0.82,1,1.51
						c4.42,4.65,8.24,9.09,10.57,11.81c14.78,17.22,28.11,35.79,28.24,35.98c0.42,0.59,0.29,1.41-0.3,1.83
						C202.58,681.89,202.32,681.97,202.05,681.97z M138.59,616.2c-0.8,0-1.49,0.19-2.08,0.59c-1.06,0.73-1.54,1.42-1.42,2.04
						c0.64,3.32,12.22,7.61,22.58,10.38C149.65,621.37,142.74,616.2,138.59,616.2z"/>
				</g>
				<g>
					<path d="M344.61,764.44c-0.11,0-0.22-0.01-0.33-0.04c-0.7-0.18-1.12-0.9-0.94-1.6c1.41-5.44,1.89-11.7,1.28-16.74
						c-0.38-3.11-2.41-3.78-3.58-3.9c-7.92-0.84-13.71,15.1-15.27,21.3c-0.15,0.58-0.67,0.99-1.27,0.99h-28.56
						c-0.72,0-1.31-0.59-1.31-1.31s0.59-1.31,1.31-1.31h27.56c1.31-4.63,7.28-23.36,17.82-22.27c1.23,0.13,5.28,0.95,5.92,6.2
						c0.65,5.36,0.14,11.98-1.34,17.72C345.72,764.04,345.19,764.44,344.61,764.44z"/>
				</g>
				<g>
					<path d="M321.53,785.29c-0.77,0-1.5-0.03-2.18-0.08c-39.39-3.06-47.9-14.45-49.2-16.7c-0.95-1.63-1.14-3.22-0.55-4.47
						c2.11-4.44,10.63-3.14,15.53-1.96l0.12,0.03c0.71,0.16,1.14,0.87,0.98,1.57c-0.16,0.7-0.86,1.15-1.57,0.98l-0.14-0.03
						c-6.61-1.58-11.65-1.37-12.55,0.54c-0.21,0.43-0.04,1.2,0.45,2.04c0.79,1.37,3.62,4.94,12.74,8.53
						c8.78,3.46,20.35,5.77,34.4,6.86c15.91,1.24,21.73-11.87,23.78-19.79c0.18-0.7,0.89-1.12,1.6-0.94c0.7,0.18,1.12,0.9,0.94,1.6
						C341.08,781.95,329.36,785.29,321.53,785.29z"/>
				</g>
				<g>
					<path d="M202.05,747.84c-0.23,0-0.47-0.06-0.68-0.19c-0.16-0.1-1.17-0.63-2.45-1.3C95.41,692.16,73.57,664.1,69.77,652.19
						c-4.66-14.59,0.75-36.47,16.08-65.04c11.33-21.12,24.18-38.27,24.31-38.44c0.43-0.58,1.26-0.69,1.83-0.26
						c0.58,0.44,0.69,1.26,0.26,1.83c-0.51,0.67-50.62,67.8-39.99,101.1c8.89,27.84,92.38,74.05,127.86,92.63
						c1.78,0.93,2.4,1.26,2.6,1.38c0.62,0.38,0.81,1.18,0.43,1.8C202.92,747.61,202.49,747.84,202.05,747.84z"/>
				</g>
				<g>
					<path d="M357.71,764.44c-0.12,0-0.24-0.02-0.36-0.05c-0.7-0.2-1.1-0.92-0.9-1.62c1.29-4.54,1.84-8.74,1.61-12.14
						c-0.01-0.15,0-0.29,0.04-0.44c1.17-4.26,4.8-7.11,8.25-6.48c1.31,0.24,5.51,1.66,4.74,9.96c-0.13,1.43-0.54,5.24-1.43,9.69
						c-0.14,0.71-0.83,1.17-1.54,1.03c-0.71-0.14-1.17-0.83-1.03-1.54c0.87-4.34,1.26-8.04,1.39-9.43c0.38-4.04-0.62-6.77-2.6-7.13
						c-1.8-0.32-4.28,1.36-5.2,4.39c0.21,3.65-0.38,8.07-1.72,12.79C358.81,764.06,358.28,764.44,357.71,764.44z"/>
				</g>
				<g>
					<path d="M337.53,788.54c-4.5,0-8.36-2.14-10.44-4c-0.54-0.48-0.58-1.31-0.1-1.85c0.48-0.54,1.31-0.58,1.85-0.1
						c0.35,0.31,8.8,7.66,17.48-0.47c0.03-0.03,0.07-0.06,0.11-0.09c0.7-0.65,1.39-1.4,2.06-2.24c2.44-3.06,5.84-9.5,7.96-17.02
						c0.2-0.7,0.92-1.1,1.62-0.91c0.7,0.2,1.1,0.92,0.91,1.62c-1.92,6.81-5.31,14.02-8.44,17.94c-0.78,0.98-1.59,1.86-2.42,2.62
						c-0.03,0.03-0.06,0.05-0.1,0.08C344.49,787.39,340.84,788.54,337.53,788.54z"/>
				</g>
				<g>
					<path d="M359.37,751.87c-0.69,0-1.26-0.53-1.31-1.23c-0.3-4.59-2.32-8.36-4.91-9.18c-2.54-0.8-4.96,1.39-6.54,3.36
						c-0.45,0.56-1.27,0.66-1.84,0.2c-0.56-0.45-0.66-1.28-0.2-1.84c3.99-4.98,7.59-4.78,9.38-4.22c3.71,1.17,6.35,5.68,6.73,11.51
						c0.05,0.72-0.5,1.35-1.22,1.39C359.43,751.87,359.4,751.87,359.37,751.87z"/>
				</g>
				<g>
					<path d="M353.99,786.75c-2.34,0-4.83-0.85-7.43-2.55c-0.38-0.23-0.64-0.65-0.64-1.12c0-0.72,0.58-1.31,1.31-1.31h0.01
						c0.25,0,0.5,0.07,0.72,0.21c2.87,1.88,5.47,2.53,7.73,1.93c2.59-0.68,4.92-3.01,6.93-6.92c1.82-3.55,3.33-8.3,4.47-14.11
						c0.14-0.71,0.83-1.17,1.54-1.03c0.71,0.14,1.17,0.83,1.03,1.54c-1.19,6.05-2.78,11.03-4.71,14.8c-2.37,4.6-5.26,7.38-8.6,8.26
						C355.58,786.65,354.79,786.75,353.99,786.75z"/>
				</g>
				<g>
					<path d="M366.01,779.19c-1.56,0-2.62-0.34-2.65-0.35c-0.69-0.23-1.05-0.98-0.82-1.66c0.23-0.68,0.97-1.05,1.66-0.82
						c0.29,0.1,6.84,2.1,10.44-7.12c0.78-2.02,1.34-4.18,1.6-6.26c0.22-3.46-0.26-9.09-2.03-9.97c-0.73-0.36-2,0.19-3.57,1.56
						c-0.55,0.47-1.38,0.42-1.85-0.13c-0.48-0.55-0.42-1.37,0.13-1.85c2.49-2.17,4.67-2.82,6.46-1.93
						c3.96,1.96,3.59,10.81,3.47,12.57c-0.3,2.36-0.91,4.74-1.77,6.96C374.07,777.88,369.07,779.19,366.01,779.19z"/>
				</g>
				<g>
					<g>
						<path class="st3" d="M394.16,294.27c-11.45,1.84-13.16-25.26-49.85-28.24c-42.44-3.44-47.66,20.87-59.11,24.56
							c-11.44,3.69-10.09-31.55-10.09-31.55c1.28-38.01,35.33-49.46,78.42-43.92c49.08,6.31,38.74,56.69,38.45,58.12
							C405.24,292.46,397.82,293.68,394.16,294.27z"/>
					</g>
					<g>
						<path d="M289.89,295.58c-1.64,0-3.01-0.5-4.09-1.49c-3.85-3.54-2.04-11.91-1.82-12.86c0.16-0.7,0.86-1.14,1.57-0.98
							c0.7,0.16,1.14,0.87,0.98,1.57c-0.5,2.15-1.28,8.2,1.04,10.34c1.03,0.95,2.72,1.05,5.03,0.3c3.36-1.08,7.2-4.43,11.65-8.31
							c10.07-8.77,23.88-20.78,46.03-19.43c23.48,1.43,32.21,12.8,37.98,20.33c3.69,4.81,5.77,7.3,9.16,6.75
							c0.51-0.08,1.57-0.25,1.28-2.69c-1.18-10.04-26.37-41.23-55.04-39.11c-0.74,0.06-1.35-0.49-1.4-1.21
							c-0.05-0.72,0.49-1.35,1.21-1.4c29.2-2.18,56.33,28.64,57.84,41.42c0.36,3.09-0.93,5.17-3.47,5.58
							c-5.08,0.82-7.99-2.96-11.66-7.74c-5.81-7.58-13.77-17.95-36.06-19.31c-21.11-1.28-34.43,10.32-44.15,18.79
							c-4.67,4.07-8.7,7.58-12.57,8.83C292.13,295.38,290.95,295.58,289.89,295.58z"/>
					</g>
					<g>
						<path d="M397.44,274.54c-0.04,0-0.08,0-0.13-0.01c-0.72-0.07-1.25-0.71-1.18-1.43c0.01-0.13,1.22-13.3-2.79-26.83
							c-5.29-17.89-16.75-27.94-34.06-29.86c-25.86-2.88-46.13,1.31-58.61,12.11c-9.24,8-14.18,19.51-14.68,34.23
							c-0.02,0.72-0.63,1.29-1.35,1.27c-0.72-0.02-1.29-0.63-1.27-1.35c0.52-15.48,5.76-27.63,15.58-36.13
							c13.05-11.29,34.01-15.68,60.61-12.73c18.22,2.03,30.78,13.02,36.31,31.79c4.13,14.01,2.91,27.2,2.86,27.76
							C398.68,274.03,398.11,274.54,397.44,274.54z"/>
					</g>
					<g>
						<path d="M342.62,367.24c-10.67,0-17.7-7.64-17.79-7.75c-0.48-0.54-0.44-1.37,0.1-1.85c0.54-0.48,1.36-0.44,1.85,0.1
							c0.47,0.52,11.52,12.45,26.98,3.74c0.63-0.35,1.43-0.13,1.78,0.5c0.36,0.63,0.13,1.43-0.5,1.78
							C350.55,366.3,346.36,367.24,342.62,367.24z"/>
					</g>
					<g>
						<path d="M344.18,354.38c-0.62,0-1.18-0.45-1.29-1.09c-0.12-0.71,0.35-1.39,1.07-1.52c0.09-0.02,9.48-1.71,11.34-6.72
							c0.85-2.3-0.06-5.11-2.72-8.34c-4.44-5.4-8.06-23.33-1.78-31.38c2.84-3.66,7.77-5.75,13.52-5.75c0.02,0,0.03,0,0.05,0
							c6.67,0.01,12.79,2.8,16.38,7.45c0.44,0.57,0.33,1.4-0.24,1.84c-0.57,0.44-1.39,0.33-1.84-0.24
							c-3.05-3.95-8.53-6.42-14.31-6.43c-0.01,0-0.03,0-0.04,0c-4.86,0-9.14,1.77-11.45,4.74c-5.37,6.89-2.05,23.49,1.74,28.1
							c3.29,4.01,4.35,7.68,3.15,10.92c-2.39,6.42-12.9,8.31-13.35,8.39C344.33,354.37,344.25,354.38,344.18,354.38z"/>
					</g>
					<g>
						<path d="M305.83,309.48c-0.32,0-0.64-0.12-0.89-0.35c-0.53-0.49-0.56-1.32-0.07-1.85c0.12-0.13,12.68-13.34,28.31-4.07
							c0.62,0.37,0.83,1.17,0.46,1.79c-0.37,0.62-1.17,0.83-1.79,0.46c-13.79-8.17-24.6,3.12-25.05,3.61
							C306.53,309.34,306.18,309.48,305.83,309.48z"/>
					</g>
					<g>
						<ellipse cx="320.33" cy="317.98" rx="3.87" ry="4.83"/>
					</g>
					<g>
						<ellipse cx="364.1" cy="317.98" rx="3.87" ry="4.83"/>
					</g>
					<g>
						<path d="M284.69,346.78c-0.12,0-0.24-0.02-0.37-0.05c-0.45-0.13-11.17-3.33-16.24-12.75c-2.99-5.54-3.36-12.04-1.12-19.31
							c1.72-5.56,4.66-6.73,6.83-6.73c0.01,0,0.01,0,0.02,0c2.41,0.01,4.93,1.46,7.21,3.59c-0.48-8.18-0.28-16.34-0.01-17.55
							c0.16-0.71,0.84-1.15,1.56-0.99c0.71,0.16,1.15,0.86,0.99,1.56c-0.24,1.08-0.37,8.64,0.09,16.56c0.08,1.3,0.16,2.5,0.25,3.6
							c2.13,2.76,3.81,5.9,4.58,8.48c1.09,3.63,0.1,5.21-0.93,5.9c-0.87,0.58-1.83,0.59-2.65,0.03c-1.91-1.31-3-7.01-3.58-13.45
							c-2.65-3.1-5.67-5.09-7.52-5.09c0,0-0.01,0-0.01,0c-1.87,0-3.32,1.64-4.32,4.88c-2.03,6.56-1.72,12.38,0.91,17.27
							c4.54,8.44,14.57,11.46,14.67,11.49c0.69,0.2,1.09,0.93,0.89,1.62C285.78,346.4,285.26,346.78,284.69,346.78z M284.53,320.39
							c0.64,4.41,1.36,5.89,1.69,6.36c0.18-0.38,0.22-1.29-0.24-2.8C285.61,322.72,285.11,321.52,284.53,320.39z"/>
					</g>
					<g>
						<path d="M340.01,404.17c-0.8,0-1.61-0.02-2.42-0.06c-0.01,0-0.04,0-0.06,0c-1.47,0-21.09-0.48-34.93-23.43
							c-0.37-0.62-0.17-1.42,0.45-1.8c0.62-0.38,1.43-0.17,1.8,0.45c13.23,21.95,32.29,22.17,32.79,22.17c0,0,0.01,0,0.01,0
							c12.34,0.56,22.61-3.33,30.63-11.57c23.35-23.98,21.14-77.71,20.78-84.2c-1.86-1.23-7.73-5.31-12.45-10.5
							c-0.71,0.66-1.6,1.17-2.65,1.52c-3.54,1.18-9.33-2.04-14.59-6.45c-0.8,1.7-2.38,3.37-5.49,4.06
							c-12.62,2.76-28.42-19.42-29.08-20.37c-0.42-0.59-0.27-1.41,0.32-1.83c0.59-0.42,1.41-0.27,1.83,0.32
							c0.04,0.06,3.96,5.6,9.26,10.74c4.73,4.59,11.54,9.8,17.11,8.57c2.13-0.47,3.43-1.56,3.95-3.34
							c-4.16-3.83-7.71-8.16-9.12-11.2c-1.51-3.26-0.3-4.62,0.55-5.14c0.74-0.45,2.32-0.97,4.55,0.6c3.68,2.58,7.31,9.47,6.86,14.74
							c5.31,4.66,10.65,7.59,13.02,6.8c0.72-0.24,1.31-0.58,1.77-1.03c-2.8-3.51-4.86-7.41-4.78-11.21
							c0.05-2.62,1.33-3.14,2.08-3.21c2.67-0.26,5.47,4.88,6.24,8.53c0.46,2.21,0.35,4.14-0.3,5.7
							c5.35,6.01,12.77,10.78,12.89,10.85c0.35,0.22,0.57,0.6,0.6,1.01c0.01,0.15,1.07,15.26-1.02,33.37
							c-3.51,30.44-13.06,45.89-20.46,53.49C362.11,400,351.99,404.17,340.01,404.17z M372.75,281.71c-0.01,0.1-0.02,0.22-0.02,0.36
							c-0.06,2.76,1.31,5.67,3.33,8.42c0.02-0.23,0.03-0.47,0.03-0.72C376.05,286.32,373.91,282.77,372.75,281.71z M350.36,274.27
							c-0.12,0-0.23,0.02-0.31,0.08c-0.23,0.47,0.59,3.06,4.56,7.61c0.9,1.03,1.83,2.02,2.78,2.96c-0.59-3.87-3.16-8.31-5.66-10.07
							C351.19,274.47,350.71,274.27,350.36,274.27z M372.86,281.18L372.86,281.18L372.86,281.18z"/>
					</g>
					<g>
						<path d="M291.57,321.71c-0.46,0-0.9-0.24-1.14-0.67c-0.36-0.63-0.13-1.43,0.5-1.79c6.33-3.59,6.72-17.99,6.34-23.23
							c-0.05-0.72,0.49-1.35,1.21-1.4c0.73-0.07,1.35,0.49,1.4,1.21c0.06,0.84,1.4,20.58-7.66,25.71
							C292.01,321.65,291.79,321.71,291.57,321.71z"/>
					</g>
				</g>
				<g>
					<path d="M273.04,410.91c-0.3,0-0.6-0.1-0.84-0.31c-0.55-0.47-0.63-1.29-0.16-1.85c14.94-17.77,11.38-62.73,11.35-63.18
						c-0.06-0.72,0.48-1.35,1.2-1.41c0.72-0.06,1.35,0.48,1.41,1.2c0.01,0.12,0.95,11.69-0.03,25.37
						c-1.32,18.51-5.33,31.87-11.93,39.71C273.78,410.75,273.41,410.91,273.04,410.91z"/>
				</g>
				<g>
					<path d="M394.93,423.21c-0.13,0-0.27-0.02-0.4-0.06l-19.72-6.33c-0.69-0.22-1.07-0.96-0.85-1.65c0.22-0.69,0.96-1.06,1.65-0.85
						l19.72,6.33c0.69,0.22,1.07,0.96,0.85,1.65C396,422.85,395.48,423.21,394.93,423.21z"/>
				</g>
			</g>
		</g>
	</g>
</g>
</svg>
