<svg width="28" height="28" viewBox="0 0 28 28" fill="none" xmlns="http://www.w3.org/2000/svg">
<path fill-rule="evenodd" clip-rule="evenodd" d="M14 28C21.732 28 28 21.732 28 14C28 6.26801 21.732 0 14 0C6.26801 0 0 6.26801 0 14C0 21.732 6.26801 28 14 28ZM19.3112 10.3341C19.449 10.6886 19.5453 11.0977 19.5715 11.6928C19.5978 12.2902 19.6 12.4805 19.6 14.0011C19.6 15.5217 19.5934 15.7121 19.5672 16.3094C19.5409 16.9045 19.4446 17.3115 19.3068 17.6681C19.0157 18.4207 18.4205 19.0158 17.6677 19.3069C17.3132 19.4447 16.904 19.5409 16.3088 19.5672C15.7113 19.5935 15.5209 19.6 14 19.6C12.4791 19.6 12.2887 19.5935 11.6913 19.5672C11.096 19.5409 10.6891 19.4447 10.3323 19.3069C9.96031 19.1669 9.62112 18.9458 9.34099 18.6614C9.05651 18.3813 8.83553 18.0444 8.69329 17.6681C8.55541 17.3136 8.45907 16.9045 8.43283 16.3094C8.40658 15.7121 8.4 15.5217 8.4 14.0011C8.4 12.4805 8.40658 12.2902 8.43505 11.6906C8.46129 11.0955 8.55754 10.6886 8.69543 10.332C8.83553 9.96001 9.05651 9.62088 9.34099 9.34081C9.62112 9.05416 9.95809 8.83537 10.3346 8.69315C10.6891 8.55538 11.0983 8.45906 11.6935 8.43282C12.2909 8.40658 12.4813 8.4 14.0022 8.4C15.5231 8.4 15.7135 8.40658 16.3131 8.43504C16.9083 8.46128 17.3154 8.55751 17.672 8.69537C18.044 8.83537 18.3832 9.05638 18.6634 9.34081C18.9501 9.62088 19.1689 9.95779 19.3112 10.3341ZM18.3702 17.3049C18.4468 17.108 18.5387 16.8126 18.5628 16.2656C18.589 15.6749 18.5956 15.4998 18.5956 14.0055C18.5956 12.5111 18.589 12.3339 18.5628 11.7432C18.5387 11.1983 18.4468 10.9008 18.3702 10.7039C18.2804 10.461 18.1382 10.2422 17.9522 10.0606C17.7727 9.87463 17.5517 9.73242 17.3088 9.64276C17.1119 9.56619 16.8164 9.47431 16.2693 9.45021C15.6806 9.42397 15.5034 9.41739 14.0065 9.41739C12.512 9.41739 12.3347 9.42397 11.7438 9.45021C11.199 9.47431 10.9013 9.56619 10.7044 9.64276C10.4614 9.73242 10.2426 9.87463 10.061 10.0606C9.87278 10.2401 9.73054 10.461 9.64078 10.7039C9.56419 10.9008 9.47229 11.1962 9.44827 11.7432C9.42194 12.3317 9.41545 12.5111 9.41545 14.0055C9.41545 15.4998 9.42194 15.6771 9.44827 16.2678C9.47229 16.8126 9.56419 17.1102 9.64078 17.3071C9.73054 17.5499 9.87278 17.7687 10.0588 17.9503C10.2382 18.1363 10.4593 18.2785 10.7021 18.3683C10.8991 18.4448 11.1945 18.5367 11.7416 18.5607C12.3303 18.5871 12.5097 18.5936 14.0044 18.5936C15.4991 18.5936 15.6763 18.5871 16.2671 18.5607C16.8121 18.5367 17.1096 18.4448 17.3066 18.3683C17.7946 18.1801 18.1819 17.7928 18.3702 17.3049ZM11.1239 14.0011C11.1239 12.4126 12.4129 11.1239 14.0016 11.1239C15.5903 11.1239 16.8792 12.4126 16.8792 14.0011C16.8792 15.5896 15.5903 16.8782 14.0016 16.8782C12.4129 16.8782 11.1239 15.5896 11.1239 14.0011ZM12.1349 14.0011C12.1349 15.0316 12.9709 15.8674 14.0016 15.8674C15.0323 15.8674 15.8682 15.0316 15.8682 14.0011C15.8682 12.9705 15.0323 12.1348 14.0016 12.1348C12.9709 12.1348 12.1349 12.9705 12.1349 14.0011ZM17.6658 11.0104C17.6658 11.3813 17.365 11.682 16.994 11.682C16.623 11.682 16.3221 11.3813 16.3221 11.0104C16.3221 10.6394 16.623 10.3387 16.994 10.3387C17.365 10.3387 17.6658 10.6394 17.6658 11.0104Z" fill="white"/>
</svg>
