<?xml version="1.0" encoding="utf-8"?>
<!-- Generator: Adobe Illustrator 26.5.0, SVG Export Plug-In . SVG Version: 6.00 Build 0)  -->
<svg version="1.1" xmlns="http://www.w3.org/2000/svg" xmlns:xlink="http://www.w3.org/1999/xlink" x="0px" y="0px"
	 viewBox="0 0 1080 1080" style="enable-background:new 0 0 1080 1080;" xml:space="preserve">
<style type="text/css">
	.st0{fill:#A4E72F;}
	.st1{fill:#FFFFFF;}
	.st2{fill:#A3E62F;}
	.st3{fill:none;stroke:#000000;stroke-width:2.8041;stroke-linecap:round;stroke-linejoin:round;stroke-miterlimit:10;}
	.st4{fill:none;}
	.st5{fill:#C8C8C8;}
	.st6{fill:#A4E62F;}
</style>
<g id="Layer_1">
</g>
<g id="Layer_2">
	<g>
		<g>
			<g>
				<g>
					<g>
						<path class="st0" d="M977.86,455.01c-4.09-28.07-4.09-43.89-15.16-47.84s-116.25-17.4-126.92-13.44
							c-10.68,3.95-103.27,68.43-117.43,80.26c-26.49,22.14-68.01,110.31-68.01,110.31s-15.55,14.85-29.34,38.29
							c-2.12,11.01-5.97,33.76-4.07,45.34c1.87,11.39,3.43,18.05,4.14,20.82c0.2,0.77-0.39,1.52-1.19,1.52h-2.92
							c-2.61,0-4.89-1.76-5.55-4.29c-1.7-6.55-4.72-19.45-5.37-30.48c-0.87,2.71-1.66,5.47-2.36,8.28
							c-11.47,45.87-3.16,90.94,11.47,96.87c14.63,5.93,104.78,36.77,137.6,34.79c32.82-1.98,67.22-10.28,69.59-20.56
							c2.37-10.28,23.98-98.06,37.17-93.31c8.83,3.18,9.2,31.91,9.2,31.91l71.95-107.09c0,0-0.92-69.09,25.67-72.54
							c6.63-0.86,9,17.03,9,17.03s1.48-1.24,2.54-6.78C978.91,538.57,981.94,483.08,977.86,455.01z M807.84,700.28
							c-4.62,9.04-29.01,18.52-40.34,22.51c-3.66,1.29-7.66,1.16-11.23-0.37l-8.66-3.71c-2.32-1-2.41-4.24-0.15-5.38
							c36.41-18.33,51.91-36.55,61.69-37.3C819.44,675.24,813.9,688.42,807.84,700.28z"/>
					</g>
					<g>
						<path d="M737.85,753.01c-1.56,0-2.74-0.13-3.11-0.18c-0.42,0-0.86,0.01-1.28,0.01c-46.19,0-111.45-26.57-115.54-30.14
							c-4.44-3.88-7.26-16.23-7.56-17.62c-0.17-0.76,0.31-1.5,1.07-1.67c0.76-0.17,1.5,0.31,1.67,1.07
							c0.78,3.54,3.5,13.34,6.67,16.12c3.86,3.38,69.21,29.45,113.73,29.45c0.44,0,0.87,0,1.31-0.01c0.07-0.01,0.14,0,0.21,0.01
							c2.35,0.33,9.03,0.5,11.64-2.67c3.76-4.57,6.44-10.31,4.4-12c-0.59-0.5-0.68-1.38-0.18-1.97c0.5-0.59,1.38-0.68,1.97-0.18
							c3.98,3.32,0.32,10.66-4.03,15.94C746.14,752.41,741.14,753.01,737.85,753.01z"/>
					</g>
					<g>
						<path d="M769.09,691.67c-0.06,0-0.12,0-0.18-0.01c-0.64-0.08-64.81-8.27-102.66-16.36c-37.93-8.11-46.85-12.06-47.21-12.22
							c-0.71-0.32-1.02-1.15-0.7-1.86c0.32-0.7,1.15-1.02,1.85-0.7l0,0c0.09,0.04,9.19,4.03,46.64,12.03
							c37.73,8.07,101.78,16.24,102.42,16.32c0.77,0.1,1.31,0.8,1.21,1.57C770.39,691.15,769.79,691.67,769.09,691.67z"/>
					</g>
					<g>
						<path d="M619.63,738.51l-4.48,8.17c0,0,5.01,7.64,13.71,11.6c8.7,3.95,82.24,26.1,107.55,27.15
							c25.31,1.05,28.47-1.58,28.47-1.58l-18.98-15.82C745.89,768.03,645.2,756.96,619.63,738.51z"/>
					</g>
					<g>
						<path d="M852.96,767.6c-0.26,0-0.53-0.02-0.79-0.05c-4.5-0.56-8-5.82-9.86-14.82c-1.76-8.51-1.94-19.53-0.51-31.02
							c2.68-21.57,11.37-43.12,21.28-41.91c9.91,1.23,13.05,24.28,10.37,45.84l0,0c-1.43,11.5-4.3,22.13-8.09,29.95
							C861.58,763.38,857.21,767.6,852.96,767.6z M862.22,682.56c-7.53,0-15.28,20.49-17.64,39.5c-1.39,11.2-1.22,21.89,0.47,30.11
							c1.58,7.62,4.29,12.21,7.46,12.6c3.17,0.39,6.93-3.39,10.32-10.39c3.66-7.55,6.44-17.88,7.83-29.08
							c2.42-19.43-0.25-41.76-7.94-42.71C862.56,682.57,862.39,682.56,862.22,682.56z M872.06,725.47L872.06,725.47L872.06,725.47z"
							/>
					</g>
					<g>
						<path d="M854.65,754.62c-0.15,0-0.3-0.01-0.45-0.03c-5.9-0.73-7.1-16.25-5.24-31.2c1.86-14.95,6.84-29.71,12.72-28.97
							c5.9,0.73,7.1,16.25,5.24,31.2c-0.97,7.78-2.69,15.01-4.84,20.36C859.79,751.72,857.29,754.62,854.65,754.62z M861.24,697.2
							c-2.22,0-7.3,8.88-9.5,26.54c-2.23,17.93,0.64,27.8,2.8,28.07c0.72,0.09,2.67-1.23,4.94-6.87c2.06-5.13,3.72-12.12,4.66-19.66
							c2.23-17.93-0.64-27.81-2.8-28.07C861.31,697.21,861.28,697.2,861.24,697.2z"/>
					</g>
					<g>
						<path d="M846.47,770.3c-0.03,0-0.06,0-0.09,0l-16.94-1.1c-0.77-0.05-1.36-0.72-1.31-1.49c0.05-0.77,0.72-1.34,1.49-1.31
							l16.94,1.1c0.77,0.05,1.36,0.72,1.31,1.49C847.82,769.73,847.21,770.3,846.47,770.3z"/>
					</g>
					<g>
						<path d="M960.28,604.13c-0.21,0-0.42-0.01-0.62-0.04c-3.93-0.49-6.85-4.84-8.46-12.59c-1.48-7.15-1.63-16.41-0.43-26.06
							c2.99-24.02,11.54-36.11,18.08-35.3c6.54,0.81,11.87,14.64,8.89,38.65l0,0C974.85,592.05,966.73,604.13,960.28,604.13z
							 M968.16,532.9c-5.05,0-12.16,13.19-14.61,32.88c-1.16,9.36-1.02,18.29,0.39,25.15c1.28,6.19,3.54,10.07,6.05,10.38
							c5.03,0.64,12.45-12.71,14.95-32.86c2.51-20.15-1.39-34.89-6.45-35.52C968.39,532.91,968.28,532.9,968.16,532.9z
							 M976.35,568.62L976.35,568.62L976.35,568.62z"/>
					</g>
					<g>
						<path d="M961.76,593.27c-0.13,0-0.26-0.01-0.39-0.02c-5.32-0.66-6.11-14.15-4.59-26.39c0.81-6.54,2.26-12.62,4.07-17.11
							c2.08-5.18,4.41-7.65,6.84-7.35c2.46,0.31,4.09,3.27,4.84,8.8c0.65,4.8,0.56,11.05-0.25,17.59l0,0
							C970.79,580.72,966.89,593.27,961.76,593.27z M967.31,545.17c-0.48,0-2,0.98-3.86,5.61c-1.72,4.28-3.1,10.11-3.89,16.41
							c-1.82,14.65,0.47,23.05,2.15,23.26c1.7,0.23,5.96-7.37,7.78-22.03l0,0c0.78-6.3,0.87-12.29,0.25-16.87
							c-0.69-5.09-1.97-6.34-2.4-6.4C967.33,545.17,967.32,545.17,967.31,545.17z"/>
					</g>
					<g>
						<path d="M957.2,607.26c-0.03,0-0.06,0-0.09,0l-14.19-0.93c-0.77-0.05-1.36-0.72-1.31-1.49c0.05-0.77,0.74-1.36,1.49-1.31
							l14.19,0.93c0.77,0.05,1.36,0.72,1.31,1.49C958.55,606.69,957.94,607.26,957.2,607.26z"/>
					</g>
					<g>
						<path d="M702.14,500.37l-44.66,83.37c-1.5,2.8-0.59,6.29,2.09,7.99c14.69,9.28,65.82,34.8,175.27,27.27
							c2.56-0.18,4.74-1.93,5.44-4.4l25.54-89.7c1.05-3.69-1.53-7.41-5.35-7.72c-27.23-2.19-122-10.33-151.11-19.73
							C706.56,496.55,703.53,497.78,702.14,500.37z"/>
					</g>
					<g>
						<path d="M868.61,565.42c0,0,5.71-49.21,36.21-74.84c2.08-1.75,5.26-0.24,5.26,2.47v53.39c0,6.11-1.9,12.07-5.43,17.05
							l-9.55,13.46c0,0-6.75,1.09-10.07,5.89c-3.01,4.36-3.68,11.43-3.68,11.43l-10.31,8.47L868.61,565.42z"/>
					</g>
					<g>
						<path d="M914.26,487.33v55.63c0,2.43,3.11,3.44,4.54,1.47l29.35-40.36c2.23-3.06,3.36-6.79,3.22-10.58l-1.51-39.98
							c-0.09-2.35-2.92-3.48-4.61-1.84l-27.11,26.45C915.66,480.54,914.26,483.86,914.26,487.33z"/>
					</g>
					<g>
						<path d="M953.71,449.29l2.01,40.96c0.06,1.13,1.49,1.58,2.18,0.68l15.33-20.07c0.3-0.39,0.43-0.88,0.37-1.36l-4.32-37.07
							c-0.19-1.63-2.24-2.25-3.3-1l-10.32,12.16C954.3,445.17,953.61,447.21,953.71,449.29z"/>
					</g>
					<g>
						<path d="M863.42,509.59c-0.71,0-1.32-0.54-1.39-1.26c-0.05-0.48-0.97-11.88,15.83-30.37c16.43-18.08,72.02-68.11,72.58-68.61
							c0.57-0.52,1.46-0.47,1.98,0.1c0.52,0.58,0.47,1.46-0.1,1.98c-0.56,0.5-56.04,50.44-72.38,68.42
							c-15.97,17.57-15.12,28.1-15.11,28.2c0.08,0.77-0.49,1.46-1.26,1.54C863.52,509.58,863.47,509.59,863.42,509.59z"/>
					</g>
					<g>
						<path d="M869.5,617.52c-0.34,0-0.67-0.12-0.94-0.36c-0.57-0.52-0.62-1.4-0.1-1.98c0.29-0.32,7.24-7.91,18.42-10.38
							c5.42-1.19,21.9-4.83,23.81-11.89c1.9-7.02,2.13-11.55,0.71-13.48c-0.33-0.45-0.95-1.04-2.43-1.08c-6.51-0.18-13.76,0-13.83,0
							c-0.01,0-0.02,0-0.04,0c-0.76,0-1.38-0.6-1.4-1.37c-0.02-0.77,0.59-1.42,1.37-1.44c0.07,0,7.39-0.18,13.98,0
							c2,0.06,3.55,0.8,4.6,2.21c2.63,3.54,1.25,10.35-0.25,15.88c-2.08,7.71-14.95,11.48-25.92,13.9
							c-10.27,2.26-16.88,9.44-16.94,9.52C870.27,617.36,869.88,617.52,869.5,617.52z"/>
					</g>
				</g>
				<g>
					<path class="st1" d="M925.83,588.42c-1.53,0-2.71-0.7-3.34-1.18c-1.7-1.3-2.38-3.83-2.03-7.5c0.87-9.12,7.74-24.66,16.71-37.47
						c-0.09-0.15-0.19-0.29-0.29-0.42c-0.34-0.42-1.13-1.41-3.93,0.33c-16.88,10.55-23.26,30.59-23.32,30.79l-3.42-1.06
						c0.27-0.87,6.8-21.49,24.84-32.77c4.4-2.75,7.01-1.28,8.3,0.11c5.49-7.28,11.61-13.34,17.55-16.31l1.6,3.2
						c-5.81,2.9-11.9,9.17-17.32,16.62c3.09,10.69-3.21,35.79-10.41,43.17C928.94,587.83,927.24,588.42,925.83,588.42z
						 M938.39,546.83c-7.75,11.75-13.61,25.31-14.37,33.25c-0.25,2.63,0.17,3.96,0.65,4.32c0.49,0.38,1.5,1.15,3.56-0.96
						C934.25,577.27,939.31,557.02,938.39,546.83z"/>
				</g>
			</g>
			<g>
				<path d="M761.4,889.86c-0.62,0-1.18-0.41-1.35-1.04c-0.2-0.75,0.24-1.52,0.99-1.72c40.31-10.88,77.46-32.42,110.42-64.03
					c26.41-25.32,50.2-57.12,70.72-94.52c34.98-63.75,48.47-122.42,48.61-123.01c0.17-0.75,0.92-1.23,1.68-1.06
					c0.76,0.17,1.23,0.92,1.06,1.68c-0.13,0.59-13.69,59.59-48.85,123.68c-20.66,37.66-44.63,69.71-71.25,95.23
					c-33.31,31.95-70.88,53.73-111.66,64.74C761.64,889.85,761.52,889.86,761.4,889.86z"/>
			</g>
			<g>
				<path d="M515.37,725.08c-0.57,0-1.11-0.35-1.32-0.92c-0.27-0.73,0.1-1.53,0.83-1.8c0.51-0.19,51.53-19,71.58-28.67
					c0.7-0.34,1.54-0.04,1.87,0.65c0.34,0.7,0.04,1.54-0.65,1.87c-20.17,9.72-71.32,28.58-71.83,28.77
					C515.69,725.05,515.53,725.08,515.37,725.08z"/>
			</g>
			<g>
				<g>
					<g>
						<g>
							<path class="st2" d="M214.4,423.38c0,0,8.68-9.56,27.57,6.47c18.9,16.03,23.09,43.99,23.09,43.99s14.04-4.92,21.26-1.62
								c0,0-4.06-60.44-29.45-64.85C256.87,407.36,226.14,405.26,214.4,423.38z"/>
						</g>
						<g>
							<path class="st2" d="M521.61,477.41l41.16-3.14c-11.37-10.85-32.75-31.78-30.02-33.55c1.75-1.14,12.12,4.33,22.59,10.41
								c1.76,0.08,3.58,0.22,5.32,0.41c-14.63-11.5-32.52-24.39-30.76-28.51c0.4-0.94,3.9-0.08,8.62,1.57
								c-5.27-4.14-7.82-7.43-7.46-9.43c1.3-7.26,36.46,6.07,36.46,6.07c-15.03-9.26-25.97-20.57-26.98-25.14
								c-2.35-10.61,46.83,9.46,49.63,10.65l9.21-32.93c1.88-6.71-3.48-13.24-10.43-12.71l-42.85,3.27
								c-4.21,0.32-7.77,3.24-8.9,7.31l-26.04,93.01C509.29,471.4,514.66,477.94,521.61,477.41z"/>
						</g>
						<g>
							<path d="M572.07,499.3c-1.44,0-2.31-0.18-2.46-0.21c-0.75-0.17-1.23-0.92-1.06-1.68c0.17-0.75,0.92-1.23,1.67-1.06
								c0.23,0.04,16.95,3.15,34.21-26.07c9.76-16.52,13.25-29.94,10.37-39.89c-1.9-6.56-6.68-11.84-14.2-15.69
								c-17.89-9.16-43.36-15.61-46.47-12.91c-0.05,0.04-0.14,0.12,0.01,0.55c1.87,5.45,28.83,23.32,46.49,34.01
								c0.63,0.38,0.86,1.18,0.52,1.84c-0.33,0.65-1.12,0.94-1.8,0.65c-0.15-0.07-15.58-6.6-31.29-12.22
								c-30.39-10.88-32.56-7.88-32.63-7.75c0,0.01-0.13,0.65,1.33,2.4c1.28,1.53,3.19,3.28,5.54,5.15
								c16.26,5.83,50.31,22.5,51.57,27.43c0.19,0.73-0.03,1.45-0.59,1.92c-0.77,0.65-2.81,2.38-22.67-8.23
								c-9.03-4.83-21.43-12.2-29.7-18.68c-2.84-1.02-5.04-1.65-6.3-1.74c3,4.95,26.12,23.83,48.19,40.32
								c0.6,0.45,0.74,1.3,0.31,1.92s-1.28,0.79-1.91,0.38c-18.26-11.71-38.69-23.53-43.87-24.65c2.51,4.81,19.77,22.27,36.33,37.62
								c0.57,0.53,0.6,1.41,0.08,1.98c-0.53,0.57-1.42,0.6-1.98,0.08c-11.42-10.59-37.95-35.75-37.52-40.7
								c0.05-0.63,0.36-1.15,0.87-1.48c1.12-0.73,3-1.95,25.23,11.07c-1.15-0.91-2.31-1.84-3.47-2.77
								c-24.76-19.86-25.17-22.83-25.34-24.11c-0.1-0.75,0.15-1.27,0.38-1.57c0.83-1.08,2.47-0.97,4.03-0.68
								c-2.99-3.02-3.92-5.24-3-6.97c1.43-2.69,6.81-4.04,35.95,6.38c5.81,2.08,11.59,4.28,16.58,6.24
								c-13.51-8.71-32.13-21.48-34-26.93c-0.66-1.93,0.22-3.07,0.81-3.58c5.48-4.76,35.44,5.29,49.58,12.53
								c8.24,4.22,13.49,10.07,15.61,17.4c3.11,10.72-0.48,24.88-10.65,42.1C592.16,496.56,577.72,499.3,572.07,499.3z
								 M591.73,453.5L591.73,453.5C591.73,453.5,591.73,453.5,591.73,453.5z M552.02,433.35c13.78,9.04,31.88,18.42,37.99,19.96
								C585.04,449.15,566.52,439.69,552.02,433.35z"/>
						</g>
						<g>
							<path d="M557.58,549.03c-0.73,0-1.34-0.56-1.4-1.3l-2.17-28.47c-1.86-2.67-13.6-20.04-11.57-30.83
								c2.13-11.32,6.57-14.13,7.07-14.42c0.67-0.38,1.53-0.15,1.91,0.53c0.38,0.67,0.15,1.51-0.51,1.9
								c-0.11,0.07-3.85,2.56-5.72,12.51c-1.94,10.29,11.19,28.82,11.32,29.01c0.15,0.21,0.24,0.45,0.26,0.71l2.2,28.86
								c0.06,0.77-0.52,1.45-1.29,1.5C557.65,549.02,557.62,549.03,557.58,549.03z"/>
						</g>
						<g>
							<path d="M603.07,489.53c-0.52,0-1.02-0.29-1.26-0.79l-3.74-7.73c-0.34-0.7-0.04-1.54,0.65-1.87c0.7-0.34,1.54-0.04,1.87,0.65
								l3.74,7.73c0.34,0.7,0.04,1.54-0.65,1.87C603.48,489.48,603.27,489.53,603.07,489.53z"/>
						</g>
						<g>
							<path d="M575.14,539.83c-0.77,0-1.39-0.62-1.4-1.38c-0.01-0.77,0.61-1.41,1.38-1.42c15.46-0.19,26.23-4.45,32.03-12.66
								c8.6-12.18,3.48-29.43,2.91-31.24l-0.88-1.36c-0.15,3.46-1.16,7.69-3.66,12.77c-3.68,7.46-12.4,12.86-25.91,16.04
								c-9.89,2.33-18.59,2.54-18.96,2.54c-0.79,0.06-1.42-0.6-1.43-1.37s0.6-1.42,1.37-1.43c0.34-0.01,34.48-0.93,42.41-17.02
								c3.86-7.83,3.82-13.28,2.77-16.81l-3.63-5.64c-0.37-0.57-0.27-1.31,0.21-1.78c0.49-0.46,1.24-0.51,1.79-0.12
								c0.21,0.15,2.83,2.12,4.21,6.36l4.15,6.45c0.06,0.09,0.11,0.2,0.15,0.3c0.28,0.81,6.65,19.92-3.21,33.9
								c-6.34,8.99-17.88,13.66-34.29,13.86C575.16,539.83,575.15,539.83,575.14,539.83z"/>
						</g>
						<g>
							<path class="st3" d="M611.34,492.52"/>
						</g>
						<g>
							<path d="M580.99,600.17c-31.68,0-63.72-16.41-66.48-18.53c-0.61-0.47-0.73-1.35-0.25-1.97c0.47-0.61,1.35-0.73,1.97-0.25
								c3.19,2.46,51.39,26.41,86.65,14.69c17.3-5.75,29-19.15,34.77-39.83c9.38-33.59-26.76-60.36-27.13-60.63
								c-0.63-0.46-0.76-1.33-0.31-1.96c0.46-0.63,1.33-0.76,1.96-0.31c0.38,0.28,38.07,28.21,28.18,63.65
								c-6.04,21.63-18.35,35.67-36.59,41.73C596.48,599.19,588.75,600.17,580.99,600.17z"/>
						</g>
						<g>
							<path d="M498.29,720.81c-0.84,0-1.68-0.12-2.5-0.38c-22.27-6.88-48.76-5.96-59.12-5.25c-4.15,0.28-7.87-2.44-8.82-6.49
								c-20.96-89.03-35.35-227.62-31.48-254.49c4.48-31.12-3.28-47.09-3.36-47.25c-0.24-0.48-0.18-1.06,0.15-1.49
								c0.33-0.43,0.87-0.62,1.4-0.51l17.51,3.76c2.56,0.29,61.67,7.37,102.19,47.52c0.55,0.54,0.55,1.43,0.01,1.98
								c-0.54,0.55-1.43,0.56-1.98,0.01c-40.5-40.12-99.99-46.67-100.58-46.73c-0.05,0-0.1-0.01-0.15-0.02l-14.97-3.22
								c2.09,5.75,6.2,21.13,2.57,46.35c-3.84,26.68,10.53,164.67,31.44,253.45c0.64,2.71,3.11,4.51,5.9,4.34
								c10.51-0.72,37.42-1.65,60.14,5.37c1.53,0.47,3.14,0.29,4.53-0.51c1.38-0.8,2.33-2.11,2.68-3.67
								c4.44-20.13,7.19-62.03,3.31-110.25c-3.14-38.95-11.65-95.03-34.41-140.93c-0.34-0.69-0.06-1.54,0.63-1.88
								c0.69-0.35,1.54-0.06,1.88,0.63c22.96,46.3,31.54,102.75,34.7,141.95c3.91,48.51,1.13,90.75-3.36,111.08
								c-0.51,2.3-1.97,4.31-4,5.49C501.25,720.42,499.77,720.81,498.29,720.81z"/>
						</g>
						<g>
							<path class="st3" d="M260.33,494.27"/>
						</g>
						<g>
							<path class="st4" d="M260.74,477.25"/>
						</g>
						<g>
							<path d="M235.41,603.8c-0.61,0-1.17-0.4-1.35-1.02c-0.21-0.75,0.22-1.52,0.96-1.73c15.72-4.48,24.73-12.13,29.52-17.75
								c5.18-6.09,6.68-11.19,6.7-11.24c0.21-0.74,0.98-1.18,1.73-0.96c0.74,0.21,1.18,0.98,0.97,1.73
								c-0.25,0.89-6.5,21.89-38.15,30.92C235.67,603.78,235.54,603.8,235.41,603.8z"/>
						</g>
						<g>
							<path d="M247.03,613.35c-3.54,0-7.77-1.48-12.64-4.44c-17.1-10.38-17.24-31.21-16.5-39.69c0.93-10.74,4.52-19.96,8.36-21.46
								l17.94-7.02c0.72-0.28,1.53,0.07,1.82,0.79c0.28,0.72-0.07,1.53-0.79,1.82l-17.94,7.02c-2.13,0.83-5.67,8.5-6.59,19.09
								c-0.69,7.95-0.59,27.49,15.17,37.05c6.69,4.06,11.77,5.06,15.11,3c6.03-3.73,5.05-16.36,5.04-16.49
								c-0.06-0.77,0.51-1.45,1.28-1.51c0.79-0.08,1.45,0.51,1.51,1.28c0.05,0.59,1.13,14.46-6.35,19.1
								C250.86,612.86,249.05,613.35,247.03,613.35z"/>
						</g>
						<g>
							<path d="M230.25,751.39c-1.68,0-3.35-0.41-4.87-1.24c-2.95-1.6-4.92-4.55-5.28-7.89c-2.37-22.18-5.14-64.15,2.94-95.94
								c0.19-0.75,0.96-1.21,1.7-1.01c0.75,0.19,1.21,0.95,1.01,1.7c-7.97,31.37-5.21,72.96-2.87,94.96
								c0.26,2.46,1.66,4.54,3.83,5.72c2.17,1.18,4.69,1.21,6.89,0.09c39.81-20.26,90.15-33.76,131.38-35.25
								c3.65-0.13,6.63-2.86,7.08-6.49c4.13-33.55,14.95-151.12-19.31-255.47c-6.98-21.27-30.75-35.66-46.49-45.18
								c-0.52-0.31-1.02-0.62-1.52-0.92l-0.27,5.17c-0.02,0.39-0.2,0.75-0.5,1c-0.3,0.25-0.69,0.36-1.07,0.32
								c-0.49-0.06-49.68-5.75-83.58,11.07c-24.92,12.36-92.07,105.99-102.22,168.42c-2.99,18.37-0.47,31.7,7.47,39.61
								c33.55,33.38,95.05,1.7,110.24-6.96c-13.28-2.16-22.69-7.88-27.99-17.04c-12.15-20.97,1.42-52.15,2-53.47
								c0.18-0.4,0.53-0.69,0.95-0.79l16.63-4.09c0.75-0.18,1.51,0.27,1.7,1.03c0.19,0.75-0.27,1.51-1.03,1.7l-15.94,3.92
								c-1.84,4.5-12.41,32.14-1.87,50.31c5.36,9.24,15.42,14.68,29.91,16.18c0.59,0.06,1.08,0.49,1.22,1.07s-0.11,1.19-0.61,1.5
								c-0.19,0.12-19.42,12.22-43.24,19.32c-31.82,9.47-57.38,5.77-73.93-10.69c-8.62-8.58-11.4-22.73-8.26-42.04
								c9.69-59.57,75.71-156.57,103.74-170.48c31.29-15.52,75.08-12.31,83.67-11.5l0.27-5.21c-4.49-2.77-7.7-4.95-9.08-6.81
								c-1.76-2.37-1.6-4.47-1.16-5.8c1.79-5.41,11.21-8.4,12.28-8.73c0.44-0.13,0.91-0.04,1.27,0.24s0.56,0.72,0.54,1.18
								l-0.96,18.41c0.91,0.55,1.84,1.12,2.8,1.7c16.08,9.74,40.39,24.45,47.7,46.71c34.44,104.9,23.58,222.99,19.43,256.68
								c-0.62,5.01-4.72,8.77-9.76,8.95c-40.84,1.47-90.74,14.86-130.21,34.94C233.43,751.02,231.84,751.39,230.25,751.39z
								 M302.98,384.83c-3.06,1.2-7.61,3.51-8.52,6.25c-0.34,1.04-0.1,2.11,0.75,3.25c0.97,1.32,3.59,3.14,6.99,5.28L302.98,384.83z
								"/>
						</g>
						<g>
							<path d="M149.88,560.57c-0.7,0-1.31-0.53-1.39-1.24c-0.09-0.77,0.46-1.47,1.23-1.56l51.07-6.02c0.76-0.1,1.47,0.46,1.56,1.23
								s-0.46,1.47-1.23,1.56l-51.07,6.02C149.99,560.56,149.94,560.57,149.88,560.57z"/>
						</g>
						<g>
							<path d="M180.65,552.23c-0.18,0-0.36-0.03-0.53-0.1l-21.86-8.93c-0.72-0.29-1.06-1.11-0.77-1.83
								c0.29-0.72,1.11-1.06,1.83-0.77l21.86,8.93c0.72,0.29,1.06,1.11,0.77,1.83C181.73,551.9,181.21,552.23,180.65,552.23z"/>
						</g>
						<g>
							<path class="st2" d="M226.24,640.7c1.94,3.58,20.33,3.09,44.16-13.9s31.42-55.94,29.86-92.52c0,0-13.17-9.58-20.65,1.58
								c0,0,0.84,54.13-19.12,79.45C246.57,632.95,223.85,636.29,226.24,640.7z"/>
						</g>
						<g>
							<path d="M299.55,503.61c-0.2,0-0.39-0.04-0.58-0.13c-0.7-0.32-1.01-1.15-0.69-1.86c0.03-0.06,2.91-6.48,0.64-10.68
								c-1.04-1.93-3.09-3.15-6.1-3.62c-17.24-2.7-31.51,7.94-31.65,8.05c-0.61,0.47-1.5,0.35-1.96-0.27
								c-0.47-0.62-0.35-1.5,0.27-1.96c0.62-0.47,15.38-11.48,33.78-8.59c3.93,0.62,6.66,2.32,8.14,5.07
								c2.92,5.44-0.43,12.85-0.57,13.17C300.59,503.31,300.08,503.61,299.55,503.61z"/>
						</g>
						<g>
							<path d="M298.25,517.52c-0.38,0-0.77-0.16-1.05-0.47c-0.51-0.58-0.47-1.46,0.11-1.98l0,0c0.04-0.04,4.16-3.79,3.44-7.38
								c-0.45-2.26-2.79-4.14-6.94-5.6c-16.02-5.62-27.62,7.49-28.11,8.05c-0.51,0.58-1.39,0.65-1.98,0.14
								c-0.58-0.51-0.65-1.39-0.14-1.98c0.13-0.15,13.32-15.11,31.16-8.86c5.16,1.81,8.11,4.4,8.76,7.71
								c1.02,5.17-4.11,9.82-4.33,10.01C298.91,517.4,298.58,517.52,298.25,517.52z"/>
						</g>
						<g>
							<path d="M255.84,566.24c-0.42,0-0.83-0.19-1.11-0.54c-1.75-2.26-6.15-8.62-9.27-18.98c-3.56-11.82-4.3-24.84-2.22-38.69
								c0.11-2.02,2.44-36.62,32.89-37.99c9.38-0.43,16.16,1.65,20.19,6.17c4.78,5.36,3.76,12.09,3.71,12.37
								c-0.12,0.77-0.84,1.29-1.61,1.16c-0.76-0.12-1.28-0.84-1.16-1.61c0.01-0.05,0.84-5.74-3.06-10.09
								c-3.44-3.84-9.49-5.59-17.94-5.21c-11.96,0.54-20.67,6.59-25.89,17.98c-3.96,8.66-4.33,17.31-4.33,17.4
								c0,0.05-0.01,0.11-0.01,0.16c-0.88,5.8-4.47,35.74,10.92,55.6c0.47,0.61,0.36,1.49-0.25,1.97
								C256.44,566.15,256.14,566.24,255.84,566.24z"/>
						</g>
						<g>
							<path d="M272.59,573.85c-0.23,0-0.46-0.05-0.67-0.17c-0.68-0.37-0.93-1.22-0.56-1.9c3.73-6.85,1.94-29.16,1.92-29.39
								c-0.03-0.32,0.06-0.64,0.24-0.91c7.77-11.39,13.52-15.49,26.29-9.02c1.16-1.81,3.37-5.89,2.54-9.61
								c-0.5-2.26-2.1-4.11-4.75-5.49c-6.06-3.14-12.29-2.66-18.52,1.44c-4.79,3.16-7.79,7.36-7.82,7.41
								c-0.45,0.63-1.32,0.78-1.95,0.34c-0.63-0.45-0.79-1.32-0.34-1.95c0.13-0.18,13.19-18.41,29.92-9.72
								c3.43,1.78,5.52,4.27,6.21,7.39c1.37,6.23-3.52,12.61-3.73,12.88c-0.42,0.54-1.17,0.7-1.77,0.38
								c-11.51-6.18-16.05-3.66-23.49,7.15c0.26,3.5,1.55,23.41-2.29,30.46C273.57,573.58,273.09,573.85,272.59,573.85z"/>
						</g>
						<g>
							<path d="M305.7,379.28c-0.76,0-1.38-0.61-1.4-1.37l-0.57-27.36c-3.82-0.66-15.55-3.32-21.12-11.62
								c-3.05-4.55-3.74-10.01-2.04-16.24c2.87-10.51,8.82-11.18,12.1-10.65c1.95,0.32,4.02,1.21,6.08,2.57
								c1.08-1.21,2.42-2.11,3.69-2.97c4.15-2.79,8.44-5.67,4.45-19.98c-2.71-9.73-1.02-20.09,4.65-28.41
								c5.49-8.08,14.17-13.29,23.8-14.3c0.5-0.05,1.01-0.1,1.53-0.14c16.98-1.29,28.02,6.82,37.77,13.98
								c9.31,6.84,17.34,12.74,28.76,9.9c6.58-1.63,9.78-5.4,9.52-11.19c-0.17-3.76-1.86-8.37-4.68-12.93
								c-3.74,0.14-7.65-0.81-10.74-2.95c-7.17-4.97-10.23-8.94-9.09-11.79c0.65-1.62,2.57-2.39,5.01-2.01
								c3.88,0.6,9.21,4.68,13.93,10.63c0.84,1.05,1.62,2.12,2.34,3.19c3.2-0.45,6-1.86,7.46-3.88c3.2-4.43-0.07-10.8-8.96-17.47
								c-8.96-6.73-19.36-10.83-28.61-12.88c-5.63,3.01-14.47,4.77-19.49,5.25c-5.98,0.58-7.24-0.39-7.69-1.42
								c-0.89-2.03-0.37-4,1.43-5.42c3.96-3.13,13.87-3.7,25.27-1.33c1.25-0.74,2.17-1.53,2.64-2.34c0.25-0.43,1-1.75-2.63-3.89
								c-27.09-16-47.21-4.81-59.32,7.4c-6.57,6.62-14.57,11.61-23.79,14.83c-8.92,3.12-20.58,9.86-25.43,24.27
								c-8.67,25.76,16.19,57.08,16.45,57.39c0.49,0.6,0.39,1.49-0.21,1.97c-0.6,0.49-1.49,0.39-1.97-0.21
								c-0.27-0.33-6.59-8.24-11.9-19.59c-7.09-15.16-8.82-29.14-5.02-40.45c5.21-15.49,17.65-22.7,27.16-26.03
								c8.82-3.08,16.47-7.85,22.73-14.16c10.49-10.57,32.58-25.65,62.73-7.84c3.27,1.93,4.67,4.08,4.15,6.39
								c-0.25,1.12-0.96,2.15-2.01,3.09c9.15,2.34,18.93,6.52,27.2,12.73c14.62,10.97,11.55,18.59,9.55,21.35
								c-1.79,2.48-4.77,4.1-8.12,4.79c2.68,4.6,4.25,9.2,4.42,13.17c0.22,5.03-1.62,11.54-11.65,14.04
								c-12.68,3.16-21.63-3.41-31.09-10.36c-9.81-7.21-19.95-14.66-35.89-13.44c-0.49,0.04-0.97,0.08-1.45,0.13
								c-8.81,0.92-16.74,5.7-21.77,13.09c-5.2,7.64-6.75,17.15-4.27,26.08c4.53,16.25-1.08,20.03-5.59,23.06
								c-1.16,0.78-2.2,1.48-3,2.32c1.28,1.07,2.54,2.32,3.73,3.72c2.75,3.23,5.62,7.92,5.43,11.4c-0.21,3.77-2.02,6.28-4.59,6.39
								c-0.05,0-0.11,0-0.16,0c-3.1,0-7.18-3.83-8.74-14.72c-0.37-2.61-0.09-4.57,0.58-6.13c-1.65-1.1-3.37-1.88-5.03-2.15
								c-4.18-0.68-7.19,2.22-8.94,8.62c-1.48,5.41-0.92,10.1,1.66,13.94c5.86,8.73,20.19,10.57,20.34,10.58
								c0.69,0.08,1.22,0.67,1.23,1.36l0.59,28.54c0.02,0.77-0.6,1.42-1.37,1.43C305.72,379.28,305.71,379.28,305.7,379.28z
								 M299.58,318.73c-0.3,1.04-0.37,2.31-0.13,3.95c1.29,9.01,4.31,12.32,5.95,12.32c0.02,0,0.03,0,0.05,0
								c1.01-0.04,1.79-1.58,1.92-3.75C307.53,328.23,304.03,322.58,299.58,318.73z M392.22,234.53c-0.74,0-1.15,0.2-1.21,0.34
								c-0.23,0.58,0.76,3.36,8.08,8.44c2.19,1.51,4.74,2.29,7.25,2.46c-0.38-0.53-0.78-1.05-1.2-1.57
								c-4.17-5.26-9.06-9.12-12.17-9.6C392.7,234.55,392.45,234.53,392.22,234.53z M354.86,213.88c2.25,0.85,12.58-0.69,19.83-3.37
								c-9.06-1.37-16.39-0.66-19.13,1.52C354.84,212.6,354.63,213.15,354.86,213.88z"/>
						</g>
						<g>
							<path d="M366.53,394.09c-8.4,0-18.84-2.48-31.46-9.62c-0.67-0.38-0.91-1.24-0.53-1.91c0.38-0.68,1.24-0.91,1.91-0.53
								c22.77,12.88,37.85,9.96,46.49,5.24c12.47-6.82,17.5-20.18,18.03-29.56c1.21-21.71-3.83-77.81-3.88-78.37
								c-0.07-0.77,0.5-1.45,1.27-1.52c0.75-0.07,1.45,0.5,1.52,1.27c0.05,0.57,5.1,56.87,3.88,78.78
								c-0.74,13.29-8.38,25.8-19.48,31.86C379.91,392.12,374.03,394.09,366.53,394.09z"/>
						</g>
						<g>
							<path d="M363.26,433.02c-2.65,0-5.55-0.15-8.73-0.48c-0.77-0.08-1.33-0.77-1.25-1.54s0.79-1.33,1.54-1.25
								c29.92,3.11,33.22-10.4,33.47-11.77l-2.04-26.69c-0.06-0.77,0.52-1.45,1.29-1.5c0.77-0.04,1.45,0.52,1.5,1.29l2.05,26.86
								c0.01,0.09,0,0.18-0.01,0.27C391.02,418.87,389.02,433.02,363.26,433.02z"/>
						</g>
						<g>
							<path d="M377.64,343.83c-0.52,0-1.01-0.29-1.26-0.78c-0.34-0.69-0.06-1.53,0.63-1.88l0,0c0.03-0.01,2.6-1.32,4.83-3.66
								c2.82-2.96,3.79-6.17,2.9-9.52c-0.24-0.89-1.32-2.17-2.56-3.65c-3.75-4.44-10.01-11.88-7.52-25.66
								c1.1-6.06,3.68-10.46,7.69-13.08c5.99-3.92,12.89-2.34,13.18-2.27c0.75,0.18,1.22,0.93,1.04,1.69
								c-0.18,0.75-0.94,1.21-1.69,1.04c-0.06-0.01-6.06-1.36-11.02,1.91c-3.32,2.19-5.49,5.96-6.44,11.22
								c-2.26,12.48,3.26,19.03,6.9,23.36c1.52,1.81,2.73,3.24,3.13,4.74c2.21,8.28-5.04,14.36-9.19,16.42
								C378.06,343.79,377.84,343.83,377.64,343.83z"/>
						</g>
						<g>
							<path d="M325.08,298.37c-0.36,0-0.72-0.14-0.99-0.41c-0.55-0.55-0.55-1.43,0-1.98c0.17-0.17,17.18-16.86,35.15-5.57
								c0.66,0.41,0.85,1.28,0.44,1.93c-0.41,0.66-1.28,0.85-1.93,0.44c-6.71-4.21-14.04-4.65-21.78-1.31
								c-5.91,2.55-9.85,6.45-9.89,6.49C325.79,298.24,325.43,298.37,325.08,298.37z"/>
						</g>
						<g>
							<ellipse transform="matrix(0.0794 -0.9968 0.9968 0.0794 15.0811 629.6832)" cx="348.44" cy="306.68" rx="4.73" ry="3.68"/>
						</g>
						<g>
							<ellipse transform="matrix(0.0794 -0.9968 0.9968 0.0794 54.5994 666.4186)" cx="388.09" cy="303.65" rx="4.73" ry="3.68"/>
						</g>
						<g>
							<path d="M366.93,369.12c-14.53,0-19.23-11.6-19.67-17.85c-0.03-0.46,0.16-0.91,0.52-1.2c0.36-0.29,0.84-0.38,1.28-0.25
								c0.15,0.05,15.13,4.53,26.38,2.4c0.76-0.14,1.49,0.36,1.64,1.12c0.14,0.76-0.36,1.49-1.12,1.64
								c-9.45,1.79-20.91-0.68-25.59-1.88c0.94,4.25,4.45,13.59,17.36,13.21c6.9-0.22,9.6-9.89,9.63-9.99
								c0.2-0.75,0.97-1.19,1.72-0.99c0.75,0.2,1.19,0.97,0.99,1.72c-0.13,0.48-3.26,11.78-12.25,12.06
								C367.53,369.12,367.23,369.12,366.93,369.12z"/>
						</g>
						<g>
							<path d="M539.72,539.27c-0.22,0-0.44-0.05-0.65-0.16c-0.69-0.36-0.95-1.2-0.6-1.89l9.46-18.19c0.36-0.69,1.21-0.95,1.89-0.6
								c0.69,0.36,0.95,1.2,0.6,1.89l-9.46,18.19C540.71,539,540.22,539.27,539.72,539.27z"/>
						</g>
					</g>
					<g>
						<path class="st2" d="M197.01,724.87l-23.16,1.39c-50.44,3.03-91.35-40.29-85.44-90.48l19.36-164.18
							c6.74-61.93,86.82-70.52,106.63-68.44c16.06,1.69,1.7,10.28-22.53,30.99c-41.4,35.38-113.62,171.76-74.81,205.81
							c26.65,23.38,59.61,17.72,77.66,11.88c6.52-2.11,13.16,2.85,12.99,9.7l-1.35,53.66C206.21,720.37,202.16,724.56,197.01,724.87
							z"/>
					</g>
				</g>
				<g>
					<path class="st1" d="M426.28,898.11c-0.82,0-1.58-0.55-1.79-1.39l-17.42-67.44c-0.09-0.35-0.08-0.71,0.04-1.05l10.86-32.35
						c0.33-0.97,1.37-1.49,2.34-1.17c0.97,0.33,1.49,1.37,1.17,2.34l-10.68,31.83l17.28,66.91c0.25,0.99-0.34,2-1.33,2.25
						C426.59,898.09,426.44,898.11,426.28,898.11z"/>
				</g>
				<g>
					<path class="st5" d="M240.78,762.06c46.44-15.43,170.89-52.64,248-36.6c9.61,2,17.31,9.18,19.82,18.67l27.53,103.83
						c4.25,16.04-7.53,31.86-24.12,32.38l-259.97,8.11c-14.24,0.44-26.13-10.74-26.57-24.98l-2.35-76.14
						C222.77,775.93,229.96,765.66,240.78,762.06z"/>
				</g>
				<g>
					<path class="st1" d="M433.41,897.66c-0.64,0-1.22-0.44-1.37-1.1L407.5,786.92c-0.17-0.76,0.31-1.51,1.06-1.67
						c0.76-0.17,1.5,0.31,1.67,1.06l24.54,109.64c0.17,0.76-0.31,1.51-1.06,1.67C433.61,897.65,433.51,897.66,433.41,897.66z"/>
				</g>
				<g>
					<path class="st1" d="M250.36,835.66c-0.56,0-1.1-0.34-1.31-0.9c-0.28-0.72,0.09-1.53,0.81-1.81
						c32.59-12.42,50.86-69.12,51.04-69.7c0.23-0.74,1.02-1.14,1.76-0.91c0.74,0.23,1.15,1.02,0.91,1.76
						c-0.05,0.15-4.71,14.76-13.44,30.74c-11.8,21.59-25.01,35.3-39.28,40.74C250.7,835.63,250.53,835.66,250.36,835.66z"/>
				</g>
			</g>
		</g>
		<g>
			<g>
				<polygon class="st6" points="765.6,301.92 662.5,301.92 662.5,252.68 765.6,252.68 787.73,277.3 				"/>
			</g>
			<g>
				<polygon class="st6" points="573.27,245.99 657.11,245.99 657.11,195.63 573.27,195.63 555.28,220.81 				"/>
			</g>
			<g>
				<path d="M657.11,524.78c-0.77,0-1.4-0.63-1.4-1.4V189.13c0-3.75,3.05-6.79,6.79-6.79s6.79,3.05,6.79,6.79v321.53
					c0,0.77-0.63,1.4-1.4,1.4s-1.4-0.63-1.4-1.4V189.13c0-2.2-1.79-3.99-3.99-3.99s-3.99,1.79-3.99,3.99v334.24
					C658.51,524.15,657.88,524.78,657.11,524.78z"/>
			</g>
		</g>
	</g>
</g>
</svg>
