<svg width="20" height="20" viewBox="0 0 20 20" fill="none" xmlns="http://www.w3.org/2000/svg">
<path fill-rule="evenodd" clip-rule="evenodd" d="M0 10C0 15.51 4.49 20 10 20C15.51 20 20 15.51 20 10C20 4.49 15.51 0 10 0C4.49 0 0 4.49 0 10ZM6.65004 2.73603C4.19651 3.8725 2.4111 6.21663 2.06223 9H5.2436C5.35169 6.70497 5.82959 4.42632 6.65004 2.73603ZM7.24345 9C7.44751 4.69784 8.93993 2 10 2C11.0601 2 12.5525 4.69784 12.7566 9H7.24345ZM5.2436 11H2.06223C2.4111 13.7834 4.19651 16.1275 6.65004 17.264C5.8296 15.5737 5.35169 13.295 5.2436 11ZM7.24358 11H12.7564C12.5512 15.3022 11.0508 18 10 18C8.94923 18 7.44881 15.3022 7.24358 11ZM17.9378 11C17.5889 13.7834 15.8035 16.1275 13.35 17.264C14.1704 15.5737 14.6483 13.295 14.7564 11H17.9378ZM17.9378 9H14.7564C14.6483 6.70497 14.1704 4.42632 13.35 2.73603C15.8035 3.8725 17.5889 6.21663 17.9378 9Z" fill="#323942"/>
</svg>
