<svg width="108" height="40" viewBox="0 0 108 40" fill="none" xmlns="http://www.w3.org/2000/svg">
<g clip-path="url(#clip0_8698_201772)">
<path d="M0 18.6051C0 13.4405 0 10.857 0.725803 8.77961C2.04238 4.9991 5.02757 2.03178 8.82538 0.722039C10.9136 0 13.5105 0 18.7021 0C23.8936 0 26.4906 0 28.5788 0.722039C32.3766 2.03178 35.3618 5.0015 36.6784 8.77961C37.4042 10.857 37.4042 13.4405 37.4042 18.6051C37.4042 23.7697 37.4042 26.3532 36.6784 28.4306C35.3618 32.2087 32.3766 35.1784 28.5788 36.4882C26.4906 37.2102 23.8936 37.2102 18.7021 37.2102C13.5105 37.2102 10.9136 37.2102 8.82538 36.4882C5.02757 35.1784 2.04238 32.2087 0.725803 28.4306C0 26.3508 0 23.7697 0 18.6051Z" fill="#A7E92F"/>
<path fill-rule="evenodd" clip-rule="evenodd" d="M10.354 16.0264C9.92958 16.0264 9.64746 16.307 9.64746 16.7292V27.7397C9.64746 28.1619 9.92958 28.4426 10.354 28.4426H13.3416C13.766 28.4426 14.0505 28.1619 14.0505 27.7397V16.7292C14.0505 16.307 13.7684 16.0264 13.3416 16.0264H10.354Z" fill="black"/>
<path fill-rule="evenodd" clip-rule="evenodd" d="M10.354 8.74805C9.92958 8.74805 9.64746 9.02871 9.64746 9.4509V12.3031C9.64746 12.7253 9.92958 13.0059 10.354 13.0059H13.3416C13.766 13.0059 14.0505 12.7253 14.0505 12.3031V9.4509C14.0505 9.02871 13.7684 8.74805 13.3416 8.74805H10.354Z" fill="black"/>
<path fill-rule="evenodd" clip-rule="evenodd" d="M20.5181 24.192H18.1357C17.7113 24.192 17.4268 24.4726 17.4268 24.8948V27.7398C17.4268 28.162 17.7089 28.4402 18.1357 28.4426L20.5181 28.457C34.0961 28.457 34.0961 8.74609 20.5181 8.74609L18.1357 8.76049C17.7113 8.76049 17.4268 9.04115 17.4268 9.46334V12.3083C17.4268 12.7305 17.7113 13.0112 18.1357 13.0112H20.5181C28.2005 13.016 28.2005 24.1896 20.5181 24.1896" fill="black"/>
<path d="M84.3676 18.8785H83.2415L83.5984 16.8539L82.3252 13.5244H83.6152L84.3603 15.7025L85.7951 13.5244H87.1165L84.7244 16.8707L84.3676 18.8785Z" fill="black"/>
<path d="M90.5047 18.8785H86.4199L87.3676 13.5244H91.3221L91.1605 14.4599H88.2983L88.0958 15.6042H90.7289L90.5577 16.5469H87.9246L87.681 17.9262H90.671L90.4998 18.8785H90.5047Z" fill="black"/>
<path d="M95.6909 18.8785H94.4997L94.3526 17.7727H92.3657L91.7894 18.8785H90.5645L93.4339 13.5244H94.7384L95.6861 18.8785H95.6909ZM94.1911 16.8539L93.8993 14.7262H93.8921L92.8214 16.8539H94.1911Z" fill="black"/>
<path d="M100.18 18.8785H99.0785L99.3221 17.4992C99.3389 17.4033 99.3462 17.3169 99.3462 17.2402C99.3462 17.0626 99.2931 16.9427 99.1846 16.8779C99.0761 16.8132 98.8856 16.782 98.6083 16.782H97.4099L97.0361 18.8785H95.9414L96.889 13.5244H99.6211C100.053 13.5244 100.398 13.6444 100.651 13.8866C100.904 14.1289 101.032 14.4432 101.032 14.8294C101.032 15.1676 100.938 15.4722 100.747 15.7457C100.559 16.0168 100.301 16.2063 99.9779 16.3142C100.156 16.379 100.287 16.4629 100.366 16.5637C100.448 16.6668 100.487 16.8084 100.487 16.9907C100.487 17.0866 100.472 17.2114 100.446 17.3625L100.178 18.8785H100.18ZM99.2738 14.4527H97.8222L97.5715 15.88H98.9821C99.3124 15.88 99.556 15.8009 99.7127 15.6426C99.8694 15.4842 99.9466 15.2779 99.9466 15.0261C99.9466 14.8054 99.8959 14.6542 99.7971 14.5751C99.6958 14.4935 99.5222 14.4551 99.2738 14.4551V14.4527Z" fill="black"/>
<path d="M105.36 15.1055H104.29C104.29 15.1055 104.29 15.0743 104.294 15.0408C104.297 15.0096 104.299 14.988 104.299 14.976C104.299 14.7169 104.224 14.5394 104.077 14.4387C103.928 14.3403 103.687 14.2899 103.352 14.2899C103.016 14.2899 102.732 14.3523 102.549 14.4794C102.365 14.6066 102.274 14.7841 102.274 15.0168C102.274 15.2974 102.517 15.4941 103.004 15.6141C103.696 15.7868 104.2 15.9427 104.521 16.0818C104.943 16.2761 105.153 16.6264 105.153 17.1373C105.153 17.7394 104.924 18.212 104.463 18.5526C104.003 18.8932 103.448 19.0636 102.795 19.0636C101.396 19.0636 100.694 18.5766 100.694 17.6051C100.694 17.5091 100.702 17.3988 100.718 17.274H101.804C101.791 17.3604 101.787 17.4204 101.787 17.4516C101.787 17.9241 102.127 18.1616 102.809 18.1616C103.192 18.1616 103.491 18.0872 103.708 17.9361C103.925 17.785 104.032 17.5787 104.032 17.3148C104.032 17.015 103.79 16.8111 103.311 16.7103C102.532 16.5448 101.989 16.3601 101.681 16.1586C101.372 15.9571 101.218 15.6381 101.218 15.2039C101.218 14.6618 101.42 14.2156 101.825 13.8701C102.23 13.5223 102.795 13.3496 103.52 13.3496C104.104 13.3496 104.56 13.4815 104.885 13.7478C105.213 14.0141 105.375 14.3763 105.375 14.8321C105.375 14.8968 105.37 14.988 105.358 15.1055H105.36Z" fill="black"/>
<path fill-rule="evenodd" clip-rule="evenodd" d="M58.8004 7.94531H55.8876C55.4728 7.94531 55.1328 8.3795 55.0364 9.03437C54.8121 10.5504 53.5028 11.6754 51.962 11.6754H51.8583C51.4435 11.6754 51.1277 11.9489 51.0674 12.3615L50.8238 14.5588C50.7636 14.9714 50.9975 15.2449 51.4122 15.2449H54.1997L52.1669 30.8659C52.0705 31.5207 52.2803 31.9549 52.695 31.9549H54.2214C54.6361 31.9549 56.365 29.9015 56.4615 29.2467L59.3309 9.03437C59.4274 8.3795 59.2176 7.94531 58.8004 7.94531Z" fill="black"/>
<path fill-rule="evenodd" clip-rule="evenodd" d="M60.505 16.3119L60.3676 17.2906L60.2157 18.2693C59.5357 22.8726 62.0314 25.6888 65.4434 26.7179C65.8533 26.4996 66.2849 26.3245 66.719 26.171C67.616 25.8543 68.5564 25.6288 69.4871 25.4321C71.556 24.9956 73.6708 24.7821 75.7855 24.7509C77.6928 23.2708 79.1227 21.1119 79.5423 18.2693L79.6797 17.2906L79.8316 16.3119C81.5847 4.45463 62.2556 4.45463 60.5026 16.3119H60.505ZM75.6504 16.3119L75.431 17.7896L75.3611 18.2693C74.3652 24.9764 63.4082 24.9764 64.3993 18.2693L64.4692 17.7896L64.6886 16.3119C65.6797 9.60485 76.6367 9.60485 75.6504 16.3119Z" fill="black"/>
<path d="M72.8097 40.0004C71.1073 40.0004 70.0994 39.2856 69.5641 38.7171L69.5472 38.6979C68.5441 37.5944 68.426 36.0256 69.2193 34.392C70.5937 31.5686 74.6013 28.4646 79.9062 26.049C77.0608 25.2646 72.0405 25.8163 66.2799 27.5651C60.1166 29.4385 54.1148 32.3818 50.2254 35.4403L48.2168 32.912C52.4052 29.6184 58.8048 26.4688 65.3322 24.485C68.5128 23.5183 71.6016 22.8706 74.2637 22.6139C77.2417 22.3261 79.6699 22.5132 81.4856 23.1728C82.5538 23.5063 83.3712 23.9405 83.9933 24.4202C89.4839 22.5132 97.6389 20.7285 107.998 21.4145L107.783 24.6289C98.2924 23.998 90.7932 25.574 85.8259 27.2028C85.8935 27.4979 85.9248 27.7737 85.9369 28.0136C86.0647 30.5731 84.2996 33.0151 82.7949 34.6151C80.9889 36.5342 78.5848 38.2373 76.3616 39.1728C74.9341 39.7749 73.7622 39.998 72.8073 39.998L72.8097 40.0004ZM71.944 36.5294C72.2985 36.8844 73.4053 36.9228 75.1029 36.2079C76.9282 35.4379 78.9224 34.0202 80.4343 32.413C81.8328 30.9282 82.6671 29.4289 82.7057 28.3519C77.2899 30.5683 73.9671 33.195 72.6192 35.0181C71.9392 35.9393 71.9103 36.4478 71.9416 36.5246C71.9416 36.5246 71.9416 36.5246 71.9416 36.527L71.944 36.5294Z" fill="#A7E92F"/>
</g>
<defs>
<clipPath id="clip0_8698_201772">
<rect width="108" height="40" fill="white"/>
</clipPath>
</defs>
</svg>
