<svg width="148" height="66" viewBox="0 0 148 66" fill="none" xmlns="http://www.w3.org/2000/svg">
<path d="M25.3653 2.11998C25.2181 2.16324 24.6605 2.30928 24.1282 2.45384C20.3573 3.46991 18.2144 5.04645 17.2308 7.52126C17.0125 8.05719 16.7802 8.99736 16.7333 9.5217L16.709 9.83041L16.9928 9.8485C18.1652 9.92185 18.8584 9.87032 19.6403 9.64342C21.6009 9.06402 23.2062 7.45743 24.5725 4.69395C24.8749 4.08849 25.6776 2.26405 25.7113 2.11079C25.7268 2.04055 25.6702 2.04229 25.3653 2.11998Z" fill="#FAFAFA"/>
<path d="M14.7483 2.69445C12.9514 4.94257 11.9928 6.70836 11.607 8.45803C11.4141 9.33286 11.3697 9.81766 11.4194 10.5286C11.4778 11.455 11.844 12.6312 12.2985 13.3784L12.5471 13.7831L13.1191 13.373C13.8303 12.8713 14.3003 12.4137 14.8062 11.7364C15.3121 11.0592 15.6169 10.4142 15.8662 9.51088C16.3045 7.8921 16.2287 5.99447 15.6235 3.20748C15.4746 2.5496 15.345 2.00247 15.333 2.00001C15.3211 1.99756 15.0581 2.31076 14.7483 2.69445Z" fill="#FAFAFA"/>
<path d="M21.4168 10.3812C18.8521 10.75 17.2668 11.2728 15.8571 12.2187C14.3824 13.2047 13.5125 14.4547 12.9746 16.3267L12.7862 16.9823L13.6266 17.1144C16.7532 17.6015 19.1436 16.1224 21.421 12.2908C21.8678 11.5414 22.5525 10.2801 22.5282 10.2485C22.5177 10.2396 22.023 10.2985 21.4168 10.3812Z" fill="#FAFAFA"/>
<path d="M8.8631 10.0649C8.78811 10.1497 7.91997 11.874 7.67354 12.4241C6.29388 15.5319 6.07635 18.0502 7.01355 20.0977C7.16564 20.4292 7.40259 20.8582 7.54235 21.047C7.86308 21.4931 8.32112 22.0541 8.37498 22.0652C8.44082 22.0787 9.11464 21.3491 9.50049 20.8475C10.0916 20.0676 10.3894 19.4545 10.6418 18.4517C10.8122 17.7925 10.872 17.4644 10.8858 17.0334C10.9276 15.567 10.6456 14.2077 9.90592 12.3142C9.51231 11.3192 8.91168 10.0148 8.8631 10.0649Z" fill="#FAFAFA"/>
<path d="M15.3558 18.0093C13.9702 18.6197 13.3879 18.9343 12.388 19.6104C10.3071 21.0194 9.18755 22.5787 8.82461 24.5934C8.65353 25.5394 8.63453 26.59 8.79014 26.6219C9.22106 26.7102 10.7046 26.3935 11.4967 26.0352C13.2014 25.2832 14.5885 23.5318 15.5027 21.0027C15.8037 20.1767 16.336 18.3303 16.4088 17.858L16.4655 17.5159L15.3558 18.0093Z" fill="#FAFAFA"/>
<path d="M3.36379 19.3165C3.3564 19.4351 3.30465 19.8116 3.24938 20.1474C2.53196 24.7057 3.26781 27.7797 5.4872 29.5159C5.81743 29.7771 6.75602 30.3431 6.89966 30.3726C6.95352 30.3836 7.28726 29.6644 7.52066 29.0315C7.74843 28.4241 7.9519 27.2177 7.93499 26.6136C7.86561 24.6305 6.98685 22.8286 5.06248 20.7191C4.57346 20.1851 3.50461 19.1318 3.43279 19.1171C3.40286 19.1109 3.36977 19.2043 3.36379 19.3165Z" fill="#FAFAFA"/>
<path d="M13.5387 25.7394C12.1896 26.7511 11.4475 27.3933 10.6973 28.214C8.73036 30.3539 8.01995 32.611 8.52695 35.0775C8.67377 35.8017 8.65546 35.7713 8.9959 35.6742C9.58594 35.4947 10.4298 35.1003 10.9639 34.7492C12.1577 33.9593 13.0318 32.8036 13.5821 31.3012C13.8355 30.6056 14.1907 28.9098 14.284 27.9478C14.3614 27.1427 14.461 25.1876 14.4244 25.1267C14.4093 25.1102 14.0175 25.3837 13.5387 25.7394Z" fill="#FAFAFA"/>
<path d="M0.301799 28.2666C0.297574 28.2857 0.412001 28.8164 0.563395 29.4347C1.06229 31.5125 1.49358 32.6487 2.24418 33.8971C2.98246 35.1162 3.73411 35.8775 4.76494 36.4225C5.17368 36.6397 5.37294 36.7005 6.28266 36.8869C6.85722 37.0046 7.40607 37.0971 7.50887 37.0848C7.67434 37.0719 7.68455 37.054 7.70496 36.7912C7.92777 34.1072 7.15991 32.2279 5.19788 30.6579C4.22971 29.8856 3.07566 29.2754 1.28791 28.5887C0.227514 28.1779 0.314472 28.2091 0.301799 28.2666Z" fill="#FAFAFA"/>
<path d="M13.3364 34.1741C9.92498 37.3329 8.61467 40.0411 9.10618 42.9182C9.20618 43.486 9.37236 44.094 9.5336 44.4407L9.62585 44.6465L9.99515 44.4752C11.5882 43.7471 12.7024 42.694 13.4396 41.2232C13.7262 40.6612 13.7677 40.5295 14.0226 39.3737C14.3113 38.0647 14.3574 37.6003 14.3464 36.2031C14.3369 35.2535 14.2165 33.4735 14.1626 33.4624C14.1387 33.4575 13.7609 33.7806 13.3364 34.1741Z" fill="#FAFAFA"/>
<path d="M15.6203 40.0148C14.7318 41.2076 14.2111 42.0086 13.7383 42.9329C12.5347 45.2425 12.284 47.4003 12.9899 49.3336C13.2065 49.9119 13.6993 50.8538 13.8011 50.8747C13.9328 50.9016 15.0709 49.9669 15.5254 49.466C16.9241 47.9172 17.4638 45.9521 17.2198 43.2858C17.1543 42.5049 16.5621 39.5737 16.391 39.1582C16.3508 39.0566 16.2435 39.1747 15.6203 40.0148Z" fill="#FAFAFA"/>
<path d="M0.000496546 35.8734C-0.0220334 35.9756 0.727877 37.9646 1.07959 38.7241C1.52038 39.6754 2.3164 40.9731 2.81633 41.5427C3.31626 42.1124 4.00277 42.6868 4.5967 43.0288C5.04769 43.2814 5.17513 43.3275 6.13273 43.5237C7.03505 43.7152 7.25473 43.7402 7.76169 43.7106L8.33871 43.6753L8.32638 43.1923C8.20346 39.8634 6.50828 37.8208 2.83315 36.5873C1.93681 36.2835 0.017394 35.7968 0.000496546 35.8734Z" fill="#FAFAFA"/>
<path d="M18.7815 44.9406C18.1242 46.7014 17.5972 48.7225 17.48 49.9065C17.3621 51.1504 17.4814 52.3962 17.8106 53.3714C18.0356 54.0248 18.6214 54.9991 19.0981 55.5039C19.4629 55.8923 19.9642 56.3421 20.054 56.3605C20.1916 56.3887 21.0633 55.0456 21.4097 54.2689C21.6808 53.6637 21.9395 52.3486 21.9201 51.6705C21.8863 50.4622 21.6272 49.368 21.0702 48.0925C20.7671 47.3964 19.5954 45.3343 19.1775 44.7614L18.9557 44.4624L18.7815 44.9406Z" fill="#FAFAFA"/>
<path d="M4.92243 44.1901C4.36372 44.1423 2.36756 44.0604 2.33059 44.0862C2.28623 44.1171 3.53043 46.134 3.93319 46.6904C4.92108 48.0541 6.14027 49.1916 7.19821 49.7554C8.16144 50.2664 9.36266 50.4925 10.434 50.3717C11.1388 50.2958 11.9418 50.0866 11.9657 49.978C12.001 49.8184 11.6897 48.7335 11.4295 48.1262C10.7349 46.4822 9.50727 45.3831 7.67692 44.7478C7.10131 44.5497 5.66949 44.2631 4.92243 44.1901Z" fill="#FAFAFA"/>
<path d="M22.7865 51.4008C22.7668 51.4902 22.9995 52.8461 23.1808 53.6974C23.534 55.3582 23.9526 56.5519 24.5479 57.5682C25.2947 58.8625 26.1544 59.6727 27.3676 60.2416C27.7879 60.4345 29.4166 60.8216 29.5201 60.7494C29.6074 60.6939 29.7299 59.4575 29.7158 58.8406C29.7059 58.5449 29.6422 58.0113 29.5658 57.6486C29.0806 55.2533 27.4154 53.5572 23.912 51.8851C22.9435 51.4263 22.7964 51.3561 22.7865 51.4008Z" fill="#FAFAFA"/>
<path d="M11.425 51.2955C11.3384 51.2911 11.0772 51.2843 10.8353 51.2748C9.91717 51.2402 8.19597 51.4148 6.55117 51.7252L6.36212 51.7599L6.68038 52.1321C7.31867 52.8969 8.3393 53.9136 9.05891 54.5082C10.4242 55.6356 11.3843 56.1326 12.677 56.3975C13.6181 56.5836 14.3521 56.5738 15.222 56.3449C15.7262 56.2146 16.8394 55.7619 16.9453 55.6502C17.0217 55.559 16.8182 55.0635 16.4028 54.3377C15.7737 53.2477 15.0238 52.5067 14.0246 51.9883C13.643 51.79 13.3508 51.6968 12.5636 51.5221C12.0218 51.3978 11.513 51.2935 11.425 51.2955Z" fill="#FAFAFA"/>
<path d="M18.7337 56.9576C17.1072 56.8446 15.0674 57.4145 12.5221 58.6883L11.8194 59.0382L11.9806 59.158C12.3031 59.3976 13.5061 60.098 14.1476 60.4229C15.1946 60.9511 15.772 61.1696 16.7704 61.4075C18.4979 61.8282 19.8484 61.7178 21.2183 61.0374C21.7178 60.786 22.537 60.2197 22.9187 59.8507L23.1721 59.609L22.8613 59.2316C21.7135 57.8552 20.2691 57.0586 18.7337 56.9576Z" fill="#FAFAFA"/>
<path d="M25.8894 61.3003C23.9435 61.1886 21.802 61.9645 18.6613 63.924C18.5828 63.968 18.7303 64.0649 19.4031 64.3896C21.1529 65.2487 21.883 65.5118 23.273 65.7899C24.7692 66.0964 25.7447 66.0694 26.8903 65.6968C27.8338 65.3895 28.7897 64.7711 29.5818 63.959L30 63.5374L29.6807 63.1983C28.6245 62.0876 27.205 61.3763 25.8894 61.3003Z" fill="#FAFAFA"/>
<path d="M122.635 2.11998C122.782 2.16324 123.34 2.30928 123.872 2.45384C127.643 3.46991 129.786 5.04645 130.769 7.52126C130.988 8.05719 131.22 8.99736 131.267 9.5217L131.291 9.83041L131.007 9.8485C129.835 9.92185 129.142 9.87032 128.36 9.64342C126.399 9.06402 124.794 7.45743 123.428 4.69395C123.125 4.08849 122.322 2.26405 122.289 2.11079C122.273 2.04055 122.33 2.04229 122.635 2.11998Z" fill="#FAFAFA"/>
<path d="M133.252 2.69445C135.049 4.94257 136.007 6.70836 136.393 8.45803C136.586 9.33286 136.63 9.81766 136.581 10.5286C136.522 11.455 136.156 12.6312 135.701 13.3784L135.453 13.7831L134.881 13.373C134.17 12.8713 133.7 12.4137 133.194 11.7364C132.688 11.0592 132.383 10.4142 132.134 9.51088C131.696 7.8921 131.771 5.99447 132.376 3.20748C132.525 2.5496 132.655 2.00247 132.667 2.00001C132.679 1.99756 132.942 2.31076 133.252 2.69445Z" fill="#FAFAFA"/>
<path d="M126.583 10.3812C129.148 10.75 130.733 11.2728 132.143 12.2187C133.618 13.2047 134.488 14.4547 135.025 16.3267L135.214 16.9823L134.373 17.1144C131.247 17.6015 128.856 16.1224 126.579 12.2908C126.132 11.5414 125.447 10.2801 125.472 10.2485C125.482 10.2396 125.977 10.2985 126.583 10.3812Z" fill="#FAFAFA"/>
<path d="M139.137 10.0649C139.212 10.1497 140.08 11.874 140.326 12.4241C141.706 15.5319 141.924 18.0502 140.986 20.0977C140.834 20.4292 140.597 20.8582 140.458 21.047C140.137 21.4931 139.679 22.0541 139.625 22.0652C139.559 22.0787 138.885 21.3491 138.5 20.8475C137.908 20.0676 137.611 19.4545 137.358 18.4517C137.188 17.7925 137.128 17.4644 137.114 17.0334C137.072 15.567 137.354 14.2077 138.094 12.3142C138.488 11.3192 139.088 10.0148 139.137 10.0649Z" fill="#FAFAFA"/>
<path d="M132.644 18.0093C134.03 18.6197 134.612 18.9343 135.612 19.6104C137.693 21.0194 138.812 22.5787 139.175 24.5934C139.346 25.5394 139.365 26.59 139.21 26.6219C138.779 26.7102 137.295 26.3935 136.503 26.0352C134.799 25.2832 133.412 23.5318 132.497 21.0027C132.196 20.1767 131.664 18.3303 131.591 17.858L131.534 17.5159L132.644 18.0093Z" fill="#FAFAFA"/>
<path d="M144.636 19.3165C144.644 19.4351 144.695 19.8116 144.751 20.1474C145.468 24.7057 144.732 27.7797 142.513 29.5159C142.183 29.7771 141.244 30.3431 141.1 30.3726C141.046 30.3836 140.713 29.6644 140.479 29.0315C140.252 28.4241 140.048 27.2177 140.065 26.6136C140.134 24.6305 141.013 22.8286 142.938 20.7191C143.427 20.1851 144.495 19.1318 144.567 19.1171C144.597 19.1109 144.63 19.2043 144.636 19.3165Z" fill="#FAFAFA"/>
<path d="M134.461 25.7394C135.81 26.7511 136.553 27.3933 137.303 28.214C139.27 30.3539 139.98 32.611 139.473 35.0775C139.326 35.8017 139.345 35.7713 139.004 35.6742C138.414 35.4947 137.57 35.1003 137.036 34.7492C135.842 33.9593 134.968 32.8036 134.418 31.3012C134.164 30.6056 133.809 28.9098 133.716 27.9478C133.639 27.1427 133.539 25.1876 133.576 25.1267C133.591 25.1102 133.983 25.3837 134.461 25.7394Z" fill="#FAFAFA"/>
<path d="M147.698 28.2666C147.702 28.2857 147.588 28.8164 147.437 29.4347C146.938 31.5125 146.506 32.6487 145.756 33.8971C145.018 35.1162 144.266 35.8775 143.235 36.4225C142.826 36.6397 142.627 36.7005 141.717 36.8869C141.143 37.0046 140.594 37.0971 140.491 37.0848C140.326 37.0719 140.315 37.054 140.295 36.7912C140.072 34.1072 140.84 32.2279 142.802 30.6579C143.77 29.8856 144.924 29.2754 146.712 28.5887C147.772 28.1779 147.686 28.2091 147.698 28.2666Z" fill="#FAFAFA"/>
<path d="M134.664 34.1741C138.075 37.3329 139.385 40.0411 138.894 42.9182C138.794 43.486 138.628 44.094 138.466 44.4407L138.374 44.6465L138.005 44.4752C136.412 43.7471 135.298 42.694 134.56 41.2232C134.274 40.6612 134.232 40.5295 133.977 39.3737C133.689 38.0647 133.643 37.6003 133.654 36.2031C133.663 35.2535 133.784 33.4735 133.837 33.4624C133.861 33.4575 134.239 33.7806 134.664 34.1741Z" fill="#FAFAFA"/>
<path d="M132.38 40.0148C133.268 41.2076 133.789 42.0086 134.262 42.9329C135.465 45.2425 135.716 47.4003 135.01 49.3336C134.794 49.9119 134.301 50.8538 134.199 50.8747C134.067 50.9016 132.929 49.9669 132.475 49.466C131.076 47.9172 130.536 45.9521 130.78 43.2858C130.846 42.5049 131.438 39.5737 131.609 39.1582C131.649 39.0566 131.757 39.1747 132.38 40.0148Z" fill="#FAFAFA"/>
<path d="M148 35.8734C148.022 35.9756 147.272 37.9646 146.92 38.7241C146.48 39.6754 145.684 40.9731 145.184 41.5427C144.684 42.1124 143.997 42.6868 143.403 43.0288C142.952 43.2814 142.825 43.3275 141.867 43.5237C140.965 43.7152 140.745 43.7402 140.238 43.7106L139.661 43.6753L139.674 43.1923C139.797 39.8634 141.492 37.8208 145.167 36.5873C146.063 36.2835 147.983 35.7968 148 35.8734Z" fill="#FAFAFA"/>
<path d="M129.219 44.9406C129.876 46.7014 130.403 48.7225 130.52 49.9065C130.638 51.1504 130.519 52.3962 130.189 53.3714C129.964 54.0248 129.379 54.9991 128.902 55.5039C128.537 55.8923 128.036 56.3421 127.946 56.3605C127.808 56.3887 126.937 55.0456 126.59 54.2689C126.319 53.6637 126.06 52.3486 126.08 51.6705C126.114 50.4622 126.373 49.368 126.93 48.0925C127.233 47.3964 128.405 45.3343 128.822 44.7614L129.044 44.4624L129.219 44.9406Z" fill="#FAFAFA"/>
<path d="M143.078 44.1901C143.636 44.1423 145.632 44.0604 145.669 44.0862C145.714 44.1171 144.47 46.134 144.067 46.6904C143.079 48.0541 141.86 49.1916 140.802 49.7554C139.839 50.2664 138.637 50.4925 137.566 50.3717C136.861 50.2958 136.058 50.0866 136.034 49.978C135.999 49.8184 136.31 48.7335 136.57 48.1262C137.265 46.4822 138.493 45.3831 140.323 44.7478C140.899 44.5497 142.331 44.2631 143.078 44.1901Z" fill="#FAFAFA"/>
<path d="M125.213 51.4008C125.233 51.4902 125 52.8461 124.819 53.6974C124.466 55.3582 124.047 56.5519 123.452 57.5682C122.705 58.8625 121.846 59.6727 120.632 60.2416C120.212 60.4345 118.583 60.8216 118.48 60.7494C118.393 60.6939 118.27 59.4575 118.284 58.8406C118.294 58.5449 118.358 58.0113 118.434 57.6486C118.919 55.2533 120.585 53.5572 124.088 51.8851C125.056 51.4263 125.204 51.3561 125.213 51.4008Z" fill="#FAFAFA"/>
<path d="M136.575 51.2955C136.662 51.2911 136.923 51.2843 137.165 51.2748C138.083 51.2402 139.804 51.4148 141.449 51.7252L141.638 51.7599L141.32 52.1321C140.681 52.8969 139.661 53.9136 138.941 54.5082C137.576 55.6356 136.616 56.1326 135.323 56.3975C134.382 56.5836 133.648 56.5738 132.778 56.3449C132.274 56.2146 131.161 55.7619 131.055 55.6502C130.978 55.559 131.182 55.0635 131.597 54.3377C132.226 53.2477 132.976 52.5067 133.975 51.9883C134.357 51.79 134.649 51.6968 135.436 51.5221C135.978 51.3978 136.487 51.2935 136.575 51.2955Z" fill="#FAFAFA"/>
<path d="M129.266 56.9576C130.893 56.8446 132.933 57.4145 135.478 58.6883L136.181 59.0382L136.019 59.158C135.697 59.3976 134.494 60.098 133.852 60.4229C132.805 60.9511 132.228 61.1696 131.23 61.4075C129.502 61.8282 128.152 61.7178 126.782 61.0374C126.282 60.786 125.463 60.2197 125.081 59.8507L124.828 59.609L125.139 59.2316C126.286 57.8552 127.731 57.0586 129.266 56.9576Z" fill="#FAFAFA"/>
<path d="M122.111 61.3003C124.056 61.1886 126.198 61.9645 129.339 63.924C129.417 63.968 129.27 64.0649 128.597 64.3896C126.847 65.2487 126.117 65.5118 124.727 65.7899C123.231 66.0964 122.255 66.0694 121.11 65.6968C120.166 65.3895 119.21 64.7711 118.418 63.959L118 63.5374L118.319 63.1983C119.376 62.0876 120.795 61.3763 122.111 61.3003Z" fill="#FAFAFA"/>
<path d="M63.1232 23.004L60.4912 33H58.8812L57.1172 26.826C57.0612 26.658 57.0052 26.4713 56.9492 26.266C56.9025 26.0607 56.8559 25.86 56.8092 25.664C56.7625 25.4587 56.7205 25.2767 56.6832 25.118C56.6552 24.9593 56.6319 24.838 56.6132 24.754C56.6039 24.838 56.5852 24.9593 56.5572 25.118C56.5292 25.2767 56.4919 25.4587 56.4452 25.664C56.3985 25.86 56.3519 26.0653 56.3052 26.28C56.2585 26.4853 56.2072 26.6813 56.1512 26.868L54.4152 33H52.8052L50.1872 23.004H51.7412L53.2112 28.912C53.2579 29.1173 53.3045 29.3273 53.3512 29.542C53.3979 29.7567 53.4399 29.9713 53.4772 30.186C53.5239 30.4007 53.5612 30.6107 53.5892 30.816C53.6265 31.012 53.6592 31.194 53.6872 31.362C53.7152 31.1847 53.7432 30.9933 53.7712 30.788C53.8085 30.5827 53.8505 30.3727 53.8972 30.158C53.9439 29.934 53.9905 29.7147 54.0372 29.5C54.0932 29.2853 54.1492 29.0893 54.2052 28.912L55.8712 23.004H57.3832L59.1052 28.94C59.1612 29.1267 59.2125 29.3273 59.2592 29.542C59.3152 29.7567 59.3665 29.976 59.4132 30.2C59.4599 30.4147 59.4972 30.6247 59.5252 30.83C59.5625 31.026 59.5952 31.2033 59.6232 31.362C59.6512 31.1287 59.6885 30.8767 59.7352 30.606C59.7912 30.326 59.8519 30.0413 59.9172 29.752C59.9825 29.4533 60.0479 29.1733 60.1132 28.912L61.5832 23.004H63.1232ZM70.7934 29.22C70.7934 29.8453 70.7094 30.4007 70.5414 30.886C70.3734 31.3713 70.1354 31.782 69.8274 32.118C69.5194 32.454 69.1461 32.7107 68.7074 32.888C68.2688 33.056 67.7741 33.14 67.2234 33.14C66.7194 33.14 66.2528 33.056 65.8234 32.888C65.3941 32.7107 65.0208 32.454 64.7034 32.118C64.3954 31.782 64.1528 31.3713 63.9754 30.886C63.7981 30.4007 63.7094 29.8407 63.7094 29.206C63.7094 28.3753 63.8494 27.6707 64.1294 27.092C64.4188 26.5133 64.8294 26.0747 65.3614 25.776C65.9028 25.468 66.5374 25.314 67.2654 25.314C67.9561 25.314 68.5628 25.468 69.0854 25.776C69.6174 26.0747 70.0328 26.5133 70.3314 27.092C70.6394 27.6707 70.7934 28.38 70.7934 29.22ZM65.2354 29.22C65.2354 29.78 65.3054 30.2653 65.4454 30.676C65.5854 31.0773 65.8048 31.3853 66.1034 31.6C66.4021 31.8147 66.7848 31.922 67.2514 31.922C67.7181 31.922 68.1008 31.8147 68.3994 31.6C68.6981 31.3853 68.9174 31.0773 69.0574 30.676C69.1974 30.2653 69.2674 29.78 69.2674 29.22C69.2674 28.6413 69.1928 28.156 69.0434 27.764C68.9034 27.372 68.6841 27.0733 68.3854 26.868C68.0961 26.6533 67.7134 26.546 67.2374 26.546C66.5374 26.546 66.0288 26.7793 65.7114 27.246C65.3941 27.7127 65.2354 28.3707 65.2354 29.22ZM76.3987 25.314C76.5294 25.314 76.674 25.3233 76.8327 25.342C76.9914 25.3513 77.122 25.3653 77.2247 25.384L77.0707 26.77C76.968 26.742 76.8467 26.7187 76.7067 26.7C76.5667 26.6813 76.436 26.672 76.3147 26.672C76.0347 26.672 75.764 26.728 75.5027 26.84C75.2507 26.9427 75.022 27.0967 74.8167 27.302C74.6114 27.498 74.448 27.7407 74.3267 28.03C74.2147 28.3193 74.1587 28.6507 74.1587 29.024V33H72.6747V25.454H73.8507L74.0467 26.798H74.1027C74.2614 26.5273 74.4527 26.28 74.6767 26.056C74.9007 25.832 75.1574 25.6547 75.4467 25.524C75.736 25.384 76.0534 25.314 76.3987 25.314ZM80.106 33H78.622V22.36H80.106V33ZM85.0264 33.14C84.1211 33.14 83.3884 32.8133 82.8284 32.16C82.2777 31.5067 82.0024 30.536 82.0024 29.248C82.0024 27.9507 82.2824 26.9707 82.8424 26.308C83.4024 25.6453 84.1397 25.314 85.0544 25.314C85.4371 25.314 85.7684 25.3653 86.0484 25.468C86.3377 25.5613 86.5851 25.692 86.7904 25.86C87.0051 26.028 87.1871 26.2147 87.3364 26.42H87.4204C87.4017 26.2893 87.3784 26.1027 87.3504 25.86C87.3224 25.608 87.3084 25.384 87.3084 25.188V22.36H88.7924V33H87.6304L87.3784 31.992H87.3084C87.1684 32.2067 86.9911 32.4027 86.7764 32.58C86.5711 32.748 86.3237 32.8833 86.0344 32.986C85.7451 33.0887 85.4091 33.14 85.0264 33.14ZM85.3764 31.922C86.1044 31.922 86.6177 31.7213 86.9164 31.32C87.2151 30.9093 87.3644 30.298 87.3644 29.486V29.262C87.3644 28.3753 87.2197 27.6987 86.9304 27.232C86.6504 26.7653 86.1277 26.532 85.3624 26.532C84.7557 26.532 84.2984 26.7793 83.9904 27.274C83.6824 27.7593 83.5284 28.4267 83.5284 29.276C83.5284 30.1253 83.6824 30.7787 83.9904 31.236C84.2984 31.6933 84.7604 31.922 85.3764 31.922ZM92.4061 23.158C92.3221 23.4847 92.2147 23.8393 92.0841 24.222C91.9534 24.6047 91.8134 24.9873 91.6641 25.37C91.5147 25.7433 91.3607 26.098 91.2021 26.434H90.1241C90.1894 26.1633 90.2547 25.8787 90.3201 25.58C90.3947 25.2813 90.4601 24.9827 90.5161 24.684C90.5814 24.376 90.6374 24.082 90.6841 23.802C90.7401 23.5127 90.7867 23.2467 90.8241 23.004H92.3081L92.4061 23.158ZM98.3176 30.872C98.3176 31.3667 98.1962 31.782 97.9536 32.118C97.7109 32.454 97.3609 32.7107 96.9036 32.888C96.4462 33.056 95.8956 33.14 95.2516 33.14C94.7196 33.14 94.2622 33.098 93.8796 33.014C93.5062 32.9393 93.1609 32.8273 92.8436 32.678V31.376C93.1796 31.5347 93.5669 31.6793 94.0056 31.81C94.4442 31.9313 94.8736 31.992 95.2936 31.992C95.8536 31.992 96.2549 31.9033 96.4976 31.726C96.7496 31.5487 96.8756 31.3107 96.8756 31.012C96.8756 30.844 96.8289 30.6947 96.7356 30.564C96.6422 30.424 96.4649 30.284 96.2036 30.144C95.9516 29.9947 95.5782 29.8267 95.0836 29.64C94.6076 29.444 94.2016 29.2527 93.8656 29.066C93.5296 28.87 93.2729 28.6413 93.0956 28.38C92.9182 28.1093 92.8296 27.764 92.8296 27.344C92.8296 26.6907 93.0909 26.1913 93.6136 25.846C94.1456 25.4913 94.8456 25.314 95.7136 25.314C96.1709 25.314 96.6002 25.3607 97.0016 25.454C97.4122 25.538 97.8089 25.6687 98.1916 25.846L97.7016 26.98C97.4869 26.8773 97.2629 26.7933 97.0296 26.728C96.8056 26.6533 96.5769 26.5927 96.3436 26.546C96.1196 26.4993 95.8862 26.476 95.6436 26.476C95.1956 26.476 94.8549 26.546 94.6216 26.686C94.3882 26.826 94.2716 27.022 94.2716 27.274C94.2716 27.4513 94.3229 27.6053 94.4256 27.736C94.5376 27.8667 94.7289 27.9973 94.9996 28.128C95.2702 28.2587 95.6389 28.4173 96.1056 28.604C96.5722 28.7813 96.9689 28.9633 97.2956 29.15C97.6316 29.3367 97.8836 29.5653 98.0516 29.836C98.2289 30.1067 98.3176 30.452 98.3176 30.872Z" fill="white"/>
<path d="M71.9525 6.42L71.3925 9.34H74.0525V10.88H71.0925L70.2925 15H68.6525L69.4525 10.88H66.8725L66.1125 15H64.5125L65.2525 10.88H62.7925V9.34H65.5525L66.1325 6.42H63.5325V4.88H66.4125L67.1925 0.719999H68.8525L68.0525 4.88H70.6725L71.4525 0.719999H73.0525L72.2525 4.88H74.7325V6.42H71.9525ZM67.1725 9.34H69.7525L70.3325 6.42H67.7525L67.1725 9.34ZM85.7622 15H76.1622V13.36L79.8422 9.62C80.5622 8.88667 81.1622 8.25333 81.6422 7.72C82.1222 7.17333 82.4822 6.65333 82.7222 6.16C82.9622 5.65333 83.0822 5.10667 83.0822 4.52C83.0822 3.78667 82.8689 3.24 82.4422 2.88C82.0155 2.50667 81.4622 2.32 80.7822 2.32C80.1289 2.32 79.5422 2.44667 79.0222 2.7C78.5022 2.94 77.9622 3.28 77.4022 3.72L76.2622 2.3C76.6489 1.96667 77.0622 1.66667 77.5022 1.4C77.9555 1.13333 78.4555 0.919999 79.0022 0.76C79.5622 0.599999 80.1755 0.519999 80.8422 0.519999C81.7489 0.519999 82.5289 0.679999 83.1822 0.999999C83.8355 1.30667 84.3355 1.74667 84.6822 2.32C85.0422 2.89333 85.2222 3.56667 85.2222 4.34C85.2222 4.91333 85.1355 5.45333 84.9622 5.96C84.7889 6.45333 84.5355 6.94 84.2022 7.42C83.8822 7.9 83.4889 8.38667 83.0222 8.88C82.5555 9.37333 82.0422 9.89333 81.4822 10.44L78.8222 13.02V13.12H85.7622V15Z" fill="white"/>
<path d="M39.2238 51L37.2638 44.93H37.2238C37.2372 45.0633 37.2472 45.2433 37.2538 45.47C37.2672 45.6967 37.2772 45.94 37.2838 46.2C37.2972 46.46 37.3038 46.7167 37.3038 46.97V51H36.2938V43.86H37.8538L39.7338 49.59H39.7638L41.6738 43.86H43.2338V51H42.1738V46.91C42.1738 46.6767 42.1772 46.4367 42.1838 46.19C42.1905 45.9367 42.2005 45.7 42.2138 45.48C42.2272 45.26 42.2372 45.08 42.2438 44.94H42.2038L40.1938 51H39.2238ZM49.2052 48.3C49.2052 48.7467 49.1486 49.1433 49.0352 49.49C48.9219 49.8367 48.7586 50.13 48.5452 50.37C48.3386 50.61 48.0852 50.7933 47.7852 50.92C47.4852 51.04 47.1486 51.1 46.7752 51.1C46.4352 51.1 46.1186 51.04 45.8252 50.92C45.5319 50.7933 45.2786 50.61 45.0652 50.37C44.8519 50.13 44.6852 49.8367 44.5652 49.49C44.4519 49.1433 44.3952 48.7433 44.3952 48.29C44.3952 47.6967 44.4919 47.1933 44.6852 46.78C44.8786 46.3667 45.1552 46.0533 45.5152 45.84C45.8819 45.62 46.3152 45.51 46.8152 45.51C47.2819 45.51 47.6952 45.62 48.0552 45.84C48.4152 46.0533 48.6952 46.3667 48.8952 46.78C49.1019 47.1933 49.2052 47.7 49.2052 48.3ZM45.5152 48.3C45.5152 48.7 45.5586 49.0467 45.6452 49.34C45.7386 49.6267 45.8786 49.8467 46.0652 50C46.2586 50.1533 46.5019 50.23 46.7952 50.23C47.0952 50.23 47.3386 50.1533 47.5252 50C47.7186 49.8467 47.8586 49.6267 47.9452 49.34C48.0386 49.0467 48.0852 48.7 48.0852 48.3C48.0852 47.8867 48.0386 47.54 47.9452 47.26C47.8519 46.98 47.7119 46.7667 47.5252 46.62C47.3386 46.4667 47.0919 46.39 46.7852 46.39C46.3386 46.39 46.0152 46.5567 45.8152 46.89C45.6152 47.2233 45.5152 47.6933 45.5152 48.3ZM53.667 49.48C53.667 49.8333 53.587 50.13 53.427 50.37C53.267 50.61 53.0336 50.7933 52.727 50.92C52.4203 51.04 52.0436 51.1 51.597 51.1C51.2436 51.1 50.9336 51.07 50.667 51.01C50.407 50.9567 50.167 50.8767 49.947 50.77V49.84C50.1803 49.9533 50.447 50.0567 50.747 50.15C51.047 50.2367 51.3336 50.28 51.607 50.28C51.9603 50.28 52.217 50.2167 52.377 50.09C52.537 49.9633 52.617 49.7933 52.617 49.58C52.617 49.46 52.5836 49.3533 52.517 49.26C52.457 49.16 52.3403 49.06 52.167 48.96C51.9936 48.8533 51.7436 48.7333 51.417 48.6C51.097 48.46 50.827 48.3233 50.607 48.19C50.3936 48.05 50.227 47.8867 50.107 47.7C49.9936 47.5067 49.937 47.26 49.937 46.96C49.937 46.4933 50.117 46.1367 50.477 45.89C50.837 45.6367 51.307 45.51 51.887 45.51C52.207 45.51 52.5036 45.5433 52.777 45.61C53.0503 45.67 53.317 45.7633 53.577 45.89L53.247 46.7C53.0936 46.6267 52.937 46.5667 52.777 46.52C52.6236 46.4667 52.4703 46.4233 52.317 46.39C52.1636 46.3567 52.0103 46.34 51.857 46.34C51.5703 46.34 51.3536 46.39 51.207 46.49C51.0603 46.59 50.987 46.73 50.987 46.91C50.987 47.0433 51.0203 47.1567 51.087 47.25C51.1603 47.3433 51.2836 47.4367 51.457 47.53C51.637 47.6233 51.8836 47.7333 52.197 47.86C52.5103 47.9867 52.777 48.1167 52.997 48.25C53.217 48.3833 53.3836 48.5467 53.497 48.74C53.6103 48.9333 53.667 49.18 53.667 49.48ZM56.5368 50.24C56.6768 50.24 56.8135 50.2267 56.9468 50.2C57.0801 50.1733 57.1968 50.1433 57.2968 50.11V50.91C57.1835 50.9633 57.0335 51.0067 56.8468 51.04C56.6668 51.08 56.4768 51.1 56.2768 51.1C55.9968 51.1 55.7401 51.05 55.5068 50.95C55.2735 50.85 55.0868 50.6767 54.9468 50.43C54.8068 50.1833 54.7368 49.84 54.7368 49.4V46.42H54.0468V45.94L54.7868 45.54L55.1568 44.4H55.8268V45.61H57.2568V46.42H55.8268V49.38C55.8268 49.6733 55.8935 49.89 56.0268 50.03C56.1601 50.17 56.3301 50.24 56.5368 50.24ZM62.0701 51.1C61.4701 51.1 60.9834 50.8667 60.6101 50.4C60.2434 49.9333 60.0601 49.24 60.0601 48.32C60.0601 47.3933 60.2467 46.6933 60.6201 46.22C60.9934 45.7467 61.4834 45.51 62.0901 45.51C62.3501 45.51 62.5734 45.5467 62.7601 45.62C62.9467 45.6867 63.1101 45.78 63.2501 45.9C63.3901 46.02 63.5067 46.1533 63.6001 46.3H63.6601C63.6467 46.2067 63.6301 46.0733 63.6101 45.9C63.5967 45.72 63.5901 45.56 63.5901 45.42V43.4H64.6701V51H63.8201L63.6301 50.28H63.5901C63.4967 50.4333 63.3801 50.5733 63.2401 50.7C63.1001 50.82 62.9334 50.9167 62.7401 50.99C62.5534 51.0633 62.3301 51.1 62.0701 51.1ZM62.3601 50.23C62.8267 50.23 63.1534 50.0867 63.3401 49.8C63.5334 49.5067 63.6301 49.07 63.6301 48.49V48.33C63.6301 47.6967 63.5401 47.2133 63.3601 46.88C63.1801 46.5467 62.8434 46.38 62.3501 46.38C61.9634 46.38 61.6701 46.5567 61.4701 46.91C61.2701 47.2567 61.1701 47.7333 61.1701 48.34C61.1701 48.9467 61.2701 49.4133 61.4701 49.74C61.6701 50.0667 61.9667 50.23 62.3601 50.23ZM70.5197 48.3C70.5197 48.7467 70.463 49.1433 70.3497 49.49C70.2364 49.8367 70.073 50.13 69.8597 50.37C69.653 50.61 69.3997 50.7933 69.0997 50.92C68.7997 51.04 68.463 51.1 68.0897 51.1C67.7497 51.1 67.433 51.04 67.1397 50.92C66.8464 50.7933 66.593 50.61 66.3797 50.37C66.1664 50.13 65.9997 49.8367 65.8797 49.49C65.7664 49.1433 65.7097 48.7433 65.7097 48.29C65.7097 47.6967 65.8064 47.1933 65.9997 46.78C66.193 46.3667 66.4697 46.0533 66.8297 45.84C67.1964 45.62 67.6297 45.51 68.1297 45.51C68.5964 45.51 69.0097 45.62 69.3697 45.84C69.7297 46.0533 70.0097 46.3667 70.2097 46.78C70.4164 47.1933 70.5197 47.7 70.5197 48.3ZM66.8297 48.3C66.8297 48.7 66.873 49.0467 66.9597 49.34C67.053 49.6267 67.193 49.8467 67.3797 50C67.573 50.1533 67.8164 50.23 68.1097 50.23C68.4097 50.23 68.653 50.1533 68.8397 50C69.033 49.8467 69.173 49.6267 69.2597 49.34C69.353 49.0467 69.3997 48.7 69.3997 48.3C69.3997 47.8867 69.353 47.54 69.2597 47.26C69.1664 46.98 69.0264 46.7667 68.8397 46.62C68.653 46.4667 68.4064 46.39 68.0997 46.39C67.653 46.39 67.3297 46.5567 67.1297 46.89C66.9297 47.2233 66.8297 47.6933 66.8297 48.3ZM74.7859 48.01C74.7525 47.8833 74.7192 47.7533 74.6859 47.62C74.6525 47.4867 74.6192 47.36 74.5859 47.24C74.5592 47.12 74.5359 47.0067 74.5159 46.9C74.4959 46.7933 74.4792 46.7 74.4659 46.62H74.4259C74.4192 46.7 74.4025 46.7967 74.3759 46.91C74.3559 47.0167 74.3325 47.1333 74.3059 47.26C74.2792 47.38 74.2492 47.5067 74.2159 47.64C74.1825 47.7667 74.1492 47.8967 74.1159 48.03L73.3159 50.99H72.0759L70.7059 45.6H71.7959L72.4359 48.44C72.4825 48.6267 72.5225 48.8167 72.5559 49.01C72.5959 49.1967 72.6325 49.3767 72.6659 49.55C72.6992 49.7167 72.7192 49.8633 72.7259 49.99H72.7659C72.7792 49.9033 72.7959 49.8 72.8159 49.68C72.8425 49.5533 72.8692 49.4233 72.8959 49.29C72.9225 49.1567 72.9492 49.0267 72.9759 48.9C73.0092 48.7733 73.0392 48.6633 73.0659 48.57L73.8659 45.6H75.0559L75.8259 48.57C75.8659 48.7033 75.9059 48.8567 75.9459 49.03C75.9859 49.2033 76.0225 49.3733 76.0559 49.54C76.0892 49.7067 76.1092 49.8533 76.1159 49.98H76.1459C76.1592 49.8667 76.1792 49.7267 76.2059 49.56C76.2392 49.3933 76.2792 49.2133 76.3259 49.02C76.3725 48.8267 76.4159 48.6333 76.4559 48.44L77.1159 45.6H78.1859L76.8059 50.99H75.5459L74.7859 48.01ZM81.4816 45.51C82.0683 45.51 82.5183 45.6667 82.8316 45.98C83.1516 46.2933 83.3116 46.7967 83.3116 47.49V51H82.2316V47.64C82.2316 47.22 82.1483 46.9067 81.9816 46.7C81.8216 46.4867 81.5716 46.38 81.2316 46.38C80.7316 46.38 80.3883 46.5433 80.2016 46.87C80.015 47.1967 79.9216 47.6667 79.9216 48.28V51H78.8416V45.61H79.6916L79.8416 46.33H79.9016C80.015 46.1433 80.1516 45.99 80.3116 45.87C80.4716 45.75 80.6516 45.66 80.8516 45.6C81.0516 45.54 81.2616 45.51 81.4816 45.51ZM85.6787 51H84.5987V43.4H85.6787V51ZM91.5263 48.3C91.5263 48.7467 91.4697 49.1433 91.3563 49.49C91.243 49.8367 91.0797 50.13 90.8663 50.37C90.6597 50.61 90.4063 50.7933 90.1063 50.92C89.8063 51.04 89.4697 51.1 89.0963 51.1C88.7563 51.1 88.4397 51.04 88.1463 50.92C87.853 50.7933 87.5997 50.61 87.3863 50.37C87.173 50.13 87.0063 49.8367 86.8863 49.49C86.773 49.1433 86.7163 48.7433 86.7163 48.29C86.7163 47.6967 86.813 47.1933 87.0063 46.78C87.1997 46.3667 87.4763 46.0533 87.8363 45.84C88.203 45.62 88.6363 45.51 89.1363 45.51C89.603 45.51 90.0163 45.62 90.3763 45.84C90.7363 46.0533 91.0163 46.3667 91.2163 46.78C91.423 47.1933 91.5263 47.7 91.5263 48.3ZM87.8363 48.3C87.8363 48.7 87.8797 49.0467 87.9663 49.34C88.0597 49.6267 88.1997 49.8467 88.3863 50C88.5797 50.1533 88.823 50.23 89.1163 50.23C89.4163 50.23 89.6597 50.1533 89.8463 50C90.0397 49.8467 90.1797 49.6267 90.2663 49.34C90.3597 49.0467 90.4063 48.7 90.4063 48.3C90.4063 47.8867 90.3597 47.54 90.2663 47.26C90.173 46.98 90.033 46.7667 89.8463 46.62C89.6597 46.4667 89.413 46.39 89.1063 46.39C88.6597 46.39 88.3363 46.5567 88.1363 46.89C87.9363 47.2233 87.8363 47.6933 87.8363 48.3ZM94.598 45.51C95.2314 45.51 95.708 45.66 96.028 45.96C96.3547 46.2533 96.518 46.7167 96.518 47.35V51H95.748L95.538 50.25H95.498C95.3447 50.4433 95.1914 50.6033 95.038 50.73C94.8914 50.8567 94.718 50.95 94.518 51.01C94.3247 51.07 94.0847 51.1 93.798 51.1C93.498 51.1 93.228 51.0433 92.988 50.93C92.748 50.81 92.558 50.63 92.418 50.39C92.278 50.1433 92.208 49.8367 92.208 49.47C92.208 48.9233 92.4014 48.5067 92.788 48.22C93.1814 47.9333 93.778 47.7767 94.578 47.75L95.438 47.72V47.42C95.438 47.02 95.3547 46.74 95.188 46.58C95.028 46.42 94.8014 46.34 94.508 46.34C94.2614 46.34 94.018 46.38 93.778 46.46C93.538 46.54 93.3047 46.6367 93.078 46.75L92.748 45.98C92.9947 45.8467 93.2747 45.7367 93.588 45.65C93.908 45.5567 94.2447 45.51 94.598 45.51ZM94.788 48.43C94.2414 48.4567 93.8614 48.56 93.648 48.74C93.4347 48.9133 93.328 49.16 93.328 49.48C93.328 49.76 93.4014 49.9633 93.548 50.09C93.7014 50.2167 93.898 50.28 94.138 50.28C94.5047 50.28 94.8114 50.1633 95.058 49.93C95.3114 49.6967 95.438 49.3467 95.438 48.88V48.41L94.788 48.43ZM99.5373 51.1C98.9373 51.1 98.4506 50.8667 98.0773 50.4C97.7106 49.9333 97.5273 49.24 97.5273 48.32C97.5273 47.3933 97.7139 46.6933 98.0873 46.22C98.4606 45.7467 98.9506 45.51 99.5573 45.51C99.8173 45.51 100.041 45.5467 100.227 45.62C100.414 45.6867 100.577 45.78 100.717 45.9C100.857 46.02 100.974 46.1533 101.067 46.3H101.127C101.114 46.2067 101.097 46.0733 101.077 45.9C101.064 45.72 101.057 45.56 101.057 45.42V43.4H102.137V51H101.287L101.097 50.28H101.057C100.964 50.4333 100.847 50.5733 100.707 50.7C100.567 50.82 100.401 50.9167 100.207 50.99C100.021 51.0633 99.7973 51.1 99.5373 51.1ZM99.8273 50.23C100.294 50.23 100.621 50.0867 100.807 49.8C101.001 49.5067 101.097 49.07 101.097 48.49V48.33C101.097 47.6967 101.007 47.2133 100.827 46.88C100.647 46.5467 100.311 46.38 99.8173 46.38C99.4306 46.38 99.1373 46.5567 98.9373 46.91C98.7373 47.2567 98.6373 47.7333 98.6373 48.34C98.6373 48.9467 98.7373 49.4133 98.9373 49.74C99.1373 50.0667 99.4339 50.23 99.8273 50.23ZM105.497 45.51C105.944 45.51 106.33 45.61 106.657 45.81C106.984 46.0033 107.234 46.2833 107.407 46.65C107.587 47.0167 107.677 47.45 107.677 47.95V48.53H104.287C104.3 49.0833 104.434 49.5067 104.687 49.8C104.94 50.0933 105.297 50.24 105.757 50.24C106.084 50.24 106.374 50.21 106.627 50.15C106.887 50.0833 107.15 49.9867 107.417 49.86V50.74C107.164 50.86 106.904 50.95 106.637 51.01C106.377 51.07 106.06 51.1 105.687 51.1C105.2 51.1 104.767 50.9967 104.387 50.79C104.007 50.5833 103.71 50.2767 103.497 49.87C103.284 49.4567 103.177 48.95 103.177 48.35C103.177 47.7433 103.274 47.23 103.467 46.81C103.66 46.39 103.93 46.07 104.277 45.85C104.63 45.6233 105.037 45.51 105.497 45.51ZM105.497 46.33C105.157 46.33 104.884 46.4533 104.677 46.7C104.47 46.9467 104.35 47.2967 104.317 47.75H106.607C106.607 47.47 106.567 47.2233 106.487 47.01C106.407 46.7967 106.284 46.63 106.117 46.51C105.957 46.39 105.75 46.33 105.497 46.33ZM110.417 51.1C109.817 51.1 109.33 50.8667 108.957 50.4C108.59 49.9333 108.407 49.24 108.407 48.32C108.407 47.3933 108.593 46.6933 108.967 46.22C109.34 45.7467 109.83 45.51 110.437 45.51C110.697 45.51 110.92 45.5467 111.107 45.62C111.293 45.6867 111.457 45.78 111.597 45.9C111.737 46.02 111.853 46.1533 111.947 46.3H112.007C111.993 46.2067 111.977 46.0733 111.957 45.9C111.943 45.72 111.937 45.56 111.937 45.42V43.4H113.017V51H112.167L111.977 50.28H111.937C111.843 50.4333 111.727 50.5733 111.587 50.7C111.447 50.82 111.28 50.9167 111.087 50.99C110.9 51.0633 110.677 51.1 110.417 51.1ZM110.707 50.23C111.173 50.23 111.5 50.0867 111.687 49.8C111.88 49.5067 111.977 49.07 111.977 48.49V48.33C111.977 47.6967 111.887 47.2133 111.707 46.88C111.527 46.5467 111.19 46.38 110.697 46.38C110.31 46.38 110.017 46.5567 109.817 46.91C109.617 47.2567 109.517 47.7333 109.517 48.34C109.517 48.9467 109.617 49.4133 109.817 49.74C110.017 50.0667 110.313 50.23 110.707 50.23ZM53.8604 57.51C54.4337 57.51 54.8637 57.6667 55.1504 57.98C55.4437 58.2933 55.5904 58.7967 55.5904 59.49V63H54.5104V59.63C54.5104 59.2167 54.4337 58.9067 54.2804 58.7C54.1337 58.4867 53.9037 58.38 53.5904 58.38C53.1571 58.38 52.8471 58.53 52.6604 58.83C52.4804 59.1233 52.3904 59.55 52.3904 60.11V63H51.3004V59.63C51.3004 59.3567 51.2671 59.1267 51.2004 58.94C51.1337 58.7533 51.0337 58.6133 50.9004 58.52C50.7671 58.4267 50.5937 58.38 50.3804 58.38C50.0804 58.38 49.8437 58.4533 49.6704 58.6C49.4971 58.7467 49.3737 58.9633 49.3004 59.25C49.2271 59.53 49.1904 59.8733 49.1904 60.28V63H48.1104V57.61H48.9604L49.1204 58.33H49.1704C49.2771 58.1433 49.4037 57.99 49.5504 57.87C49.7037 57.75 49.8771 57.66 50.0704 57.6C50.2637 57.54 50.4637 57.51 50.6704 57.51C51.0504 57.51 51.3704 57.5833 51.6304 57.73C51.8904 57.87 52.0837 58.0867 52.2104 58.38H52.2804C52.4404 58.08 52.6637 57.86 52.9504 57.72C53.2371 57.58 53.5404 57.51 53.8604 57.51ZM61.4052 60.3C61.4052 60.7467 61.3486 61.1433 61.2352 61.49C61.1219 61.8367 60.9586 62.13 60.7452 62.37C60.5386 62.61 60.2852 62.7933 59.9852 62.92C59.6852 63.04 59.3486 63.1 58.9752 63.1C58.6352 63.1 58.3186 63.04 58.0252 62.92C57.7319 62.7933 57.4786 62.61 57.2652 62.37C57.0519 62.13 56.8852 61.8367 56.7652 61.49C56.6519 61.1433 56.5952 60.7433 56.5952 60.29C56.5952 59.6967 56.6919 59.1933 56.8852 58.78C57.0786 58.3667 57.3552 58.0533 57.7152 57.84C58.0819 57.62 58.5152 57.51 59.0152 57.51C59.4819 57.51 59.8952 57.62 60.2552 57.84C60.6152 58.0533 60.8952 58.3667 61.0952 58.78C61.3019 59.1933 61.4052 59.7 61.4052 60.3ZM57.7152 60.3C57.7152 60.7 57.7586 61.0467 57.8452 61.34C57.9386 61.6267 58.0786 61.8467 58.2652 62C58.4586 62.1533 58.7019 62.23 58.9952 62.23C59.2952 62.23 59.5386 62.1533 59.7252 62C59.9186 61.8467 60.0586 61.6267 60.1452 61.34C60.2386 61.0467 60.2852 60.7 60.2852 60.3C60.2852 59.8867 60.2386 59.54 60.1452 59.26C60.0519 58.98 59.9119 58.7667 59.7252 58.62C59.5386 58.4667 59.2919 58.39 58.9852 58.39C58.5386 58.39 58.2152 58.5567 58.0152 58.89C57.8152 59.2233 57.7152 59.6933 57.7152 60.3ZM63.517 57.23C63.517 57.45 63.5103 57.66 63.497 57.86C63.4903 58.0533 63.4803 58.2067 63.467 58.32H63.517C63.657 58.0933 63.847 57.9033 64.087 57.75C64.3336 57.5967 64.647 57.52 65.027 57.52C65.6336 57.52 66.1203 57.7533 66.487 58.22C66.8603 58.6867 67.047 59.38 67.047 60.3C67.047 60.92 66.9636 61.4367 66.797 61.85C66.6303 62.2633 66.3936 62.5767 66.087 62.79C65.7803 62.9967 65.4236 63.1 65.017 63.1C64.6303 63.1 64.317 63.0267 64.077 62.88C63.8436 62.7267 63.657 62.5467 63.517 62.34H63.437L63.247 63H62.437V55.4H63.517V57.23ZM64.747 58.38C64.447 58.38 64.207 58.4467 64.027 58.58C63.847 58.7133 63.717 58.9167 63.637 59.19C63.557 59.4633 63.517 59.81 63.517 60.23V60.31C63.517 60.93 63.6036 61.4067 63.777 61.74C63.957 62.0667 64.2903 62.23 64.777 62.23C65.157 62.23 65.4436 62.0633 65.637 61.73C65.837 61.3967 65.937 60.9167 65.937 60.29C65.937 59.6567 65.837 59.18 65.637 58.86C65.4436 58.54 65.147 58.38 64.747 58.38ZM69.1766 57.61V63H68.0866V57.61H69.1766ZM68.6466 55.56C68.8066 55.56 68.9466 55.6067 69.0666 55.7C69.1866 55.7933 69.2466 55.95 69.2466 56.17C69.2466 56.3833 69.1866 56.54 69.0666 56.64C68.9466 56.7333 68.8066 56.78 68.6466 56.78C68.4732 56.78 68.3266 56.7333 68.2066 56.64C68.0866 56.54 68.0266 56.3833 68.0266 56.17C68.0266 55.95 68.0866 55.7933 68.2066 55.7C68.3266 55.6067 68.4732 55.56 68.6466 55.56ZM71.574 63H70.494V55.4H71.574V63ZM73.9816 57.61V63H72.8916V57.61H73.9816ZM73.4516 55.56C73.6116 55.56 73.7516 55.6067 73.8716 55.7C73.9916 55.7933 74.0516 55.95 74.0516 56.17C74.0516 56.3833 73.9916 56.54 73.8716 56.64C73.7516 56.7333 73.6116 56.78 73.4516 56.78C73.2783 56.78 73.1316 56.7333 73.0116 56.64C72.8916 56.54 72.8316 56.3833 72.8316 56.17C72.8316 55.95 72.8916 55.7933 73.0116 55.7C73.1316 55.6067 73.2783 55.56 73.4516 55.56ZM77.2091 62.24C77.3491 62.24 77.4857 62.2267 77.6191 62.2C77.7524 62.1733 77.8691 62.1433 77.9691 62.11V62.91C77.8557 62.9633 77.7057 63.0067 77.5191 63.04C77.3391 63.08 77.1491 63.1 76.9491 63.1C76.6691 63.1 76.4124 63.05 76.1791 62.95C75.9457 62.85 75.7591 62.6767 75.6191 62.43C75.4791 62.1833 75.4091 61.84 75.4091 61.4V58.42H74.7191V57.94L75.4591 57.54L75.8291 56.4H76.4991V57.61H77.9291V58.42H76.4991V61.38C76.4991 61.6733 76.5657 61.89 76.6991 62.03C76.8324 62.17 77.0024 62.24 77.2091 62.24ZM78.0209 57.61H79.1809L80.2109 60.67C80.2643 60.8233 80.3109 60.9733 80.3509 61.12C80.3976 61.2667 80.4343 61.4133 80.4609 61.56C80.4943 61.7 80.5209 61.84 80.5409 61.98H80.5709C80.6043 61.8067 80.6509 61.6033 80.7109 61.37C80.7709 61.13 80.8376 60.8933 80.9109 60.66L81.8909 57.61H83.0609L80.9009 63.73C80.7743 64.0767 80.6209 64.3733 80.4409 64.62C80.2676 64.8733 80.0543 65.0667 79.8009 65.2C79.5543 65.3333 79.2576 65.4 78.9109 65.4C78.7643 65.4 78.6309 65.39 78.5109 65.37C78.3976 65.3567 78.2976 65.34 78.2109 65.32V64.48C78.2776 64.4933 78.3609 64.5067 78.4609 64.52C78.5609 64.5333 78.6643 64.54 78.7709 64.54C78.9643 64.54 79.1309 64.5 79.2709 64.42C79.4109 64.34 79.5276 64.2267 79.6209 64.08C79.7143 63.94 79.7909 63.7733 79.8509 63.58L80.0509 63L78.0209 57.61ZM87.9012 57.51C88.5345 57.51 89.0112 57.66 89.3312 57.96C89.6578 58.2533 89.8212 58.7167 89.8212 59.35V63H89.0512L88.8412 62.25H88.8012C88.6478 62.4433 88.4945 62.6033 88.3412 62.73C88.1945 62.8567 88.0212 62.95 87.8212 63.01C87.6278 63.07 87.3878 63.1 87.1012 63.1C86.8012 63.1 86.5312 63.0433 86.2912 62.93C86.0512 62.81 85.8612 62.63 85.7212 62.39C85.5812 62.1433 85.5112 61.8367 85.5112 61.47C85.5112 60.9233 85.7045 60.5067 86.0912 60.22C86.4845 59.9333 87.0812 59.7767 87.8812 59.75L88.7412 59.72V59.42C88.7412 59.02 88.6578 58.74 88.4912 58.58C88.3312 58.42 88.1045 58.34 87.8112 58.34C87.5645 58.34 87.3212 58.38 87.0812 58.46C86.8412 58.54 86.6078 58.6367 86.3812 58.75L86.0512 57.98C86.2978 57.8467 86.5778 57.7367 86.8912 57.65C87.2112 57.5567 87.5478 57.51 87.9012 57.51ZM88.0912 60.43C87.5445 60.4567 87.1645 60.56 86.9512 60.74C86.7378 60.9133 86.6312 61.16 86.6312 61.48C86.6312 61.76 86.7045 61.9633 86.8512 62.09C87.0045 62.2167 87.2012 62.28 87.4412 62.28C87.8078 62.28 88.1145 62.1633 88.3612 61.93C88.6145 61.6967 88.7412 61.3467 88.7412 60.88V60.41L88.0912 60.43ZM93.7104 57.51C94.3171 57.51 94.8037 57.7433 95.1704 58.21C95.5371 58.6767 95.7204 59.3733 95.7204 60.3C95.7204 60.9067 95.6337 61.42 95.4604 61.84C95.2937 62.26 95.0571 62.5767 94.7504 62.79C94.4437 62.9967 94.0871 63.1 93.6804 63.1C93.4337 63.1 93.2137 63.0667 93.0204 63C92.8271 62.9267 92.6637 62.8333 92.5304 62.72C92.4037 62.6 92.2904 62.4733 92.1904 62.34H92.1304C92.1437 62.46 92.1571 62.6033 92.1704 62.77C92.1837 62.93 92.1904 63.0733 92.1904 63.2V65.4H91.1104V57.61H91.9904L92.1404 58.33H92.1904C92.2904 58.1833 92.4071 58.0467 92.5404 57.92C92.6804 57.7933 92.8437 57.6933 93.0304 57.62C93.2237 57.5467 93.4504 57.51 93.7104 57.51ZM93.4204 58.38C93.1271 58.38 92.8904 58.4467 92.7104 58.58C92.5304 58.7067 92.3971 58.9 92.3104 59.16C92.2304 59.4133 92.1904 59.7367 92.1904 60.13V60.29C92.1904 60.7033 92.2271 61.0567 92.3004 61.35C92.3804 61.6367 92.5104 61.8567 92.6904 62.01C92.8771 62.1567 93.1271 62.23 93.4404 62.23C93.7071 62.23 93.9271 62.15 94.1004 61.99C94.2737 61.8233 94.4004 61.5933 94.4804 61.3C94.5671 61.0067 94.6104 60.6667 94.6104 60.28C94.6104 59.6933 94.5104 59.23 94.3104 58.89C94.1171 58.55 93.8204 58.38 93.4204 58.38ZM99.36 57.51C99.9667 57.51 100.453 57.7433 100.82 58.21C101.187 58.6767 101.37 59.3733 101.37 60.3C101.37 60.9067 101.283 61.42 101.11 61.84C100.943 62.26 100.707 62.5767 100.4 62.79C100.093 62.9967 99.7367 63.1 99.33 63.1C99.0833 63.1 98.8633 63.0667 98.67 63C98.4767 62.9267 98.3133 62.8333 98.18 62.72C98.0533 62.6 97.94 62.4733 97.84 62.34H97.78C97.7933 62.46 97.8067 62.6033 97.82 62.77C97.8333 62.93 97.84 63.0733 97.84 63.2V65.4H96.76V57.61H97.64L97.79 58.33H97.84C97.94 58.1833 98.0567 58.0467 98.19 57.92C98.33 57.7933 98.4933 57.6933 98.68 57.62C98.8733 57.5467 99.1 57.51 99.36 57.51ZM99.07 58.38C98.7767 58.38 98.54 58.4467 98.36 58.58C98.18 58.7067 98.0467 58.9 97.96 59.16C97.88 59.4133 97.84 59.7367 97.84 60.13V60.29C97.84 60.7033 97.8767 61.0567 97.95 61.35C98.03 61.6367 98.16 61.8567 98.34 62.01C98.5267 62.1567 98.7767 62.23 99.09 62.23C99.3567 62.23 99.5767 62.15 99.75 61.99C99.9233 61.8233 100.05 61.5933 100.13 61.3C100.217 61.0067 100.26 60.6667 100.26 60.28C100.26 59.6933 100.16 59.23 99.96 58.89C99.7667 58.55 99.47 58.38 99.07 58.38Z" fill="white"/>
</svg>
