<svg width="28" height="28" viewBox="0 0 28 28" fill="none" xmlns="http://www.w3.org/2000/svg">
<path fill-rule="evenodd" clip-rule="evenodd" d="M14 28C21.732 28 28 21.732 28 14C28 6.26801 21.732 0 14 0C6.26801 0 0 6.26801 0 14C0 21.732 6.26801 28 14 28ZM18.6375 10.4159C19.1409 10.3564 19.6201 10.2229 20.0667 10.0262C19.7338 10.5222 19.3108 10.958 18.8217 11.3048L18.8301 11.6252C18.8301 14.8956 16.3273 18.6667 11.7486 18.6667C10.3429 18.6667 9.03499 18.2565 7.93333 17.5531C8.12818 17.575 8.32608 17.5871 8.527 17.5871C9.69309 17.5871 10.7667 17.1928 11.6181 16.5293C10.5294 16.5097 9.61043 15.7943 9.29352 14.8104C9.44592 14.8406 9.60135 14.8564 9.76208 14.8564C9.98954 14.8564 10.2094 14.8255 10.4179 14.7697C9.27988 14.542 8.4216 13.5416 8.4216 12.3429V12.312C8.75747 12.4975 9.14112 12.609 9.54903 12.6226C8.88182 12.1793 8.44206 11.4216 8.44206 10.5629C8.44206 10.1091 8.56413 9.68389 8.7787 9.319C10.0062 10.8163 11.8403 11.8016 13.9086 11.9049C13.8661 11.724 13.8442 11.5347 13.8442 11.341C13.8442 9.97491 14.9587 8.86667 16.3333 8.86667C17.0498 8.86667 17.6958 9.16673 18.1499 9.64847C18.7171 9.53689 19.2493 9.33106 19.7315 9.0476C19.545 9.62434 19.1515 10.1098 18.6375 10.4159Z" fill="white"/>
</svg>
