<svg width="20" height="20" viewBox="0 0 20 20" fill="none" xmlns="http://www.w3.org/2000/svg">
<path d="M19 10C19 12.3869 18.0518 14.6761 16.364 16.364C14.6761 18.0518 12.3869 19 10 19M19 10C19 7.61305 18.0518 5.32387 16.364 3.63604C14.6761 1.94821 12.3869 1 10 1M19 10H1M10 19C7.61305 19 5.32387 18.0518 3.63604 16.364C1.94821 14.6761 1 12.3869 1 10M10 19C11.933 19 13.5 14.97 13.5 10C13.5 5.03 11.933 1 10 1M10 19C8.067 19 6.5 14.97 6.5 10C6.5 5.03 8.067 1 10 1M1 10C1 7.61305 1.94821 5.32387 3.63604 3.63604C5.32387 1.94821 7.61305 1 10 1" stroke="#1B1B1C" stroke-width="2" stroke-linejoin="round"/>
</svg>
