<svg width="20" height="16" viewBox="0 0 20 16" fill="none" xmlns="http://www.w3.org/2000/svg">
<path d="M11 15V13.75C11 11.679 9.081 10 6.714 10H5.286C2.919 10 1 11.679 1 13.75V15M13.286 10H14.714C17.081 10 19 11.679 19 13.75V15M13 1.17001C13.4524 1.01061 13.9364 0.96201 14.4115 1.02829C14.8866 1.09457 15.3388 1.27381 15.7303 1.55095C16.1218 1.8281 16.4412 2.19508 16.6616 2.62113C16.8819 3.04717 16.997 3.51984 16.997 3.99951C16.997 4.47918 16.8819 4.95186 16.6616 5.3779C16.4412 5.80394 16.1218 6.17092 15.7303 6.44807C15.3388 6.72522 14.8866 6.90445 14.4115 6.97073C13.9364 7.03701 13.4524 6.98842 13 6.82901M9 4.00001C9 4.79566 8.68393 5.55872 8.12132 6.12133C7.55871 6.68394 6.79565 7.00001 6 7.00001C5.20435 7.00001 4.44129 6.68394 3.87868 6.12133C3.31607 5.55872 3 4.79566 3 4.00001C3 3.20436 3.31607 2.4413 3.87868 1.87869C4.44129 1.31608 5.20435 1.00001 6 1.00001C6.79565 1.00001 7.55871 1.31608 8.12132 1.87869C8.68393 2.4413 9 3.20436 9 4.00001V4.00001Z" stroke="#1B1B1C" stroke-width="2" stroke-linecap="round" stroke-linejoin="round"/>
</svg>
