<svg width="20" height="20" viewBox="0 0 20 20" fill="none" xmlns="http://www.w3.org/2000/svg">
<path d="M10 2.5V1M10 19V17.5M19 10H17.5M2.5 10H1M15.303 4.697L16.364 3.636M3.636 16.364L4.696 15.304M16.364 16.364L15.304 15.304M4.696 4.696L3.636 3.636M14 10C14 11.0609 13.5786 12.0783 12.8284 12.8284C12.0783 13.5786 11.0609 14 10 14C8.93913 14 7.92172 13.5786 7.17157 12.8284C6.42143 12.0783 6 11.0609 6 10C6 8.93913 6.42143 7.92172 7.17157 7.17157C7.92172 6.42143 8.93913 6 10 6C11.0609 6 12.0783 6.42143 12.8284 7.17157C13.5786 7.92172 14 8.93913 14 10V10Z" stroke="#1B1B1C" stroke-width="2" stroke-linecap="round"/>
</svg>
