<svg width="20" height="20" viewBox="0 0 20 20" fill="none" xmlns="http://www.w3.org/2000/svg">
<path d="M8 16V15.893C8 15.098 7.504 14.405 6.883 13.909C6.07246 13.2626 5.48289 12.3802 5.1959 11.384C4.90891 10.3878 4.93868 9.32701 5.28109 8.34846C5.62351 7.36991 6.26164 6.52199 7.10716 5.92207C7.95268 5.32215 8.96377 4.99988 10.0005 4.99988C11.0372 4.99988 12.0483 5.32215 12.8938 5.92207C13.7394 6.52199 14.3775 7.36991 14.7199 8.34846C15.0623 9.32701 15.0921 10.3878 14.8051 11.384C14.5181 12.3802 13.9285 13.2626 13.118 13.909C12.496 14.406 12 15.098 12 15.893V16M8 16V18C8 18.2652 8.10536 18.5196 8.29289 18.7071C8.48043 18.8946 8.73478 19 9 19H11C11.2652 19 11.5196 18.8946 11.7071 18.7071C11.8946 18.5196 12 18.2652 12 18V16M8 16H12M18 10H19M2 10H1M10 2V1M15.657 4.343L16.364 3.636M4.344 4.343L3.636 3.636M10 13V11" stroke="#1B1B1C" stroke-width="2" stroke-linecap="round" stroke-linejoin="round"/>
</svg>
