<svg width="28" height="28" viewBox="0 0 28 28" fill="none" xmlns="http://www.w3.org/2000/svg">
<path fill-rule="evenodd" clip-rule="evenodd" d="M14 28C21.732 28 28 21.732 28 14C28 6.26801 21.732 0 14 0C6.26801 0 0 6.26801 0 14C0 21.732 6.26801 28 14 28ZM17.7151 10.2942H20.0957V10.2941H20.1765V10.3759V10.6381V10.72H20.0957H20.042C19.5509 10.72 19.0999 10.9913 18.8649 11.428L15.8871 16.9625L15.5656 17.5601C15.5165 17.6514 15.426 17.7059 15.3236 17.7059C15.212 17.7059 15.112 17.6386 15.0689 17.5345L13.8871 14.6812L12.6597 16.9625L12.3381 17.5601C12.2891 17.6514 12.1986 17.7059 12.0962 17.7059C11.9845 17.7059 11.8846 17.6386 11.8415 17.5345L9.37677 11.5835C9.1595 11.059 8.6562 10.72 8.09454 10.72H7.90432H7.82353V10.6382V10.376V10.2942H7.90432H11.0035H11.0843V10.376V10.6382V10.72H11.0035H10.7144C10.5769 10.72 10.4543 10.7866 10.3781 10.9026C10.302 11.0186 10.2888 11.1588 10.342 11.2873L12.4801 16.4495L13.6888 14.2024L12.6042 11.5835C12.3869 11.059 11.8836 10.72 11.322 10.72H11.2828H11.202V10.6382V10.376V10.2942H11.2828H14.13H14.2108V10.376V10.6382V10.72H14.13H13.9418C13.8043 10.72 13.6817 10.7866 13.6055 10.9026C13.5294 11.0186 13.5162 11.1588 13.5694 11.2873L14.3035 13.0597L15.1272 11.5284C15.2192 11.3573 15.2155 11.1551 15.1172 10.9876C15.019 10.82 14.8455 10.72 14.6531 10.72H14.4876H14.4069V10.6382V10.376V10.2942H14.4876H16.8683H16.9491V10.376V10.6382V10.72H16.8683H16.8146C16.3235 10.72 15.8725 10.9913 15.6375 11.4281L14.5019 13.5386L15.7075 16.4495L18.3546 11.5284C18.4466 11.3573 18.4429 11.1551 18.3447 10.9876C18.2464 10.82 18.0729 10.72 17.8805 10.72H17.7151H17.6343V10.6382V10.376V10.2942H17.7151Z" fill="white"/>
</svg>
